<svg xmlns="http://www.w3.org/2000/svg" viewBox="0 0 161 40"><rect width="161" height="40" fill="maroon" rx="2" ry="2"/><g fill="#e6e6e6" stroke="#000" stroke-linecap="square" stroke-linejoin="round" aria-label="DOTFILES" font-family="Gang of Three" font-size="28.2" letter-spacing="0" style="-inkscape-font-specification:gan;text-align:center" text-anchor="middle"><path d="m 39.161461,10.318121 h 12.15433 l 2.645841,0.01378 v 8.378495 q 0.165365,2.108404 -0.413413,4.051443 -0.564997,1.929259 -2.204867,3.775835 -1.626089,1.832796 -3.596689,2.259989 -1.95682,0.427193 -9.026175,0.261828 l 0.02756,-3.913639 2.618279,-0.02756 -1.543407,-0.771704 V 14.410906 H 38.5 Z m 4.644002,4.092785 v 10.817629 q 2.094623,0.289389 3.61047,-0.633899 1.515846,-0.937069 2.025721,-2.328891 0.509876,-1.405603 0.31695,-7.854839 z" style="-inkscape-font-specification:&quot;Gang of Three&quot;"/><path d="m 59.371495,10.262999 v 1.805235 l 1.074873,-1.805235 h 9.095077 q 1.681211,0.468535 1.584748,4.740465 v 12.416158 q -0.33073,1.515846 -2.576938,1.584748 H 58.034794 q -2.342671,0.09646 -2.714742,-2.039502 V 11.103605 Z m 0,4.065224 v 10.610923 h 7.689474 V 14.328223 Z" style="-inkscape-font-specification:&quot;Gang of Three&quot;"/><path d="m 72.815341,10.304341 h 12.512621 l -0.509876,4.134126 h -4.451075 v 8.943492 q -0.234268,2.080843 1.405602,2.466695 l -1.00597,3.886079 q -1.887918,0.05512 -3.197058,-1.226458 -1.295359,-1.281579 -1.3367,-3.389983 v -9.853 l 1.777674,-0.854386 -5.608631,-0.01378 z" style="-inkscape-font-specification:&quot;Gang of Three&quot;"/><path d="m 87.210037,10.304341 h 12.278354 l -0.881947,3.95498 H 92.23989 l -0.01378,4.5751 0.496095,-1.874138 5.084975,1.033532 -0.771703,4.092785 -4.850708,-0.96463 0.01378,7.413866 -4.134125,0.868166 V 15.182609 l 1.99816,-0.923288 h -3.527787 z" style="-inkscape-font-specification:&quot;Gang of Three&quot;"/><path d="m 101.30157,10.304341 h 7.51032 l -0.55121,3.968761 H 107.048 v 10.955433 h 1.54341 l -0.22049,3.844737 h -7.51033 l 0.37207,-3.872298 1.61231,0.01378 0.0276,-9.963244 1.73634,-0.978409 h -3.70694 z" style="-inkscape-font-specification:&quot;Gang of Three&quot;"/><path d="m 111.85152,10.262999 h 4.09278 l -0.0138,9.853001 2.34268,0.02756 -0.39964,3.307301 -1.83279,0.01378 v 1.226457 l 7.35874,-0.01378 -0.42719,4.327052 -12.69177,-0.02756 0.62012,-4.258149 h 0.86817 v -1.226458 h -1.35048 l 0.35829,-3.362422 1.04731,-0.01378 z" style="-inkscape-font-specification:&quot;Gang of Three&quot;"/><path d="m 125.4883,10.27678 h 13.27054 l -1.10243,4.161687 -6.69729,0.02756 v 2.053283 h 7.34497 l -0.66146,3.748274 -6.77997,-0.01378 q -0.20671,2.97657 0.35829,3.9412 0.57878,0.950849 1.91548,0.964629 h 5.04363 l -0.67524,3.899859 q -6.07716,0.137804 -7.05557,-0.372071 -0.96463,-0.523656 -2.02572,-1.708772 -1.04732,-1.198897 -1.32292,-3.514007 v -3.210838 l -2.27377,0.01378 0.56499,-3.775835 1.86036,0.01378 v -2.149746 l -2.42535,0.01378 z" style="-inkscape-font-specification:&quot;Gang of Three&quot;"/><path d="M 140.59958,10.27678 150.82465,10.263 q 1.66743,0.413413 2.14974,1.860357 0.4961,1.446944 0.4961,2.535597 l -3.61047,0.716582 q 0,-1.295359 -2.43914,-1.102433 h -2.83876 L 153.25,22.76184 q 0.96463,1.240238 0.24805,4.175467 -0.71658,1.874137 -3.54157,2.122185 l -6.95911,-0.01378 q -1.21268,-0.399633 -1.91548,-1.529627 -0.7028,-1.143775 -1.08865,-2.824986 l 3.77583,-1.281579 q 0.15159,1.570968 1.2678,1.515846 l 3.67937,0.01378 q 0.84061,-0.192925 -0.27561,-1.212676 l -8.06154,-7.882401 1.98438,-1.570967 h -2.5356 z" style="-inkscape-font-specification:&quot;Gang of Three&quot;"/></g><g transform="translate(-1.1)"><rect width="25" height="25" x="8.6" y="7.5" fill="#e6e6e6" stroke="#000" stroke-linecap="square" stroke-linejoin="round" rx="2" ry="2"/><g transform="translate(1.3)"><circle cx="25.5" cy="24.4" r="2" fill="maroon"/><path fill="none" stroke="maroon" stroke-linecap="round" stroke-linejoin="round" stroke-width="3" d="M 13.697488,15.050252 18.647233,20 13.697485,24.949748"/></g></g></svg>