<svg xmlns="http://www.w3.org/2000/svg" xml:space="preserve" width="150mm" height="70mm" viewBox="0 0 150 70"><g style="display:inline"><rect width="150" height="50" rx="2" ry="2" style="fill:#eff1f5;fill-opacity:1;stroke:none;stroke-width:3.19816;stroke-linecap:round;stroke-linejoin:round;stroke-dasharray:none"/><path d="m29.12 11.56-.096.28c-.12.349-.198.424-.548.546l-.281.099.227.05c.246.055.58.397.58.594 0 .068.024.146.052.175.028.028.07-.025.094-.117.087-.324.219-.485.495-.609.263-.118.27-.13.112-.17-.294-.073-.535-.314-.587-.588z" style="fill:#40a02b;fill-opacity:1;stroke-width:.0541771"/><path d="m10.52 7.273-.209-.05c-.259-.063-.318-.113-.43-.356l-.09-.195-.021.167c-.022.18-.245.443-.387.457-.048.005-.103.028-.121.05-.019.022.022.048.09.06.239.04.364.123.472.313.103.181.112.185.13.068a.573.573 0 0 1 .382-.462zM27.902 15.635l.043-.21c.056-.26.104-.32.344-.44l.193-.095-.168-.016c-.18-.017-.45-.232-.468-.374-.006-.048-.03-.102-.053-.12-.023-.018-.048.024-.057.092-.033.24-.113.367-.3.48-.178.109-.182.118-.065.132a.573.573 0 0 1 .473.37z" style="fill:#40a02b;fill-opacity:1;stroke-width:.0391142"/><path d="M-57.807 37.813c-.469-.037-.584-.005-2.302.67a172.7 172.7 0 0 1-1.815.699c-.432.162-.938.396-1.125.517-.435.283-1.18 1.03-1.416 1.422-.234.388-.276.629-.22 1.272.024.285.04.52.035.523-.006.003-.336.072-.735.154-.767.159-1.677.44-1.97.612-.128.074-.18.148-.192.267-.014.142.035.213.354.514.57.539 1.62 1.025 2.07.959.091-.013.166-.001.166.03 0 .147-.248.917-.404 1.253-.492 1.06-1.118 1.48-1.735 1.166-.268-.137-.307-.1-.11.108.268.278.702.342 1.1.162.714-.324 1.335-1.438 1.551-2.782.043-.264.087-.486.096-.494.01-.007.106-.03.217-.05.2-.037.2-.036.148.115a6.019 6.019 0 0 0-.129.605c-.088.513-.368 1.147-.77 1.744-.138.207-.239.39-.224.405.055.054.603-.493.862-.862.145-.207.264-.367.265-.355 0 .012.06.192.131.4l.129.377-.203.336c-.797 1.32-.712 3.135.22 4.762.32.557.57.903 1.135 1.568.228.268.518.646.643.84.125.194.21.291.19.217-.075-.264-.358-.767-.837-1.49-.8-1.21-1.12-1.855-1.341-2.707-.362-1.388-.063-2.634.877-3.645.46-.496.749-.634 1.33-.635.4 0 .503.02.78.156.783.385 1.667 1.584 1.932 2.622.343 1.338.091 2.754-.761 4.287-.562 1.009-.9 2.031-.95 2.875-.03.509-.024.503.245-.371a9.679 9.679 0 0 1 .906-2.073c.451-.783.628-1.145.789-1.619.563-1.654.4-3.23-.484-4.648l-.245-.395.065-.273c.086-.359.125-.316.504.549.553 1.261.74 2.067.74 3.18 0 1.172-.175 1.973-.78 3.552-.423 1.106-.695 1.917-.816 2.434-.082.353-.035.423.075.111.039-.112.396-.934.79-1.828.395-.894.759-1.749.807-1.899.07-.215.237-.971.254-1.154.008-.08.11.24.213.67.276 1.14.306 1.59.35 5.147.106 8.66.177 11.659.285 11.923.09.224.112-.614.113-4.34.002-6.137-.072-11.053-.176-11.703-.136-.853-.298-1.529-.496-2.062a3.674 3.674 0 0 1-.236-1.094 7.368 7.368 0 0 0-.139-.935c-.047-.185-.078-.342-.068-.352.01-.01.162.074.34.188.178.113.695.414 1.148.67.454.255.956.55 1.115.656.73.483 1.353 1.356 1.803 2.523.633 1.641.842 3.035.942 6.285.113 3.684.203 5.586.277 5.77.08.2.075-6.62-.006-7.801-.139-2.009-.471-3.554-1.035-4.809-.602-1.337-1.127-1.941-2.319-2.668l-.294-.18.19-.08c.182-.075.427-.32.427-.425 0-.027-.073-.012-.16.033-.241.125-.615.104-.92-.05-.272-.138-.75-.65-1.676-1.788-.557-.685-.78-1.113-.983-1.88-.186-.709-.174-.641-.119-.641.108 0 .435.372.498.568.205.634.632 1.242 1.024 1.455.205.112.34.145.6.145.184 0 .381-.026.439-.057.152-.081.128.013-.045.178-.316.302-.67.333-1.12.097-.167-.088-.288-.132-.267-.095.242.405 1.138 1.21 1.613 1.449.5.25 1.06.198 1.227-.115.076-.143.037-.183-.103-.108-.146.078-.562.075-.75-.006-.15-.064-.938-.583-.938-.617 0-.01.087-.059.193-.11.39-.184.678-.781.67-1.388l-.004-.34-.082.229c-.12.338-.394.556-.699.556-.492 0-.871-.324-1.27-1.09-.159-.305-.202-.432-.152-.449l.287-.09c.837-.253 1.833-1.124 1.659-1.45-.104-.193-1.036-.53-2.067-.745a7.733 7.733 0 0 1-.476-.107c-.01-.007.13-.31.312-.672.276-.551.328-.705.328-.94 0-.274-.005-.286-.367-.632-.338-.324-1.512-1.192-1.611-1.192-.024 0 .314.363.75.807.435.444.806.865.824.937.019.076-.012.25-.072.409-.103.269-.593 1.207-.631 1.207a3.99 3.99 0 0 1-.334-.307c-.683-.667-1.991-1.357-2.865-1.512-.294-.052-.244-.017.318.223.264.113.69.337.947.498.5.314 1.303.932 1.307 1.006.001.025-.162.026-.363.004-.553-.062-2.464-.046-3.07.025-.296.035-.55.051-.565.035-.016-.015-.04-.292-.053-.615-.03-.732.004-.813.621-1.469.615-.653 1.002-.896 2.049-1.293.477-.18 1.33-.51 1.896-.73 1.464-.57 1.56-.598 1.93-.565.284.026 2.076.596 2.67.85l.223.096-1.053.039-1.055.04-.34.327-.337.326-.26-.228c-.298-.263-.71-.517-.758-.47-.018.019.075.15.207.292s.31.351.397.465c.135.18.383.361.492.361.019 0 .198-.155.396-.346l.36-.347 1.166-.063c2.422-.13 2.728-.215 1.787-.49-.224-.065-.967-.32-1.653-.568-1.564-.566-1.748-.62-2.248-.659zm-2.539 5.4c1.156.115 2.452.39 3.057.648l.26.114-.262.265c-.281.286-.693.526-1.156.676l-.29.094-.144-.135c-.17-.158-.717-.382-1.287-.527-1.28-.328-2.944-.272-4.256.142-.351.111-.452.17-.596.348-.193.241-.23.247-.628.105-.64-.227-1.494-.812-1.403-.96.114-.184 1.88-.605 3.127-.745.844-.094 2.755-.107 3.578-.025zm-11.644 1.523c.15.392.152.916.006 1.239-.061.134-.28.453-.487.709-.421.52-.558.801-.597 1.24-.036.397.127.83.449 1.187.29.324.522.473.933.606.37.12.905.118.905-.002 0-.053-.106-.098-.326-.139-.948-.175-1.606-.8-1.62-1.537-.008-.465.046-.575.528-1.084.582-.614.703-.866.678-1.416-.016-.346-.046-.455-.182-.674-.09-.143-.216-.297-.281-.34-.201-.199-.046.11-.006.211zm8.78-.15c.84-.17 2.168-.109 3.132.144.177.047.2.075.258.327.087.38.079.997-.02 1.466-.045.217-.09.401-.1.41-.009.01-.096-.057-.19-.148a2.688 2.688 0 0 0-1.056-.603c-.73-.223-1.578-.037-2.115.464-.245.23-.248.227-.416-.292-.13-.403-.156-1.089-.056-1.444l.062-.222zm-7.052 2.232c-.354-.22-.415-.202-.138.041.15.132.343.372.431.532.141.254.162.343.162.726 0 .386-.017.464-.148.662-.082.124-.133.26-.115.307.048.125.109.103.254-.092.18-.243.254-.49.254-.853 0-.545-.27-1.055-.7-1.323zm8.705.112c-.523-.025-1.048.245-1.515.812-.321.39-.663 1.034-.774 1.46-.176.675-.06 1.514.317 2.304.193.405.71 1.22.916 1.443.167.182.163.15-.016-.14-.467-.76-.882-1.881-.953-2.577-.08-.784.225-1.617.826-2.253.145-.154.27-.14.412-.24-.071-.032-.414.404-.586.755-.245.501-.35.933-.35 1.443 0 .858.276 1.666 1.155 3.405.279.551.587 1.23.686 1.506.098.276.188.495.197.486.028-.028-.236-1.077-.385-1.531a18.66 18.66 0 0 0-.486-1.229c-.477-1.095-.66-1.637-.733-2.166-.1-.734.025-1.505.377-2.289.09-.198.146-.362.137-.387.24-.168.493-.404.693-.404.73 0 1.679 1.016 1.96 2.098.178.688.068 1.788-.327 3.293-.074.283.154-.136.352-.647.284-.735.395-1.256.396-1.877.002-.852-.253-1.59-.797-2.312-.458-.61-.979-.929-1.502-.953zm-2.931.379c-.034-.091-.497.915-.65 1.416a2.783 2.783 0 0 1-1.344 1.609l-.291.158.502-.553c.276-.304.608-.717.738-.918.216-.336.574-1.001.574-1.068 0-.015-.11.056-.246.16-.486.371-1.334.464-1.79.196-.287-.17-.282-.108.01.15.268.236.55.343.93.353.127.004.229.019.229.034 0 .015-.136.185-.303.379-.741.857-1.154 1.282-1.535 1.582-.485.38-.709.647-.959 1.142-.23.455-.367 1.033-.48 2.016-.049.417-.105.88-.125 1.03l-.038.269-.12-.202c-.124-.208-.194-.2-.21-.07.034-.107-.063-.266 0-.4.269-.572.303-.865.141-1.24-.067-.155-.144-.282-.17-.282-.026 0-.047.16-.047.354 0 .273-.036.431-.156.697-.086.19-.183.361-.215.381-.071.044-.28-.344-.28-.522 0-.068.146-.34.323-.601.389-.575.458-.77.422-1.172-.025-.279-.191-.714-.297-.78-.023-.014-.041.201-.041.48 0 .467-.056.705-.123.515-.016-.044-.172-.218-.346-.385-.207-.2-.316-.347-.316-.43 0-.069.113-.317.25-.55.45-.767.512-1.244.24-1.819-.088-.186-.17-.338-.182-.338-.011 0-.01.225.004.502l.028.504-.387.748c-.312.606-.387.797-.387.996 0 .24.015.26.461.686.253.242.461.463.461.494 0 .031-.064.142-.14.244-.504.673-.523 1.237-.055 1.674.113.106.136.164.111.299-.02.106.01.294.084.506l.117.336-.187.257c-.6.822-.82 1.773-.602 2.588.074.274.085.661.078 2.518-.01 2.699.095 5.646.25 7.068.03.279.042.305.086.19.032-.082.04-1.773.018-4.428-.02-2.361-.023-4.293-.008-4.293s.15.109.3.242c.151.134.342.278.425.32.195.102.8.212.931.17.115-.036.11-.051.57 1.625 1.227 4.456 2.32 8.144 2.716 9.172h-.002c.106.278.204.495.216.483.1-.1-.807-3.613-1.93-7.461-1.16-3.981-1.155-3.964-1.074-4.016.142-.09.205-.044.264.184.12.464.828 2.833.871 2.912.038.068.046.066.047-.014.002-.13-.233-1.337-.49-2.513-.17-.777-.204-1.012-.16-1.127.071-.189.071-.61 0-.655-.034-.02-.041-.138-.02-.298.029-.215.013-.303-.08-.461-.087-.148-.101-.219-.06-.295.198-.372-.076-.77-.631-.918-.224-.06-.225-.061-.338-.479-.063-.23-.14-.503-.168-.603l-.053-.182.256.033c.14.02.46.133.709.252.847.405 1.456 1.193 1.682 2.174.138.603.158.928.197 3.19a76.69 76.69 0 0 0 .082 2.654l.055.84c.003.076.02.06.056-.055.028-.09.066-1.344.084-2.79.033-2.703.004-3.384-.178-4.085-.166-.645-.678-1.485-1.144-1.875-.234-.196-1.093-.623-1.361-.678l-.182-.037.035-.36c.09-.925.262-2.078.363-2.458.22-.824.668-1.375 1.399-1.727l.812-.392a3.2 3.2 0 0 0 .63-.426c.153-.141.295-.242.314-.223.019.02.035.128.035.24 0 .482.247 1.349.597 2.094.328.696.759 1.353 1.83 2.799 1.057 1.425 1.552 2.197 1.989 3.092.293.601.608 1.448.765 2.058l.043.162.018-.2c.026-.278-.117-1.068-.287-1.589-.2-.608-.71-1.63-1.149-2.3a56.235 56.235 0 0 0-1.171-1.668c-1.032-1.42-1.289-1.818-1.606-2.477-.332-.692-.514-1.274-.6-1.928-.081-.625-.022-1.202.225-2.181.09-.354.153-.672.14-.705zm5.547.209c-.208-.374-.171-.341.379.326.22.268.641.725.935 1.015.294.29.525.528.514.528-.012 0-.213-.126-.448-.28-.656-.43-.878-.687-1.38-1.59zm-2.03.193c-.012.013.119.309.291.658.614 1.242.641 1.825.15 3.32-.339 1.036-.51 1.834-.562 2.63-.025.39-.018.54.028.54.035 0 .062-.086.062-.203 0-.314.178-.988.514-1.937.629-1.78.635-1.8.664-2.422.024-.518.011-.63-.114-1.03a3.674 3.674 0 0 0-.408-.855c-.257-.39-.578-.75-.625-.701zm-.646.02c-.306-.1-.697.84-.791 1.9-.086.964.08 1.806.574 2.906.078.174.162.317.188.317.025 0 .046.042.046.091 0 .18.065.017.305-.775.317-1.044.4-1.487.4-2.106 0-1.002-.377-2.221-.722-2.334zm-.031.232c.068.07.255.875.324 1.396.08.608.04 1.528-.112 2.602-.063.447-.123.837-.132.867-.058.176-.377-1.21-.463-2.012a7.066 7.066 0 0 1 .105-1.949c.121-.565.238-.945.278-.904zm-4.989 4.957c0 .02.063.214.14.432.177.492.545 1.23 1.036 2.076.776 1.337 1.064 1.94 1.387 2.902.5 1.49.66 2.711.77 5.875.042 1.252.102 2.506.132 2.79l.063.595c.004.045.027-.04.05-.19.062-.397.06-4.42-.003-5.336-.176-2.565-.756-4.521-1.868-6.31l-.773-1.246c-.24-.388-.55-.913-.686-1.166-.135-.253-.247-.443-.248-.422zm-2.959 2.15c.03.204.353 1.462.489 1.889.034.107.02.121-.118.121-.153 0-.158-.01-.369-.744-.2-.698-.091-.933-.002-1.266zm-.367 1.375c.052-.016.273.68.227.715-.009.007-.16.077-.334.156-.335.151-.414.17-.414.102 0-.09.464-.955.521-.973zm15.356.866c.093-.415.022-.31-.127.189-.193.643-.299 1.195-.4 2.098-.149 1.309-.106 5.22.07 6.314.019.12.05.204.068.186.018-.019.05-1.45.068-3.184.03-2.668.053-3.321.15-4.256.064-.607.14-1.213.17-1.347zm-14.61.158c.406-.024.76.053.881.238.134.203-.006.297-.568.38-.275.042-.603.12-.729.175l-.228.097.65-.02c.548-.016.68-.004.84.079.153.079.19.129.19.26 0 .158-.014.168-.569.347-.313.102-.58.193-.592.204-.075.063.101.069.59.023.305-.029.587-.038.629-.022.214.083-.021.582-.357.76-.17.09-.324.123-.57.123-.292 0-.375-.024-.6-.175-.526-.353-.89-1.054-.89-1.715 0-.27.02-.33.124-.395.335-.212.794-.336 1.2-.36z" style="fill:#7287fd;fill-opacity:1;stroke-width:.0541771" transform="matrix(1.29417 0 0 1.29417 98.277 -45.923)"/><ellipse cx="6.082" cy="16.195" rx=".859" ry=".85" style="fill:#d20f39;fill-opacity:1;stroke:none;stroke-width:.352777;stroke-linecap:round;stroke-linejoin:round;stroke-opacity:.25098"/><g aria-label="Dotfiles" style="font-size:31.75px;font-family:&quot;CaskaydiaCove Nerd Font Propo&quot;;-inkscape-font-specification:&quot;CaskaydiaCove Nerd Font Propo&quot;;text-align:center;text-anchor:middle;display:inline;fill:#179299;stroke-width:.352777;stroke-linecap:round;stroke-linejoin:round;stroke-opacity:.25098"><path d="M45.977 11.418q2 0 3.556.604 1.556.571 2.699 1.555 1.143.953 1.905 2.223.793 1.238 1.238 2.603.444 1.334.571 2.699.159 1.334.032 2.477-.063 2.571-.952 4.794-.89 2.222-2.35 3.905-1.429 1.651-3.27 2.604-1.81.952-3.715.952-1.905 0-3.08-.92-1.143-.89-1.587-2.096-.445-1.207-.222-2.445.254-1.27 1.143-1.937l.54-13.208v-.222q.031-.54-.064-1.048-.095-.54-.381-.952-.286-.413-.826-.635-.508-.254-1.365-.254h-.889v-.699zm-.603 23.178q1.587 0 2.794-1.048 1.206-1.016 2-2.635.825-1.651 1.238-3.715.413-2.064.413-4.127 0-1.747-.35-3.461-.317-1.746-1.015-3.175-.699-1.46-1.778-2.477-1.048-1.047-2.509-1.365l-.666 15.843q.412.35.603 1.143.222.921-.159 1.62-.35.698-1.143.889-.508.127-.889-.127-.35-.254-.508-.635-.159-.413-.095-.89.095-.476.444-.793.064.286.19.508.096.159.255.317.19.159.476.19.35.033.445-.253.127-.318 0-.635-.127-.35-.508-.572-.381-.222-.985-.031-.952.285-1.333 1.174-.35.89-.127 1.842.222.952 1.016 1.683.794.73 2.19.73zM72.552 22.182q0 1.555-.381 3.365-.35 1.81-1.175 3.366-.826 1.524-2.16 2.571-1.333 1.016-3.238 1.016-1.301.096-2.667-.412-1.333-.54-2.444-1.747-1.112-1.206-1.842-3.111-.698-1.937-.698-4.636 0-1.619.444-3.27.445-1.683 1.334-3.016.92-1.334 2.317-2.191 1.429-.857 3.334-.857 1.524 0 2.826.667 1.302.635 2.254 1.81.984 1.174 1.524 2.825.572 1.62.572 3.62zm-4.16-2.128q.032-.92-.127-1.905-.158-.984-.54-1.81-.349-.825-.92-1.365-.54-.54-1.302-.54-.508 0-1.08.382-.54.349-1.015 1.11-.477.763-.826 2.001-.35 1.207-.444 2.921.19-.508.666-.889.477-.413 1.302-.413.667 0 1.08.286.444.286.635.699.19.38.127.857-.064.444-.445.794-.063-.318-.19-.54-.096-.222-.286-.381-.19-.19-.508-.19-.381-.032-.54.412-.159.413-.032.92.127.509.508.953.413.413 1.143.413 1.302 0 2.032-.984.73-1.016.762-2.73zM65.503 31.2q1.302 0 1.905-1.62.603-1.619.826-4.35-.54.223-1.207.35-.635.127-1.429.063-1.333-.127-2.254-.889-.92-.793-1.238-2 .063 4.509.857 6.477.794 1.969 2.54 1.969zM80.616 26.246q0-.921.603-1.397.635-.508 1.46-.508.477 0 .953.19.477.19.858.603.412.413.635 1.048.254.635.254 1.492 0 1.016-.381 1.81-.35.794-.953 1.334-.571.54-1.365.825-.762.286-1.62.286-1.047 0-2.095-.445-1.048-.444-1.905-1.397-.825-.952-1.365-2.413-.508-1.492-.508-3.524V13.07l-2.921.063-.095-1.334 3.016-.031v-4.16l3.873-.19v4.286l4.16-.032.095 1.175-4.255.127v11.525q0 2.477.635 3.906.667 1.397 2.16 1.397.793 0 1.46-.73.698-.763.698-2.096 0-.73-.349-1.048-.317-.317-.698-.317-.35 0-.604.222-.222.222-.222.571 0 .286.159.477.19.19.38.317.223.159.54.222-.476.477-1.079.477t-1.08-.413q-.444-.445-.444-1.238z" style="font-family:&quot;Magical Neverland&quot;;-inkscape-font-specification:&quot;Magical Neverland&quot;;stroke-width:.352778"/><path d="M92.65 10.117q-.794.063-1.239.54-.413.444-.603 1.174-.159.73-.127 1.683.032.952.127 2l.127 1.842 4.413-.381.095 1.301-4.381.35 1.143 13.493q.063.794.286 1.239.222.476.571.698.381.222.857.254.508.064 1.112.064l.063.698-9.557.794-.095-1.207 1.524-.063q.953-.127 1.365-.603.413-.477.318-1.43l-1.143-13.652-2.445.223-.127-1.27 2.445-.191q-.127-1.746-.032-3.27.127-1.556.635-2.73.54-1.207 1.588-1.937 1.047-.762 2.762-.89 1.429-.126 2.413.318 1.016.445 1.62 1.143.634.667.952 1.46.317.794.349 1.366l-2.572 1.206q-.063-.762-.159-1.524-.095-.793-.349-1.397-.222-.635-.698-.984-.445-.381-1.239-.317z" style="font-family:&quot;Magical Neverland&quot;;-inkscape-font-specification:&quot;Magical Neverland&quot;;stroke-width:.352778"/><path d="M101.635 10.879q-.826 0-1.397-.572-.572-.571-.572-1.397 0-.825.572-1.397.571-.571 1.397-.571.825 0 1.365.571.571.572.571 1.397 0 .826-.571 1.397-.54.572-1.365.572zm-1.112 5.588q0-.699-.317-1.143-.318-.477-.794-.73-.444-.255-.92-.35-.477-.127-.763-.127l-.698.032v-.699l10.255-.571v.698l-1.492.096q-.826.095-1.429.508-.571.412-.571 1.397v11.049q0 1.238.38 1.968.413.699 1.747.857l1.492.127v.699l-10.255-.35v-1.206l1.016.095q1.143 0 1.746-.285.603-.318.603-1.366z" style="font-family:&quot;Magical Neverland&quot;;-inkscape-font-specification:&quot;Magical Neverland&quot;;stroke-width:.352778"/><path d="M113.128 28.563q0 .794.19 1.27.191.477.54.762.35.254.826.35.476.095 1.08.127v.666h-9.557v-1.174l1.492.063q.984-.063 1.429-.508.444-.444.444-1.429V7.418q0-.699-.317-1.143-.318-.445-.762-.699-.445-.254-.921-.349-.476-.095-.794-.095h-.698v-.73h9.398v.73q-.35 0-.762.095-.413.064-.762.286-.35.19-.604.603-.222.381-.222 1.016z" style="font-family:&quot;Magical Neverland&quot;;-inkscape-font-specification:&quot;Magical Neverland&quot;;stroke-width:.352778"/><path d="M123.86 25.166q-.699 0-1.366-.159-.635-.19-1.206-.508-.54-.317-.953-.793-.38-.508-.571-1.112.063 2.286.38 3.937.35 1.62.922 2.667.571 1.016 1.301 1.524.762.477 1.651.477.73 0 1.27-.35.572-.38.953-.984.38-.635.571-1.429.223-.793.223-1.65l2.413-.413q0 1.555-.477 2.73-.476 1.143-1.27 1.905-.762.762-1.778 1.143-.984.35-2.095.35-1.302.095-2.762-.413-1.43-.54-2.667-1.747-1.207-1.206-2-3.111-.794-1.937-.794-4.636 0-1.619.476-3.27.508-1.683 1.46-3.016.985-1.334 2.413-2.191 1.46-.857 3.366-.857 1.905 0 3.27.889t2.127 2.222q.762 1.302.89 2.858.126 1.524-.445 2.857-.572 1.302-1.873 2.191-1.302.889-3.43.889zm-4.064-4.318q.19-.54.666-.92.477-.382 1.302-.382.667 0 1.08.286.444.286.635.699.19.38.127.857-.064.444-.445.794-.063-.318-.19-.54-.127-.222-.318-.381-.159-.19-.476-.19-.381-.032-.508.412-.096.413.095.92.19.509.698.953.508.413 1.366.413.984 0 1.619-.698.667-.699.984-1.715.318-1.048.286-2.254 0-1.207-.35-2.223-.317-1.047-.984-1.746-.666-.698-1.65-.698-.509 0-1.144.38-.635.35-1.206 1.112-.572.762-1.016 2-.445 1.207-.572 2.921zM134.528 14.625q0 1.016.54 1.937.539.889 1.365 1.746.825.857 1.746 1.778.952.889 1.778 1.905.825 1.016 1.365 2.223.54 1.206.54 2.698 0 1.334-.445 2.382-.444 1.016-1.206 1.746t-1.81 1.111q-1.048.381-2.254.381-.89 0-1.778-.254-.89-.254-1.588-.794-.698-.54-1.143-1.365-.412-.825-.412-1.968 0-.794.222-1.366.254-.571.603-.952.381-.381.826-.54.444-.19.889-.19.666 0 1.143.38.508.35.508 1.048 0 .635-.35.953-.317.317-.762.317-.412 0-.698-.317.19-.032.38-.127.16-.064.255-.19.127-.128.127-.35 0-.444-.603-.444-.445 0-.89.38-.412.35-.412 1.27 0 .921.667 1.62.698.667 1.873.698 1.397 0 2.032-.762.635-.793.635-2.032 0-1.111-.476-2-.477-.889-1.207-1.683-.73-.825-1.587-1.619-.826-.794-1.556-1.651-.73-.889-1.207-1.937-.476-1.047-.476-2.35 0-1.523.54-2.507.571-1.016 1.365-1.588.826-.603 1.778-.825.984-.254 1.778-.254.953 0 1.683.222.73.222 1.27.571.54.35.92.826.382.476.604.952.571 1.143.635 2.572l-3.905 1.143-.127-.667q1.11-.349 1.365-1.047.286-.699.127-1.43-.286-1.142-.921-1.555-.635-.413-1.397-.413-1.206 0-1.778.667-.571.635-.571 1.651z" style="font-family:&quot;Magical Neverland&quot;;-inkscape-font-specification:&quot;Magical Neverland&quot;;stroke-width:.352778"/></g><g aria-label="&amp; the magic of the terminal" style="font-size:7.9375px;font-family:&quot;Magical Neverland&quot;;-inkscape-font-specification:&quot;Magical Neverland&quot;;text-align:center;text-anchor:middle;fill:#04a5e5;stroke-width:.352777;stroke-linecap:round;stroke-linejoin:round;stroke-opacity:.25098"><path d="M46.245 41.51q-.008.183-.024.405-.016.215-.055.445l.34.31q.168.134.287.238.135.119.254.206l-.778 1.032q-.064-.064-.143-.15-.072-.08-.175-.183-.095-.104-.214-.239-.214.334-.548.548-.333.214-.833.214-.397 0-.683-.11-.278-.112-.46-.31-.183-.199-.27-.477-.08-.277-.08-.603 0-.293.088-.524.095-.238.246-.436.159-.199.357-.365.199-.175.413-.342-.206-.38-.333-.746-.12-.373-.12-.706 0-.262.072-.5.071-.238.222-.413.151-.183.39-.286.237-.103.57-.103.278 0 .477.087.206.088.333.23.135.143.199.326.063.183.063.373 0 .238-.071.452-.072.215-.199.413-.119.199-.285.381-.16.183-.334.365.175.23.357.445.19.206.39.405.007-.088.007-.175.008-.087.008-.159v-.008q.008-.436-.46-.436l.031-.254 1.548.016-.024.15-.087.008q-.27.008-.365.12-.095.103-.111.357zm-2.088-2q.048.27.183.556.135.278.317.564.278-.254.46-.548.183-.302.183-.722 0-.262-.158-.445-.151-.182-.421-.182-.04 0-.15.023-.112.016-.223.096-.103.079-.175.238-.063.15-.016.42zm.366 4.525q.349 0 .563-.222.214-.23.35-.572-.27-.31-.572-.69-.294-.382-.556-.794-.23.293-.38.627-.144.325-.144.73 0 .492.19.706.2.215.549.215zM51.714 42.495q0-.23.15-.35.16-.126.366-.126.119 0 .238.047.119.048.214.151.103.103.159.262.064.159.064.373 0 .254-.096.453-.087.198-.238.333-.143.135-.341.206-.19.072-.405.072-.262 0-.524-.111-.262-.112-.476-.35-.206-.238-.341-.603-.127-.373-.127-.881v-2.77l-.73.016-.024-.334.754-.008v-1.04l.968-.047v1.072l1.04-.008.024.293-1.064.032v2.881q0 .62.159.977.166.349.54.349.198 0 .365-.183.174-.19.174-.523 0-.183-.087-.262-.08-.08-.175-.08-.087 0-.15.056-.056.055-.056.143 0 .071.04.119.047.047.095.08.055.039.135.055-.12.119-.27.119-.15 0-.27-.103-.111-.112-.111-.31z" style="stroke-width:.352778"/><path d="M56.842 44.241q.214 0 .333.095.127.104.175.254.047.151.007.326-.031.182-.135.333-.103.151-.277.246-.175.103-.421.103-.437 0-.65-.246-.207-.246-.279-.65-.071-.405-.04-.921.04-.524.112-1.056.071-.54.135-1.056.063-.523.047-.928-.008-.405-.143-.651-.127-.246-.452-.246-.19 0-.318.08-.127.07-.206.19-.071.119-.103.262-.032.142-.048.285v2.342q0 .246.032.38.032.136.111.207.08.064.199.08.127.016.317.031v.167h-2.39v-.294l.382.016q.246-.016.35-.127.11-.11.11-.357v-5.318q0-.175-.079-.286-.08-.11-.19-.174-.112-.064-.23-.088-.12-.024-.191-.024h-.183v-.182h2.35v.182q-.088 0-.19.024-.104.016-.191.072-.088.047-.151.15-.056.096-.056.255v2.032q.405-.524 1.064-.524.524.008.762.27.246.261.302.69.063.429-.016.976-.08.548-.207 1.12-.119.563-.246 1.11-.119.54-.143.97-.015.428.104.682.127.262.492.262.198 0 .325-.127t.15-.286q.033-.15-.047-.286-.08-.127-.293-.127-.127 0-.19.048-.064.055-.072.119-.008.071.031.119.04.056.127.056.064 0 .096-.04.031-.032.047-.072.016-.047.024-.11.072.063.095.142.024.088 0 .167-.023.087-.095.143-.063.055-.174.055-.215 0-.318-.135-.103-.135-.095-.301.016-.159.143-.294.135-.135.397-.135zM59.255 42.225q-.175 0-.342-.04-.159-.047-.301-.127-.135-.079-.239-.198-.095-.127-.142-.278.015.572.095.984.087.405.23.667.143.254.325.381.191.12.413.12.183 0 .318-.088.143-.095.238-.246.095-.159.143-.357.055-.199.055-.413l.604-.103q0 .389-.12.682-.119.286-.317.477-.19.19-.445.285-.246.088-.523.088-.326.023-.691-.104-.357-.135-.667-.436-.301-.302-.5-.778-.198-.484-.198-1.159 0-.405.119-.817.127-.421.365-.755.246-.333.603-.547.365-.215.842-.215.476 0 .817.223.341.222.532.555.19.326.222.715.032.38-.11.714-.144.326-.47.548-.325.222-.856.222zm-1.016-1.08q.047-.134.166-.23.12-.095.326-.095.166 0 .27.072.11.071.158.174.048.095.032.214-.016.112-.111.199-.016-.08-.048-.135-.031-.056-.08-.095-.039-.048-.118-.048-.095-.008-.127.103-.024.103.024.23.047.127.174.239.127.103.342.103.246 0 .404-.175.167-.174.246-.428.08-.262.072-.564 0-.302-.087-.556-.08-.262-.246-.436-.167-.175-.413-.175-.127 0-.286.095-.159.088-.302.278-.142.19-.254.5-.11.302-.142.73zM69.073 42.797q.008.277.095.388.096.112.247.12h.206v.246l-2.08.008v-.302l.103.008q.239.008.342-.08.103-.087.103-.357.008-.317.008-.706 0-.39-.016-.746v-.04q0-.286-.024-.556-.016-.277-.071-.492-.056-.214-.159-.341-.103-.135-.27-.135-.159 0-.262.12-.103.11-.167.285-.055.174-.087.389-.032.206-.047.397 0 .016-.008.023v.199l-.064.683v.007q-.016.326.087.453.112.127.334.135l-.008.182-2.032-.071.008-.183h.071q.064 0 .143-.016.087-.023.167-.071.08-.056.135-.135.063-.087.087-.206l.08-.897q.023-.286.015-.548 0-.27-.047-.484-.048-.214-.151-.35-.103-.142-.278-.166-.15-.024-.27.056-.11.071-.19.214-.08.135-.12.317-.04.183-.04.373v2.43q0 .317.072.476.08.15.35.166v.175l-2.072.008v-.302l.341.024q.23-.008.365-.087.135-.08.135-.326V40.05q0-.174-.079-.286-.08-.11-.19-.174-.112-.072-.23-.095-.12-.024-.2-.024l.128-.016-.302.016v-.175l1.683-.08v.421q.27-.516.865-.516.341 0 .643.23.31.223.46.723.112-.333.35-.524.238-.198.619-.19.214 0 .428.11.223.112.397.35.175.238.286.62.111.38.111.92zM73.542 44.392l.294.016-.016.135-1.524-.08.024-.531q-.032.04-.104.095-.071.047-.19.095-.111.048-.27.08-.15.031-.365.031-.397 0-.706-.127-.302-.135-.508-.365-.207-.23-.31-.54-.103-.317-.103-.69 0-.469.127-.794.135-.333.349-.54.214-.206.484-.301.27-.104.54-.104.206 0 .397.056.19.048.35.143.158.095.277.23.119.135.175.302l.023-.421q.024-.444.016-.794-.008-.357-.08-.603-.07-.254-.221-.381-.151-.135-.405-.135t-.437.095q-.182.096-.27.358-.055.19 0 .38.064.191.358.286l-.032.167-.937-.294h-.032v-.016q.096-.404.254-.65.167-.254.35-.39.182-.134.373-.182.198-.048.365-.048.476 0 .786.167.317.167.492.46.182.286.238.675.055.381.032.818v.016l-.175 2.897q-.008.246.127.357.143.119.286.127zm-1.826-.62q.278 0 .421-.063.143-.063.206-.119l.088-1.452q-.103.182-.286.262-.183.079-.373.063-.286-.016-.429-.182-.143-.175-.127-.429.008-.183.12-.262.118-.087.27-.087.126 0 .245.063.12.064.183.19-.087-.007-.167.009-.063.016-.127.047-.055.032-.087.12-.04.103.024.166.071.056.166.056.112 0 .223-.088.11-.095.127-.301.016-.215-.16-.365-.174-.16-.452-.16-.293 0-.492.191-.19.183-.285.469-.096.277-.088.61.008.326.12.612.118.278.333.468.222.183.547.183zM77.836 41.503q-.262.016-.413.135-.142.11-.142.341 0 .437-.151.754-.143.318-.373.516-.223.19-.5.278-.278.08-.548.055-.325 0-.659-.135-.325-.142-.587-.452-.262-.318-.429-.818-.159-.508-.143-1.238 0-.492.135-.905.143-.42.405-.722.27-.31.65-.484.39-.175.882-.175.413 0 .683.167.27.167.404.42.143.247.16.532.015.286-.08.524-.095.238-.302.39-.198.15-.484.118-.159-.016-.286-.08-.119-.07-.206-.158-.08-.095-.12-.206-.039-.111-.031-.207.008-.087.04-.174.04-.088.11-.159.072-.08.175-.12.112-.047.254-.03.16.015.262.102.104.08.135.183.04.103.008.214-.024.111-.119.19-.008-.079-.032-.142-.023-.056-.063-.103-.04-.048-.12-.056-.094-.016-.142.048-.048.055-.04.135.016.079.088.15.079.072.23.088.135.008.23-.095.095-.112.135-.278.04-.175.024-.373-.008-.207-.088-.381-.079-.175-.23-.286-.143-.12-.373-.12-.182 0-.38.096-.2.087-.374.302-.175.206-.302.555-.127.342-.174.85-.056.603 0 1.055.063.453.206.754.151.294.365.445.223.15.485.159.127.016.27-.048.15-.063.27-.19.126-.135.206-.326.079-.19.071-.42-.008-.088-.055-.183-.04-.103-.143-.183-.104-.08-.294-.127-.183-.055-.484-.055l-.405.016v-.294l2.5-.04-.008.183z" style="stroke-width:.352778"/><path d="M78.725 38.653q-.206 0-.349-.143t-.143-.349q0-.206.143-.35.143-.142.35-.142.206 0 .34.143.143.143.143.349t-.142.35q-.135.142-.342.142zm-.278 1.397q0-.174-.079-.286-.08-.119-.198-.182-.112-.064-.23-.087-.12-.032-.191-.032l-.175.008v-.175l2.564-.143v.175l-.373.024q-.206.023-.357.127-.143.103-.143.349v2.762q0 .31.095.492.103.175.437.215l.373.031v.175l-2.564-.087v-.302l.254.024q.286 0 .437-.072.15-.079.15-.34z" style="stroke-width:.352778"/><path d="M83.44 41.17q.206.603.15 1.055-.055.452-.269.754-.206.294-.524.445-.31.142-.627.142-.325.024-.667-.079-.341-.111-.635-.397-.285-.286-.492-.77-.206-.492-.262-1.222 0-.492.12-.945.126-.452.372-.793.246-.342.62-.54.38-.207.889-.207.388 0 .65.16.27.158.413.396.143.23.167.508.032.278-.048.516-.08.23-.27.389t-.484.159q-.15 0-.286-.056-.127-.055-.214-.143-.087-.087-.143-.19-.047-.103-.047-.199 0-.087.023-.174.032-.096.088-.175.063-.08.166-.127.104-.055.246-.055.167 0 .27.071.111.071.16.175.047.095.03.206-.015.111-.11.198-.016-.079-.048-.135-.024-.055-.071-.095-.04-.04-.12-.04-.095-.007-.142.056-.04.064-.024.143.024.071.103.135.08.063.23.063.135 0 .223-.11.095-.112.127-.27.04-.167.015-.358-.023-.198-.119-.357-.095-.167-.262-.278-.166-.11-.42-.11-.238 0-.437.102-.19.103-.333.334-.143.23-.222.587-.072.357-.072.873 0 .611.111 1.056.111.436.302.722.19.286.436.413t.508.111q.135 0 .262-.08.135-.079.23-.222.104-.15.151-.349.048-.198.008-.436 0 .008-.008 0v-.032q-.047-.167-.15-.294-.104-.135-.31-.135-.087 0-.183.024l-.055-.159zM89.774 41.479q0 .389-.095.841-.087.453-.294.842-.206.38-.54.643-.333.254-.81.254-.325.023-.666-.104-.333-.135-.611-.436-.278-.302-.46-.778-.175-.484-.175-1.159 0-.405.111-.817.111-.421.333-.755.23-.333.58-.547.357-.215.833-.215.381 0 .707.167.325.159.563.453.246.293.381.706.143.405.143.905zm-1.04-.532q.008-.23-.031-.476-.04-.246-.135-.453-.088-.206-.23-.34-.135-.136-.326-.136-.127 0-.27.095-.135.088-.254.278-.119.19-.206.5-.087.302-.111.73.047-.126.166-.222.12-.103.326-.103.167 0 .27.072.11.071.158.174.048.095.032.214-.016.112-.11.199-.017-.08-.049-.135-.023-.056-.071-.095-.048-.048-.127-.048-.095-.008-.135.103-.04.103-.008.23t.127.239q.103.103.286.103.325 0 .508-.246.182-.254.19-.683zm-.722 2.786q.326 0 .476-.405.151-.404.207-1.087-.135.055-.302.087-.159.032-.357.016-.333-.032-.564-.222-.23-.199-.31-.5.017 1.127.215 1.619.199.492.635.492zM91.767 38.463q-.199.016-.31.135-.103.11-.15.293-.04.183-.033.421.008.238.032.5l.032.46 1.103-.095.024.326-1.095.087.285 3.373q.016.199.072.31.055.119.143.175.095.055.214.063.127.016.278.016l.016.175-2.39.198-.023-.302.38-.016q.239-.031.342-.15.103-.12.08-.358l-.286-3.413-.612.056-.031-.318.61-.047q-.03-.437-.007-.818.032-.389.159-.682.135-.302.397-.485.262-.19.69-.222.357-.032.603.08.254.11.405.285.159.167.238.365.08.199.088.342l-.643.301q-.016-.19-.04-.38-.024-.2-.087-.35-.056-.159-.175-.246-.111-.095-.31-.08zM97.656 42.495q0-.23.151-.35.159-.126.365-.126.12 0 .238.047.12.048.215.151.103.103.158.262.064.159.064.373 0 .254-.095.453-.088.198-.239.333-.142.135-.34.206-.191.072-.406.072-.262 0-.524-.111-.262-.112-.476-.35-.206-.238-.341-.603-.127-.373-.127-.881v-2.77l-.73.016-.024-.334.754-.008v-1.04l.968-.047v1.072l1.04-.008.024.293-1.064.032v2.881q0 .62.159.977.167.349.54.349.198 0 .365-.183.174-.19.174-.523 0-.183-.087-.262-.08-.08-.174-.08-.088 0-.151.056-.056.055-.056.143 0 .071.04.119.047.047.095.08.056.039.135.055-.119.119-.27.119-.15 0-.27-.103-.11-.112-.11-.31z" style="stroke-width:.352778"/><path d="M102.784 44.241q.214 0 .333.095.127.104.175.254.047.151.008.326-.032.182-.135.333-.103.151-.278.246-.175.103-.42.103-.437 0-.652-.246-.206-.246-.277-.65-.072-.405-.04-.921.04-.524.111-1.056.071-.54.135-1.056.064-.523.048-.928-.008-.405-.143-.651-.127-.246-.453-.246-.19 0-.317.08-.127.07-.207.19-.071.119-.103.262-.032.142-.047.285v2.342q0 .246.031.38.032.136.112.207.079.064.198.08.127.016.318.031v.167h-2.39v-.294l.381.016q.246-.016.35-.127.11-.11.11-.357v-5.318q0-.175-.079-.286-.08-.11-.19-.174-.111-.064-.23-.088-.12-.024-.191-.024h-.183v-.182h2.35v.182q-.087 0-.19.024-.104.016-.191.072-.087.047-.15.15-.056.096-.056.255v2.032q.404-.524 1.063-.524.524.008.762.27.246.261.302.69.063.429-.016.976-.08.548-.206 1.12-.12.563-.247 1.11-.119.54-.142.97-.016.428.103.682.127.262.492.262.198 0 .325-.127t.151-.286q.032-.15-.047-.286-.08-.127-.294-.127-.127 0-.19.048-.064.055-.072.119-.008.071.032.119.04.056.127.056.063 0 .095-.04.032-.032.047-.072.016-.047.024-.11.072.063.095.142.024.088 0 .167-.023.087-.095.143-.063.055-.174.055-.215 0-.318-.135-.103-.135-.095-.301.016-.159.143-.294.135-.135.397-.135zM105.197 42.225q-.175 0-.342-.04-.158-.047-.301-.127-.135-.079-.238-.198-.095-.127-.143-.278.016.572.095.984.087.405.23.667.143.254.326.381.19.12.413.12.182 0 .317-.088.143-.095.238-.246.095-.159.143-.357.056-.199.056-.413l.603-.103q0 .389-.12.682-.118.286-.317.477-.19.19-.444.285-.246.088-.524.088-.326.023-.69-.104-.358-.135-.667-.436-.302-.302-.5-.778-.199-.484-.199-1.159 0-.405.12-.817.126-.421.364-.755.246-.333.604-.547.365-.215.84-.215.477 0 .818.223.342.222.532.555.19.326.223.715.031.38-.112.714-.142.326-.468.548-.325.222-.857.222zm-1.016-1.08q.047-.134.166-.23.12-.095.326-.095.167 0 .27.072.11.071.159.174.047.095.031.214-.016.112-.11.199-.017-.08-.048-.135-.032-.056-.08-.095-.04-.048-.119-.048-.095-.008-.127.103-.024.103.024.23t.175.239q.127.103.34.103.247 0 .406-.175.166-.174.246-.428.08-.262.071-.564 0-.302-.087-.556-.08-.262-.246-.436-.167-.175-.413-.175-.127 0-.286.095-.158.088-.301.278-.143.19-.254.5-.111.302-.143.73zM111.285 42.495q0-.23.15-.35.16-.126.366-.126.119 0 .238.047.119.048.214.151.103.103.159.262.063.159.063.373 0 .254-.095.453-.087.198-.238.333-.143.135-.341.206-.19.072-.405.072-.262 0-.524-.111-.262-.112-.476-.35-.207-.238-.342-.603-.127-.373-.127-.881v-2.77l-.73.016-.024-.334.754-.008v-1.04l.969-.047v1.072l1.04-.008.023.293-1.063.032v2.881q0 .62.159.977.166.349.54.349.198 0 .364-.183.175-.19.175-.523 0-.183-.087-.262-.08-.08-.175-.08-.087 0-.15.056-.056.055-.056.143 0 .071.04.119.047.047.095.08.055.039.135.055-.12.119-.27.119-.151 0-.27-.103-.111-.112-.111-.31zM114.682 42.225q-.175 0-.341-.04-.159-.047-.302-.127-.135-.079-.238-.198-.095-.127-.143-.278.016.572.095.984.088.405.23.667.144.254.326.381.19.12.413.12.182 0 .317-.088.143-.095.238-.246.096-.159.143-.357.056-.199.056-.413l.603-.103q0 .389-.119.682-.119.286-.317.477-.19.19-.445.285-.246.088-.524.088-.325.023-.69-.104-.358-.135-.667-.436-.302-.302-.5-.778-.199-.484-.199-1.159 0-.405.12-.817.126-.421.365-.755.246-.333.603-.547.365-.215.841-.215t.818.223q.341.222.532.555.19.326.222.715.032.38-.111.714-.143.326-.469.548-.325.222-.857.222zm-1.016-1.08q.048-.134.167-.23.119-.095.325-.095.167 0 .27.072.111.071.159.174.047.095.032.214-.016.112-.111.199-.016-.08-.048-.135-.032-.056-.08-.095-.04-.048-.119-.048-.095-.008-.127.103-.023.103.024.23.048.127.175.239.127.103.341.103.246 0 .405-.175.167-.174.246-.428.08-.262.071-.564 0-.302-.087-.556-.08-.262-.246-.436-.167-.175-.413-.175-.127 0-.285.095-.16.088-.302.278-.143.19-.254.5-.111.302-.143.73zM118.818 38.153q.396 0 .666.175.27.166.413.428.15.254.167.556.024.294-.103.556-.12.254-.381.428-.254.167-.667.167-.246 0-.381-.135-.127-.143-.143-.31-.016-.166.08-.301.095-.143.293-.143.127 0 .206.095.08.087.056.207-.024-.024-.048-.04-.055-.04-.119-.04-.04 0-.08.024-.047.032-.063.087-.016.048 0 .103.024.056.072.096.055.04.15.04.128 0 .215-.112.087-.119.127-.285.04-.175.024-.374-.008-.206-.088-.373-.079-.174-.238-.285-.15-.12-.38-.12-.247 0-.398.112-.15.11-.238.285-.087.167-.119.381-.032.207-.032.405v2.135q0 .318.175.477.183.158.46.174v.167l-2.222.008v-.302l.325.016q.215-.016.326-.087.119-.08.119-.31V39.09q0-.175-.087-.286-.08-.12-.19-.183-.112-.063-.239-.087-.12-.032-.19-.032l-.167.008v-.166l1.69-.096v.5q.16-.277.413-.436.262-.159.596-.159zM125.985 42.797q.008.277.095.388.096.112.246.12h.207v.246l-2.08.008v-.302l.103.008q.239.008.342-.08.103-.087.103-.357.008-.317.008-.706 0-.39-.016-.746v-.04q0-.286-.024-.556-.016-.277-.071-.492-.056-.214-.159-.341-.103-.135-.27-.135-.159 0-.262.12-.103.11-.166.285-.056.174-.088.389-.032.206-.047.397 0 .016-.008.023v.199l-.064.683v.007q-.016.326.087.453.112.127.334.135l-.008.182-2.032-.071.008-.183h.071q.064 0 .143-.016.087-.023.167-.071.08-.056.135-.135.063-.087.087-.206l.08-.897q.023-.286.015-.548 0-.27-.047-.484-.048-.214-.151-.35-.103-.142-.278-.166-.15-.024-.27.056-.11.071-.19.214-.08.135-.12.317-.039.183-.039.373v2.43q0 .317.071.476.08.15.35.166v.175l-2.072.008v-.302l.341.024q.23-.008.365-.087.135-.08.135-.326V40.05q0-.174-.08-.286-.079-.11-.19-.174-.11-.072-.23-.095-.119-.024-.198-.024l.127-.016-.302.016v-.175l1.683-.08v.421q.27-.516.865-.516.341 0 .643.23.31.223.46.723.112-.333.35-.524.238-.198.619-.19.214 0 .428.11.223.112.397.35.175.238.286.62.111.38.111.92zM127.668 38.653q-.207 0-.35-.143-.142-.143-.142-.349t.143-.35q.142-.142.349-.142.206 0 .341.143.143.143.143.349t-.143.35q-.135.142-.341.142zm-.278 1.397q0-.174-.08-.286-.079-.119-.198-.182-.11-.064-.23-.087-.12-.032-.19-.032l-.175.008v-.175l2.564-.143v.175l-.373.024q-.207.023-.358.127-.142.103-.142.349v2.762q0 .31.095.492.103.175.436.215l.373.031v.175l-2.563-.087v-.302l.254.024q.285 0 .436-.072.151-.079.151-.34z" style="stroke-width:.352778"/><path d="M132.573 43.424q-.016.301.103.444.12.143.334.159l-.008.182-2.024-.071.008-.183h.071q.135.008.294-.079.166-.095.206-.35l.103-2.023v-.08q0-.04.008-.079.024-.286.016-.556-.008-.27-.055-.484-.048-.214-.151-.35-.095-.142-.27-.166-.15-.016-.27.064-.119.071-.198.214-.072.135-.111.318-.04.182-.04.373v1.5q0 .317.103.508.103.182.381.198l.15.008v.175l-2.15-.072v-.222l.278.016q.206-.016.31-.095.11-.088.11-.31v-2.175q0-.198-.071-.317-.064-.12-.175-.183-.103-.063-.23-.08-.127-.015-.238-.007l-.159.008v-.175l1.69-.087v.42q.27-.507.866-.507.246 0 .476.119.23.11.405.365.175.246.262.635.095.389.056.936zM136.93 44.392l.295.016-.016.135-1.524-.08.023-.531q-.031.04-.103.095-.071.047-.19.095-.111.048-.27.08-.15.031-.365.031-.397 0-.707-.127-.301-.135-.508-.365-.206-.23-.31-.54-.102-.317-.102-.69 0-.469.127-.794.135-.333.349-.54.214-.206.484-.301.27-.104.54-.104.206 0 .397.056.19.048.349.143.159.095.278.23.119.135.174.302l.024-.421q.024-.444.016-.794-.008-.357-.08-.603-.07-.254-.222-.381-.15-.135-.404-.135t-.437.095q-.183.096-.27.358-.055.19 0 .38.064.191.357.286l-.031.167-.937-.294h-.032v-.016q.096-.404.254-.65.167-.254.35-.39.182-.134.373-.182.198-.048.365-.048.476 0 .786.167.317.167.492.46.182.286.238.675.055.381.032.818v.016l-.175 2.897q-.008.246.127.357.143.119.286.127zm-1.825-.62q.278 0 .421-.063.143-.063.206-.119l.088-1.452q-.104.182-.286.262-.183.079-.373.063-.286-.016-.429-.182-.143-.175-.127-.429.008-.183.12-.262.118-.087.27-.087.126 0 .245.063.12.064.183.19-.088-.007-.167.009-.063.016-.127.047-.056.032-.087.12-.04.103.024.166.071.056.166.056.111 0 .222-.088.112-.095.127-.301.016-.215-.158-.365-.175-.16-.453-.16-.293 0-.492.191-.19.183-.286.469-.095.277-.087.61.008.326.12.612.118.278.333.468.222.183.547.183z" style="stroke-width:.352778"/><path d="M138.526 43.074q0 .199.048.318t.135.19q.087.064.206.088.12.023.27.031v.167h-2.39v-.294l.374.016q.246-.016.357-.127.111-.11.111-.357v-5.318q0-.175-.08-.286-.078-.11-.19-.174-.11-.064-.23-.088-.119-.024-.198-.024h-.175v-.182h2.35v.182q-.088 0-.19.024-.104.016-.191.072-.088.047-.151.15-.056.096-.056.255z" style="stroke-width:.352778"/></g><rect width="106" height="16" x="22" y="53.672" rx="2" ry="2" style="fill:#d20f39;fill-opacity:1;stroke:none;stroke-width:.202585;stroke-linecap:round;stroke-linejoin:round"/><g aria-label="The following spell has been applied to you: You have to use a Dark Theme from now on" style="font-size:5.29167px;font-family:&quot;Magical Neverland&quot;;-inkscape-font-specification:&quot;Magical Neverland&quot;;text-align:center;text-anchor:middle;fill:#fff;stroke-width:.352777;stroke-linecap:round;stroke-linejoin:round;stroke-opacity:.25098"><path d="M28.314 56.626q-.01-.127-.1-.196-.085-.068-.323-.074l-.545.01.132 3.483q.016.116.058.185.048.069.122.111.074.037.18.048.106.01.243.005l.302-.01.016.227-2.28.09-.006-.117.254-.005q.17-.01.296-.143.133-.132.122-.391V59.8l-.138-3.418-.116.005h-.021q-.01 0-.037.005-.265.006-.387.154-.121.148-.132.349l-.005.196-.111-.006.037-.941 2.534-.059.032 1-.116.006zM31.188 60.59q.142 0 .222.063.085.069.116.17.032.1.006.216-.022.122-.09.223-.07.1-.186.164-.116.068-.28.068-.291 0-.434-.164-.138-.164-.185-.434-.048-.27-.027-.613.027-.35.074-.704.048-.36.09-.704.043-.35.032-.62-.005-.269-.095-.433-.085-.164-.302-.164-.127 0-.211.053-.085.048-.138.127-.048.08-.069.175-.02.095-.031.19v1.561q0 .164.02.254.022.09.075.138.053.042.132.053.085.01.212.02v.112h-1.593v-.196l.254.01q.164-.01.233-.084.074-.074.074-.238v-3.546q0-.116-.053-.19t-.127-.116q-.074-.043-.154-.059-.079-.016-.127-.016h-.121v-.121h1.566v.121q-.058 0-.127.016-.069.01-.127.048-.058.032-.1.1-.038.064-.038.17v1.354q.27-.349.71-.349.349.006.508.18.164.175.2.46.043.286-.01.651-.053.365-.137.746-.08.376-.165.741-.079.36-.095.646-.01.286.069.455.085.175.328.175.132 0 .217-.085.085-.085.1-.19.022-.101-.031-.191-.053-.085-.196-.085-.085 0-.127.032-.042.037-.048.08-.005.047.022.079.026.037.084.037.043 0 .064-.027.02-.02.032-.047.01-.032.015-.074.048.042.064.095.016.058 0 .111-.016.058-.064.095-.042.037-.116.037-.143 0-.212-.09-.068-.09-.063-.2.01-.107.095-.197.09-.09.265-.09zM32.796 59.245q-.116 0-.227-.026-.106-.032-.201-.085-.09-.053-.16-.132-.063-.085-.094-.185.01.38.063.656.058.27.154.445.095.169.217.253.127.08.275.08.121 0 .211-.058.096-.064.16-.164.063-.106.094-.239.037-.132.037-.275l.403-.068q0 .259-.08.455-.08.19-.211.317-.127.127-.297.19-.164.059-.349.059-.217.016-.46-.069-.239-.09-.445-.291-.201-.201-.333-.519-.133-.322-.133-.772 0-.27.08-.545.085-.28.243-.503.164-.222.402-.365.244-.143.561-.143.318 0 .545.148.228.148.355.37.127.218.148.477.021.254-.074.476-.095.217-.312.365t-.572.148zm-.677-.72q.032-.09.111-.153.08-.063.217-.063.111 0 .18.047.074.048.106.117.032.063.021.143-.01.074-.074.132-.01-.053-.032-.09-.021-.037-.053-.063-.026-.032-.08-.032-.063-.005-.084.069-.016.068.016.153.032.085.116.159.085.069.228.069.164 0 .27-.117.111-.116.164-.286.053-.174.048-.375 0-.201-.059-.37-.053-.175-.164-.292-.11-.116-.275-.116-.085 0-.19.063-.106.059-.201.186-.096.127-.17.333-.074.201-.095.487zM36.733 56.737q-.132.01-.206.09-.069.074-.1.196-.027.122-.022.28.006.16.021.334l.022.307.735-.064.016.217-.73.058.19 2.25q.01.132.048.206.037.08.095.116.064.037.143.042.085.011.185.011l.01.116-1.592.133-.016-.201.254-.01q.159-.022.228-.101.068-.08.053-.239l-.19-2.275-.408.037-.022-.212.408-.031q-.021-.291-.005-.545.02-.26.105-.455.09-.202.265-.323.175-.127.46-.148.239-.022.403.052.169.075.27.191.105.111.158.243.053.133.058.228l-.428.201q-.01-.127-.027-.254-.016-.132-.058-.233-.037-.106-.116-.164-.074-.063-.207-.053z" style="stroke-width:.352778"/><path d="M39.834 58.748q0 .26-.063.561-.058.302-.196.56-.138.255-.36.43-.222.169-.54.169-.217.016-.444-.069-.222-.09-.408-.291-.185-.201-.307-.519-.116-.322-.116-.772 0-.27.074-.545.074-.28.222-.503.154-.222.387-.365.238-.143.555-.143.254 0 .471.111.217.106.376.302.164.196.254.47.095.27.095.604zm-.693-.354q.005-.154-.021-.318-.027-.164-.09-.302-.058-.137-.154-.227-.09-.09-.217-.09-.084 0-.18.063-.09.059-.169.186-.08.127-.137.333-.059.201-.074.487.031-.085.11-.148.08-.07.218-.07.11 0 .18.048.074.048.105.117.032.063.022.143-.011.074-.075.132-.01-.053-.031-.09-.016-.037-.048-.063-.032-.032-.085-.032-.063-.005-.09.069-.026.068-.005.153.021.085.085.159.069.069.19.069.217 0 .339-.164.122-.17.127-.455zm-.482 1.857q.217 0 .318-.27.1-.27.138-.725-.09.037-.202.058-.105.021-.238.01-.222-.02-.375-.147-.154-.133-.207-.334.01.752.143 1.08.132.328.423.328z" style="stroke-width:.352778"/><path d="M40.914 59.812q0 .132.031.211.032.08.09.127.059.043.138.059.08.015.18.02v.112H39.76v-.196l.249.01q.164-.01.238-.084.074-.074.074-.238v-3.546q0-.116-.053-.19t-.127-.116q-.074-.043-.153-.059-.08-.016-.133-.016h-.116v-.121h1.566v.121q-.058 0-.127.016-.068.01-.127.048-.058.032-.1.1-.037.064-.037.17zM42.623 59.812q0 .132.032.211.031.08.09.127.058.043.137.059.08.015.18.02v.112H41.47v-.196l.25.01q.163-.01.237-.084.074-.074.074-.238v-3.546q0-.116-.053-.19t-.127-.116q-.074-.043-.153-.059-.08-.016-.132-.016h-.117v-.121h1.567v.121q-.059 0-.127.016-.07.01-.127.048-.059.032-.101.1-.037.064-.037.17zM45.539 58.748q0 .26-.064.561-.058.302-.196.56-.137.255-.36.43-.222.169-.54.169-.216.016-.444-.069-.222-.09-.407-.291-.185-.201-.307-.519-.117-.322-.117-.772 0-.27.075-.545.074-.28.222-.503.153-.222.386-.365.238-.143.556-.143.254 0 .47.111.218.106.376.302.164.196.254.47.096.27.096.604zm-.694-.354q.006-.154-.02-.318-.027-.164-.09-.302-.059-.137-.154-.227-.09-.09-.217-.09-.085 0-.18.063-.09.059-.17.186-.079.127-.137.333-.058.201-.074.487.032-.085.111-.148.08-.07.217-.07.111 0 .18.048.074.048.106.117.032.063.021.143-.01.074-.074.132-.01-.053-.032-.09-.016-.037-.047-.063-.032-.032-.085-.032-.064-.005-.09.069-.027.068-.005.153.02.085.084.159.07.069.19.069.218 0 .34-.164.121-.17.126-.455zm-.481 1.857q.217 0 .317-.27t.138-.725q-.09.037-.201.058-.106.021-.238.01-.222-.02-.376-.147-.153-.133-.206-.334.01.752.143 1.08.132.328.423.328z" style="stroke-width:.352778"/><path d="m48.163 57.018 1.09.016-.005.11h-.233q-.074.006-.143.048-.063.043-.09.17l-.243 1.492q-.021.18.01.29.032.112.101.17.074.053.175.069.106.016.222.016h.106l-.016.222-1.815-.005-.01-.201h.153q.084-.01.132-.053.048-.048.064-.117.015-.074.01-.158-.005-.085-.026-.17l-.196-.862-.286 1.153-.01.064q-.059.233-.011.35.048.116.275.137h.053l-.01.222-1.768-.058-.016-.196h.143q.1 0 .17-.048.074-.047.116-.121.042-.074.058-.164.016-.09.005-.175l-.206-1.45q-.037-.206-.153-.323-.112-.116-.34-.106l-.142.006-.01-.207 1.661.027.005.116-.116.006q-.18.005-.249.121-.069.111-.037.297v.026l.238 1.614.508-2.01q.053-.207-.031-.308-.08-.106-.34-.095h.006l-.1.005-.006-.211 1.418.031.006.112-.228.015q-.116.011-.18.07-.058.057-.08.142-.015.085-.01.18.01.09.027.175l.407 1.767.286-1.82q.016-.138-.069-.196-.08-.058-.233-.069h-.047z" style="stroke-width:.352778"/><path d="M49.925 56.864q-.137 0-.232-.095-.096-.095-.096-.233 0-.137.096-.233.095-.095.232-.095.138 0 .228.095.095.096.095.233 0 .138-.095.233-.09.095-.228.095zm-.185.932q0-.117-.053-.191-.053-.08-.132-.122-.074-.042-.153-.058-.08-.021-.127-.021l-.117.005v-.116l1.71-.095v.116l-.25.016q-.137.016-.237.085-.096.068-.096.232v1.842q0 .206.064.328.069.116.29.143l.25.021v.116l-1.71-.058v-.2l.17.015q.19 0 .29-.048.101-.053.101-.227z" style="stroke-width:.352778"/><path d="M53.196 60.045q-.01.2.068.296.08.095.223.106l-.006.121-1.349-.047.005-.122h.048q.09.005.196-.053.11-.063.137-.233l.07-1.35v-.052q0-.026.004-.053.016-.19.011-.37-.005-.18-.037-.323-.032-.143-.1-.233-.064-.095-.18-.111-.101-.01-.18.042-.08.048-.133.143-.047.09-.074.212-.026.121-.026.248v1q0 .212.069.34.068.121.254.132l.1.005v.116l-1.434-.047v-.148l.185.01q.138-.01.207-.063.074-.059.074-.207v-1.45q0-.132-.048-.211-.042-.08-.116-.122-.07-.042-.154-.053-.084-.01-.159-.005l-.105.005v-.116l1.127-.059v.28q.18-.338.577-.338.164 0 .317.08.154.074.27.243.116.164.175.423.063.26.037.625zM56.217 58.764q-.174.01-.275.09-.095.074-.095.227 0 .291-.1.503-.096.212-.25.344-.148.127-.333.185-.185.053-.365.037-.217 0-.44-.09-.216-.095-.39-.301-.175-.212-.286-.545-.106-.339-.096-.826 0-.328.09-.603.095-.28.27-.482.18-.206.434-.322.26-.117.587-.117.276 0 .455.111.18.111.27.28.096.165.106.355.01.19-.053.35-.063.158-.2.259-.133.1-.324.08-.105-.011-.19-.054-.08-.047-.138-.106-.053-.063-.08-.137-.026-.074-.02-.138.005-.058.026-.116.027-.058.074-.106.048-.053.117-.08.074-.031.17-.02.105.01.174.068.068.053.09.122.026.069.005.143-.016.074-.08.127-.005-.053-.02-.095-.016-.037-.043-.07-.026-.03-.08-.036-.063-.01-.095.032-.031.037-.026.09.01.052.058.1.053.048.154.058.09.006.153-.063.064-.074.09-.185.027-.117.016-.25-.005-.137-.058-.253-.053-.117-.154-.19-.095-.08-.248-.08-.122 0-.254.064-.133.058-.25.2-.116.138-.2.371-.085.228-.117.566-.037.402 0 .704.043.302.138.503.1.196.243.296.149.1.323.106.085.01.18-.032.1-.042.18-.127.085-.09.138-.217.052-.127.047-.28-.005-.058-.037-.122-.026-.069-.095-.122-.069-.053-.196-.084-.122-.037-.323-.037l-.27.01v-.196l1.667-.026-.005.122zM58.535 57.489q0 .169.09.322.09.149.227.291.138.143.292.297.158.148.296.317.137.17.227.37.09.202.09.45 0 .223-.074.397-.074.17-.2.291-.128.122-.302.186-.175.063-.376.063-.148 0-.296-.042-.149-.043-.265-.132-.116-.09-.19-.228-.07-.138-.07-.328 0-.132.038-.228.042-.095.1-.158.064-.064.138-.09.074-.032.148-.032.111 0 .19.063.085.059.085.175 0 .106-.058.159-.053.053-.127.053-.069 0-.116-.053.031-.006.063-.021.026-.011.042-.032.022-.021.022-.058 0-.074-.101-.074-.074 0-.148.063-.069.058-.069.212 0 .153.111.27.117.11.312.116.233 0 .339-.127.106-.132.106-.339 0-.185-.08-.333-.079-.148-.2-.28-.122-.138-.265-.27-.138-.133-.26-.276-.121-.148-.2-.322-.08-.175-.08-.392 0-.254.09-.418.095-.17.228-.265.137-.1.296-.137.164-.042.296-.042.159 0 .28.037.122.037.212.095t.154.137q.063.08.1.16.096.19.106.428l-.65.19-.022-.11q.185-.059.228-.175.047-.117.02-.239-.047-.19-.153-.259-.105-.069-.232-.069-.201 0-.297.111-.095.106-.095.276z" style="stroke-width:.352778"/><path d="M61.504 57.028q.38 0 .582.402.206.403.206 1.138 0 .434-.069.736-.069.296-.19.487-.117.185-.28.27-.16.084-.345.084-.2 0-.36-.08-.158-.084-.248-.253l-.032 1.005q0 .106.042.164.048.058.127.085.085.026.201.032.117.005.25.005v.111h-1.8v-.111h.116q.149 0 .239-.021.095-.016.148-.064.053-.047.069-.127.02-.08.02-.196l.08-3.19q-.021-.122-.106-.17-.084-.047-.243-.047l-.201.01v-.2h1.153v.115l-.005.085q.228-.27.646-.27zm-.34 2.757q.16 0 .25-.1.095-.106.143-.275.047-.175.058-.392.016-.217.016-.445v-.02q0-.207-.016-.408-.01-.201-.058-.355-.043-.158-.122-.254-.08-.1-.207-.1-.095 0-.164.047-.068.043-.116.122-.048.074-.074.175-.027.1-.027.206v.053q0 .021-.005.048l-.032 1.19q0 .095.027.185.026.09.069.164.047.07.11.117.064.042.149.042zM64.001 59.245q-.116 0-.227-.026-.106-.032-.201-.085-.09-.053-.16-.132-.063-.085-.094-.185.01.38.063.656.058.27.154.445.095.169.217.253.127.08.275.08.121 0 .211-.058.096-.064.16-.164.063-.106.094-.239.037-.132.037-.275l.403-.068q0 .259-.08.455-.08.19-.211.317-.127.127-.297.19-.164.059-.349.059-.217.016-.46-.069-.239-.09-.445-.291-.201-.201-.333-.519-.133-.322-.133-.772 0-.27.08-.545.084-.28.243-.503.164-.222.402-.365.244-.143.561-.143.318 0 .545.148.228.148.355.37.127.218.148.477.021.254-.074.476-.095.217-.312.365t-.572.148zm-.677-.72q.032-.09.111-.153.08-.063.217-.063.111 0 .18.047.074.048.106.117.032.063.02.143-.01.074-.073.132-.01-.053-.032-.09-.021-.037-.053-.063-.026-.032-.08-.032-.063-.005-.084.069-.016.068.016.153.032.085.116.159.085.069.228.069.164 0 .27-.117.111-.116.164-.286.053-.174.048-.375 0-.201-.059-.37-.053-.175-.164-.292-.11-.116-.275-.116-.085 0-.19.063-.106.059-.201.186-.096.127-.17.333-.074.201-.095.487z" style="stroke-width:.352778"/><path d="M65.99 59.812q0 .132.033.211.031.08.09.127.058.043.137.059.08.015.18.02v.112h-1.593v-.196l.25.01q.163-.01.237-.084.074-.074.074-.238v-3.546q0-.116-.053-.19t-.127-.116q-.074-.043-.153-.059-.08-.016-.132-.016h-.117v-.121h1.567v.121q-.059 0-.127.016-.07.01-.127.048-.059.032-.101.1-.037.064-.037.17zM67.7 59.812q0 .132.032.211.032.08.09.127.058.043.137.059.08.015.18.02v.112h-1.592v-.196l.248.01q.164-.01.238-.084.074-.074.074-.238v-3.546q0-.116-.052-.19-.053-.074-.127-.116-.075-.043-.154-.059-.08-.016-.132-.016h-.117v-.121h1.567v.121q-.058 0-.127.016-.07.01-.127.048-.058.032-.1.1-.038.064-.038.17zM72.505 60.59q.143 0 .222.063.085.069.117.17.031.1.005.216-.021.122-.09.223-.069.1-.185.164-.117.068-.28.068-.292 0-.435-.164-.137-.164-.185-.434-.047-.27-.026-.613.026-.35.074-.704l.09-.704q.042-.35.032-.62-.006-.269-.096-.433-.084-.164-.301-.164-.127 0-.212.053-.085.048-.138.127-.047.08-.068.175-.022.095-.032.19v1.561q0 .164.021.254t.074.138q.053.042.132.053.085.01.212.02v.112h-1.593v-.196l.254.01q.164-.01.233-.084.074-.074.074-.238v-3.546q0-.116-.053-.19t-.127-.116q-.074-.043-.153-.059-.08-.016-.127-.016h-.122v-.121h1.566v.121q-.058 0-.127.016-.068.01-.127.048-.058.032-.1.1-.037.064-.037.17v1.354q.27-.349.709-.349.35.006.508.18.164.175.201.46.042.286-.01.651-.053.365-.138.746-.08.376-.164.741-.08.36-.095.646-.011.286.068.455.085.175.328.175.133 0 .217-.085.085-.085.1-.19.022-.101-.03-.191-.054-.085-.197-.085-.084 0-.127.032-.042.037-.047.08-.006.047.021.079.026.037.085.037.042 0 .063-.027.021-.02.032-.047.01-.032.016-.074.047.042.063.095.016.058 0 .111-.016.058-.063.095-.043.037-.117.037-.143 0-.211-.09-.07-.09-.064-.2.01-.107.095-.197.09-.09.265-.09z" style="stroke-width:.352778"/><path d="m75.183 60.69.195.01-.01.09-1.016-.052.016-.355q-.022.027-.07.064-.047.031-.126.063-.074.032-.18.053-.1.021-.243.021-.265 0-.471-.084-.202-.09-.34-.244-.137-.153-.205-.36-.07-.211-.07-.46 0-.312.085-.53.09-.221.233-.359.143-.138.323-.201.18-.069.36-.069.137 0 .264.037.127.032.233.095.106.064.186.154.079.09.116.2l.016-.28q.016-.296.01-.529-.005-.238-.053-.402-.047-.17-.148-.254-.1-.09-.27-.09-.169 0-.29.064-.122.063-.18.238-.038.127 0 .254.042.127.238.19l-.022.111-.624-.195h-.021v-.011q.063-.27.17-.434.11-.17.232-.26.122-.09.249-.12.132-.033.243-.033.318 0 .524.112.212.11.328.306.122.19.159.45.037.254.021.545v.01l-.116 1.932q-.006.164.084.238.095.08.19.085zm-1.218-.413q.186 0 .28-.042.096-.042.139-.08l.058-.968q-.07.122-.19.175-.122.053-.25.042-.19-.01-.285-.121-.095-.117-.085-.286.005-.122.08-.175.079-.058.18-.058.084 0 .163.042.08.043.122.127-.058-.005-.111.006-.042.01-.085.031-.037.021-.058.08-.026.068.016.11.048.038.111.038.074 0 .148-.058.074-.064.085-.201.01-.143-.106-.244-.116-.106-.301-.106-.196 0-.329.127-.127.122-.19.313-.064.185-.058.407.005.217.08.407.078.186.221.313.149.121.365.121zM75.971 57.489q0 .169.09.322.09.149.228.291.137.143.29.297.16.148.297.317.137.17.227.37.09.202.09.45 0 .223-.074.397-.074.17-.2.291-.128.122-.302.186-.175.063-.376.063-.148 0-.296-.042-.149-.043-.265-.132-.116-.09-.19-.228-.07-.138-.07-.328 0-.132.038-.228.042-.095.1-.158.064-.064.138-.09.074-.032.148-.032.111 0 .19.063.085.059.085.175 0 .106-.058.159-.053.053-.127.053-.069 0-.116-.053.031-.006.063-.021.027-.011.042-.032.022-.021.022-.058 0-.074-.101-.074-.074 0-.148.063-.069.058-.069.212 0 .153.111.27.117.11.312.116.233 0 .34-.127.105-.132.105-.339 0-.185-.08-.333-.079-.148-.2-.28-.122-.138-.265-.27-.138-.133-.26-.276-.121-.148-.2-.322-.08-.175-.08-.392 0-.254.09-.418.095-.17.228-.265.137-.1.296-.137.164-.042.296-.042.16 0 .28.037.122.037.212.095t.154.137q.063.08.1.16.096.19.106.428l-.65.19-.022-.11q.185-.059.228-.175.047-.117.02-.239-.047-.19-.153-.259-.105-.069-.232-.069-.201 0-.297.111-.095.106-.095.276zM80.702 57.293q.185 0 .344.085.158.084.275.275.122.185.19.487.07.301.07.735 0 .365-.064.667-.064.296-.18.513-.111.212-.275.333-.16.117-.36.117-.302 0-.482-.164h-1.222v-.196l.222.01q.154-.005.228-.052.079-.048.105-.17l-.079-3.19q-.005-.117-.026-.196-.016-.08-.07-.127-.052-.048-.142-.064-.09-.021-.238-.021h-.122v-.111h1.805v.111q-.133 0-.25.005-.116.006-.2.032-.08.027-.127.085-.048.058-.043.164l.027 1.005q.196-.333.614-.333zm-.196 2.804q.132 0 .212-.11.079-.117.121-.292.048-.174.064-.386.016-.217.016-.423v-.022q0-.227-.01-.444-.011-.217-.06-.386-.047-.17-.142-.27-.09-.106-.249-.106-.084 0-.148.048-.063.042-.11.116-.049.069-.075.159-.021.09-.026.185l.037 1.35q.005.015.005.036V59.66q.01.19.1.317.09.121.265.121zM85.475 60.113q.08-.01.153-.047.074-.037.127-.117.059-.08.09-.206.032-.132.032-.323l.413-.127q0 .265-.08.471-.074.201-.195.339-.122.137-.27.211-.143.07-.28.07-.197.015-.398-.054-.195-.074-.365-.243-.164-.17-.285-.44-.117-.27-.149-.645-.01-.106-.01-.201 0-.1.005-.196l-.905-.111q-.434-.053-.72-.09 0 .402.048.667.053.264.132.418.08.153.18.217.106.063.217.063.09-.005.164-.042.08-.042.138-.122.058-.084.09-.222.037-.138.037-.344l.434-.132q0 .28-.085.497-.08.212-.206.36-.127.143-.28.217-.154.074-.297.074-.212.016-.423-.058-.212-.08-.387-.254-.174-.18-.301-.466-.122-.286-.159-.682-.032-.329.016-.646.053-.318.19-.56.138-.25.366-.398.227-.153.56-.153.244 0 .408.095.164.095.27.243.11.143.17.323.063.18.09.35.026.169.03.312.006.137.006.2l.244.022q.037-.217.116-.402.08-.19.206-.334.133-.143.313-.222.18-.085.412-.085.19 0 .334.064.143.063.243.17.1.1.164.237.064.133.1.27.09.328.075.741l-.201-.016q-.133-.01-.307-.032-.175-.02-.387-.042-.206-.026-.439-.053.006.027.006.069 0 .402.042.667.048.26.122.418.079.153.174.217.1.063.212.063zm-2.355-3.111q-.238.021-.38.338-.144.313-.117.858l.735.084q.048-.121.09-.317.048-.196.048-.471 0-.222-.111-.365-.106-.143-.265-.127zm2.26.492q-.201.021-.334.275-.132.249-.132.688l.746.085q.032-.111.053-.254.026-.148.026-.328 0-.207-.105-.34-.1-.137-.254-.126zM88.724 60.045q-.01.2.069.296.08.095.222.106l-.005.121-1.35-.047.006-.122h.047q.09.005.196-.053.111-.063.138-.233l.068-1.35v-.052q0-.026.006-.053.016-.19.01-.37-.005-.18-.037-.323-.032-.143-.1-.233-.064-.095-.18-.111-.1-.01-.18.042-.08.048-.132.143-.048.09-.075.212-.026.121-.026.248v1q0 .212.069.34.069.121.254.132l.1.005v.116l-1.434-.047v-.148l.186.01q.137-.01.206-.063.074-.059.074-.207v-1.45q0-.132-.048-.211-.042-.08-.116-.122-.069-.042-.154-.053-.084-.01-.158-.005l-.106.005v-.116l1.127-.059v.28q.18-.338.577-.338.164 0 .317.08.154.074.27.243.117.164.175.423.063.26.037.625zM93.217 60.69l.195.01-.01.09-1.016-.052.016-.355q-.022.027-.07.064-.047.031-.126.063-.074.032-.18.053-.1.021-.243.021-.265 0-.471-.084-.202-.09-.34-.244-.137-.153-.205-.36-.07-.211-.07-.46 0-.312.085-.53.09-.221.233-.359.143-.138.323-.201.18-.069.36-.069.137 0 .264.037.127.032.233.095.106.064.185.154.08.09.117.2l.016-.28q.016-.296.01-.529-.005-.238-.053-.402-.047-.17-.148-.254-.1-.09-.27-.09-.169 0-.29.064-.122.063-.18.238-.038.127 0 .254.042.127.238.19l-.022.111-.624-.195h-.021v-.011q.063-.27.17-.434.11-.17.232-.26.122-.09.249-.12.132-.033.243-.033.318 0 .524.112.212.11.328.306.122.19.159.45.037.254.021.545v.01l-.116 1.932q-.006.164.084.238.095.08.19.085zm-1.218-.413q.186 0 .28-.042.096-.042.139-.08l.058-.968q-.07.122-.19.175-.122.053-.25.042-.19-.01-.285-.121-.095-.117-.085-.286.005-.122.08-.175.079-.058.18-.058.084 0 .163.042.08.043.122.127-.058-.005-.111.006-.042.01-.085.031-.037.021-.058.08-.026.068.016.11.048.038.111.038.074 0 .148-.058.074-.064.085-.201.01-.143-.106-.244-.116-.106-.301-.106-.196 0-.329.127-.127.122-.19.313-.064.185-.058.407.005.217.08.407.078.186.221.313.149.121.365.121z" style="stroke-width:.352778"/><path d="M95.021 57.028q.381 0 .582.402.206.403.206 1.138 0 .434-.068.736-.07.296-.19.487-.117.185-.281.27-.159.084-.344.084-.201 0-.36-.08-.159-.084-.249-.253l-.032 1.005q0 .106.043.164.047.058.127.085.084.026.2.032.117.005.25.005v.111h-1.8v-.111h.117q.148 0 .238-.021.095-.016.148-.064.053-.047.069-.127.021-.08.021-.196l.08-3.19q-.022-.122-.106-.17-.085-.047-.244-.047l-.2.01v-.2h1.153v.115l-.006.085q.228-.27.646-.27zm-.339 2.757q.16 0 .25-.1.094-.106.142-.275.048-.175.058-.392.016-.217.016-.445v-.02q0-.207-.016-.408-.01-.201-.058-.355-.042-.158-.122-.254-.08-.1-.206-.1-.095 0-.164.047-.069.043-.117.122-.047.074-.074.175-.026.1-.026.206v.053q0 .021-.005.048l-.032 1.19q0 .095.026.185.027.09.07.164.047.07.11.117.064.042.148.042z" style="stroke-width:.352778"/><path d="M97.556 57.028q.38 0 .582.402.206.403.206 1.138 0 .434-.069.736-.068.296-.19.487-.117.185-.28.27-.16.084-.345.084-.2 0-.36-.08-.158-.084-.248-.253l-.032 1.005q0 .106.043.164.047.058.127.085.084.026.2.032.117.005.25.005v.111h-1.8v-.111h.117q.148 0 .238-.021.095-.016.148-.064.053-.047.069-.127.02-.08.02-.196l.08-3.19q-.021-.122-.106-.17-.084-.047-.243-.047l-.201.01v-.2h1.153v.115l-.005.085q.228-.27.646-.27zm-.339 2.757q.159 0 .249-.1.095-.106.143-.275.047-.175.058-.392.016-.217.016-.445v-.02q0-.207-.016-.408-.01-.201-.058-.355-.043-.158-.122-.254-.08-.1-.206-.1-.096 0-.164.047-.07.043-.117.122-.048.074-.074.175-.026.1-.026.206v.053q0 .021-.006.048l-.031 1.19q0 .095.026.185t.069.164q.047.07.11.117.064.042.15.042z" style="stroke-width:.352778"/><path d="M99.477 59.812q0 .132.031.211.032.08.09.127.059.043.138.059.08.015.18.02v.112h-1.593v-.196l.249.01q.164-.01.238-.084.074-.074.074-.238v-3.546q0-.116-.053-.19t-.127-.116q-.074-.043-.153-.059-.08-.016-.133-.016h-.116v-.121h1.566v.121q-.058 0-.127.016-.069.01-.127.048-.058.032-.1.1-.037.064-.037.17z" style="stroke-width:.352778"/><path d="M100.651 56.864q-.137 0-.232-.095-.096-.095-.096-.233 0-.137.096-.233.095-.095.232-.095.138 0 .228.095.095.096.095.233 0 .138-.095.233-.09.095-.228.095zm-.185.932q0-.117-.053-.191-.053-.08-.132-.122-.074-.042-.154-.058-.079-.021-.126-.021l-.117.005v-.116l1.71-.095v.116l-.25.016q-.137.016-.238.085-.095.068-.095.232v1.842q0 .206.064.328.069.116.29.143l.25.021v.116l-1.71-.058v-.2l.17.015q.19 0 .29-.048.101-.053.101-.227z" style="stroke-width:.352778"/><path d="M102.869 59.245q-.117 0-.228-.026-.106-.032-.201-.085-.09-.053-.159-.132-.063-.085-.095-.185.01.38.063.656.059.27.154.445.095.169.217.253.127.08.275.08.122 0 .212-.058.095-.064.158-.164.064-.106.096-.239.037-.132.037-.275l.402-.068q0 .259-.08.455-.079.19-.211.317-.127.127-.296.19-.164.059-.35.059-.217.016-.46-.069-.238-.09-.445-.291-.2-.201-.333-.519-.132-.322-.132-.772 0-.27.08-.545.084-.28.243-.503.164-.222.402-.365.243-.143.56-.143.318 0 .546.148.227.148.354.37.127.218.148.477.022.254-.074.476-.095.217-.312.365t-.571.148zm-.678-.72q.032-.09.111-.153.08-.063.217-.063.111 0 .18.047.074.048.106.117.032.063.021.143-.01.074-.074.132-.01-.053-.032-.09-.02-.037-.053-.063-.026-.032-.079-.032-.063-.005-.085.069-.016.068.016.153.032.085.117.159.084.069.227.069.164 0 .27-.117.111-.116.164-.286.053-.174.048-.375 0-.201-.058-.37-.053-.175-.165-.292-.11-.116-.275-.116-.084 0-.19.063-.106.059-.201.186-.096.127-.17.333-.074.201-.095.487zM106.816 60.838l-1.148.069q-.074.122-.185.201-.111.08-.254.09-.233.01-.429-.08-.196-.084-.339-.259-.143-.169-.232-.418-.09-.248-.106-.55-.005-.063 0-.116-.005-.328.074-.561.084-.238.211-.387.127-.153.28-.227.154-.08.287-.085.27-.016.45.09l-.18-1.646-.011-.084q-.021-.18-.164-.238-.138-.064-.355-.064l-.143.005-.005-.11 1.8-.064.01.116-.238.006h.117q-.26.015-.344.084-.085.069-.08.244l.36 3.323v-.005l.005.068q.01.085.032.17.021.084.063.148.043.063.117.095.08.032.196.016l.206-.032zm-1.47.006q.073-.006.12-.059.048-.053.08-.137.032-.08.042-.175.016-.095.016-.185l-.127-1.185q-.042-.122-.127-.212-.084-.09-.206-.08-.116.006-.19.096-.075.09-.117.238-.037.143-.053.328-.01.18 0 .37v.064q.042.497.207.72.164.227.354.217zM109.906 59.425q0-.153.101-.232.106-.085.243-.085.08 0 .16.032.079.031.142.1.069.069.106.175.042.106.042.249 0 .169-.063.301-.059.132-.16.222-.094.09-.227.138-.127.048-.27.048-.174 0-.349-.074-.174-.075-.317-.233-.138-.16-.228-.403-.084-.248-.084-.587V57.23l-.487.01-.016-.221.503-.006v-.693l.645-.032v.715l.693-.006.016.196-.709.021v1.921q0 .413.106.651.111.233.36.233.132 0 .243-.122.117-.127.117-.349 0-.122-.059-.175-.052-.052-.116-.052-.058 0-.1.037-.038.037-.038.095 0 .047.027.08.032.03.063.052.037.027.09.037-.079.08-.18.08-.1 0-.18-.07-.073-.073-.073-.206zM113.335 58.748q0 .26-.063.561-.058.302-.196.56-.137.255-.36.43-.222.169-.54.169-.216.016-.444-.069-.222-.09-.407-.291-.186-.201-.307-.519-.117-.322-.117-.772 0-.27.074-.545.075-.28.223-.503.153-.222.386-.365.238-.143.556-.143.254 0 .47.111.218.106.376.302.164.196.254.47.095.27.095.604zm-.693-.354q.005-.154-.02-.318-.027-.164-.09-.302-.06-.137-.154-.227-.09-.09-.217-.09-.085 0-.18.063-.09.059-.17.186-.079.127-.137.333-.058.201-.074.487.032-.085.11-.148.08-.07.218-.07.11 0 .18.048.074.048.106.117.031.063.02.143-.01.074-.073.132-.01-.053-.032-.09-.016-.037-.048-.063-.032-.032-.084-.032-.064-.005-.09.069-.027.068-.005.153.02.085.084.159.07.069.19.069.218 0 .34-.164.121-.17.126-.455zm-.481 1.857q.217 0 .317-.27t.138-.725q-.09.037-.201.058-.106.021-.238.01-.223-.02-.376-.147-.154-.133-.206-.334.01.752.142 1.08.133.328.424.328zM117.024 57.457l1.137.016-.005.11h-.18q-.084 0-.18.049-.095.042-.137.19l-.608 2.223q-.101.396-.228.724-.122.334-.286.567-.159.238-.365.37t-.47.132q-.144 0-.27-.058-.122-.058-.218-.153-.09-.09-.143-.212-.052-.116-.052-.243 0-.149.042-.26.042-.105.111-.18.074-.068.159-.1.09-.032.174-.032.154 0 .276.09.121.09.121.244 0 .132-.08.2-.073.075-.169.075-.1 0-.18-.08.053-.01.09-.031.038-.022.064-.053.027-.032.027-.085 0-.048-.037-.074-.032-.027-.08-.027-.08 0-.164.07-.08.068-.08.221 0 .17.117.276.117.105.28.105.143 0 .26-.052.122-.053.217-.149.1-.095.18-.222.084-.122.148-.264l-.646-3.302q-.053-.18-.169-.276-.111-.095-.317-.084l-.165.005-.01-.212 1.667.027v.116l-.111.006h.005q-.35.015-.286.36.005.01.005.031l.402 2.043.487-1.741q.016-.111-.037-.175-.053-.063-.19-.069h-.112zM120.426 58.748q0 .26-.063.561-.058.302-.196.56-.138.255-.36.43-.222.169-.54.169-.217.016-.444-.069-.222-.09-.408-.291-.185-.201-.306-.519-.117-.322-.117-.772 0-.27.074-.545.074-.28.223-.503.153-.222.386-.365.238-.143.555-.143.254 0 .471.111.217.106.376.302.164.196.254.47.095.27.095.604zm-.693-.354q.005-.154-.021-.318-.027-.164-.09-.302-.058-.137-.154-.227-.09-.09-.216-.09-.085 0-.18.063-.09.059-.17.186-.08.127-.137.333-.059.201-.074.487.031-.085.11-.148.08-.07.218-.07.11 0 .18.048.074.048.105.117.032.063.022.143-.011.074-.074.132-.011-.053-.032-.09-.016-.037-.048-.063-.032-.032-.085-.032-.063-.005-.09.069-.026.068-.005.153.022.085.085.159.069.069.19.069.218 0 .34-.164.121-.17.126-.455zm-.481 1.857q.217 0 .317-.27t.138-.725q-.09.037-.201.058-.106.021-.239.01-.222-.02-.375-.147-.154-.133-.207-.334.011.752.143 1.08.133.328.424.328zM122.077 57.372l1.286.043v.153l-.084-.005q-.186 0-.292.063-.105.058-.116.233l-.106 1.831q-.01.185.043.291.052.1.132.148.08.048.164.058.085.006.132.006l.08-.006v.111l-1.133.064v-.116h.005l.005-.127q-.1.142-.249.227-.148.08-.333.08-.164 0-.317-.08-.154-.08-.27-.243-.117-.17-.18-.429-.058-.265-.037-.624l.058-.948q-.01-.153-.09-.227-.074-.08-.201-.09l.005-.116 1.26.047-.006.117h-.053q-.079-.006-.148.052-.063.053-.09.191l-.074 1.021q-.016.19-.016.37.005.175.037.318.032.143.1.238.075.09.191.106.1.01.18-.042.08-.058.138-.154.058-.1.09-.227.037-.127.042-.26l.085-1.481v-.19q.005-.085-.01-.149-.017-.063-.064-.095-.043-.037-.133-.042l-.031-.006zM123.813 57.859q.138 0 .233.1.095.096.095.233 0 .138-.095.233-.095.096-.233.096t-.233-.096q-.095-.095-.095-.233 0-.137.095-.232.095-.101.233-.101zm0 2.085q.138 0 .233.095t.095.233q0 .138-.095.233t-.233.095q-.138 0-.233-.095t-.095-.233q0-.138.095-.233t.233-.095zM28.148 63.003h-.143q-.16 0-.249.068-.085.064-.143.217l-.01.032-.011.016-.783 2.376-.027.72q.021.211.16.285.137.07.412.085l.301.005-.005.228-2.28-.069v-.111h.259q.084.005.164-.021.08-.032.143-.096.063-.063.1-.158.042-.096.048-.228 0-.053.005-.069l.027-.603-.424-1.958q-.042-.153-.137-.254-.09-.106-.28-.106h-.16v-.211l1.71.095v.116h-.111q-.186 0-.286.085-.095.085-.064.265.006.005.006.026l.27 1.376.608-1.8q.042-.142 0-.227-.042-.084-.18-.084h-.143v-.112h1.223z" style="stroke-width:.352778"/><path d="M30.116 65.363q0 .259-.063.56-.059.302-.196.561-.138.254-.36.43-.222.168-.54.168-.217.016-.444-.068-.223-.09-.408-.291-.185-.201-.307-.519-.116-.323-.116-.773 0-.27.074-.545.074-.28.222-.502.154-.223.387-.365.238-.143.555-.143.254 0 .471.11.217.107.376.302.164.196.254.471.095.27.095.604zm-.693-.355q.005-.153-.021-.317-.027-.164-.09-.302-.059-.138-.154-.228-.09-.09-.217-.09-.084 0-.18.064-.09.058-.169.185-.08.127-.138.334-.058.2-.074.486.032-.084.112-.148.079-.069.216-.069.112 0 .18.048.074.048.106.116.032.064.021.143-.01.074-.074.133-.01-.053-.031-.09-.016-.037-.048-.064-.032-.032-.085-.032-.063-.005-.09.07-.026.068-.005.153.021.084.085.158.068.07.19.07.217 0 .339-.165.122-.17.127-.455zm-.482 1.857q.217 0 .318-.27.1-.27.137-.724-.09.037-.2.058-.107.021-.239.01-.222-.02-.376-.148-.153-.132-.206-.333.01.751.143 1.08.132.327.423.327zM31.767 63.987l1.286.042v.154l-.085-.006q-.185 0-.29.064-.107.058-.117.233l-.106 1.83q-.01.186.042.292.053.1.133.148.079.047.164.058.084.005.132.005l.08-.005v.111l-1.133.064v-.117h.005l.005-.127q-.1.143-.248.228-.148.08-.334.08-.164 0-.317-.08-.154-.08-.27-.244-.116-.169-.18-.428-.058-.265-.037-.625l.058-.947q-.01-.153-.09-.228-.074-.079-.2-.09l.005-.116 1.259.048-.005.116h-.053q-.08-.005-.148.053-.064.053-.09.19l-.074 1.022q-.016.19-.016.37.005.175.037.318.031.143.1.238.074.09.19.106.101.01.18-.043.08-.058.138-.153.058-.1.09-.228.037-.127.043-.259l.084-1.482v-.19q.005-.085-.01-.148-.016-.064-.064-.095-.042-.038-.132-.043l-.032-.005zM37.419 67.204q.142 0 .222.064.084.068.116.169.032.1.006.217-.022.122-.09.222-.07.1-.186.164-.116.069-.28.069-.291 0-.434-.164-.138-.164-.185-.434-.048-.27-.027-.614.027-.349.074-.704.048-.36.09-.703.043-.35.032-.62-.005-.27-.095-.433-.085-.164-.302-.164-.127 0-.211.052-.085.048-.138.127-.048.08-.069.175-.021.095-.032.19v1.562q0 .164.022.254.02.09.074.137.053.043.132.053.085.01.212.021v.111h-1.593v-.195l.254.01q.164-.01.233-.084.074-.075.074-.239v-3.545q0-.116-.053-.19-.053-.075-.127-.117-.074-.042-.154-.058-.079-.016-.127-.016h-.121v-.122h1.566v.122q-.058 0-.127.016-.069.01-.127.048-.058.031-.1.1-.038.064-.038.17v1.354q.27-.35.71-.35.349.006.508.18.164.175.2.461.043.286-.01.651-.053.365-.138.746-.079.376-.164.74-.079.36-.095.647-.01.285.069.455.085.174.328.174.132 0 .217-.084.085-.085.1-.19.022-.101-.031-.191-.053-.085-.196-.085-.085 0-.127.032-.042.037-.048.079-.005.048.022.08.026.036.084.036.043 0 .064-.026.02-.021.031-.048.011-.031.016-.074.048.043.064.096.016.058 0 .11-.016.059-.064.096-.042.037-.116.037-.143 0-.212-.09t-.063-.201q.01-.106.095-.196.09-.09.265-.09z" style="stroke-width:.352778"/><path d="m40.096 67.305.196.01-.01.09-1.017-.053.016-.354q-.02.026-.069.063-.047.032-.127.064-.074.032-.18.053-.1.02-.243.02-.264 0-.47-.084-.202-.09-.34-.243-.137-.154-.206-.36-.069-.212-.069-.46 0-.313.085-.53.09-.222.233-.36.143-.137.323-.2.18-.07.36-.07.137 0 .264.038.127.031.233.095.106.063.185.153.08.09.116.202l.016-.281q.016-.296.01-.53-.004-.237-.052-.401-.048-.17-.148-.254-.1-.09-.27-.09t-.291.063q-.122.064-.18.238-.037.127 0 .254.042.127.238.19l-.021.112-.624-.196h-.022v-.01q.064-.27.17-.434.11-.17.233-.26.121-.09.248-.121.133-.032.244-.032.317 0 .524.111.211.111.328.307.121.19.158.45.037.254.022.545v.01l-.117 1.932q-.005.164.085.238.095.08.19.085zm-1.217-.413q.185 0 .28-.042.096-.043.138-.08l.058-.968q-.068.122-.19.174-.122.053-.249.043-.19-.01-.286-.122-.095-.116-.084-.286.005-.121.08-.174.078-.058.179-.058.085 0 .164.042.08.042.122.127-.058-.005-.111.005-.043.01-.085.032-.037.021-.058.08-.027.068.016.11.047.037.11.037.075 0 .149-.058.074-.063.085-.2.01-.144-.106-.244-.117-.106-.302-.106-.196 0-.328.127-.127.122-.19.312-.064.185-.059.408.006.217.08.407.079.185.222.312.148.122.365.122zM42.8 63.294q-.084.005-.174.047-.085.043-.117.18l-.55 2.381.042-.084q-.063.206-.074.333-.005.127.032.201.042.074.127.106.084.026.211.037l.122.005-.016.223-1.91-.106-.01-.196.195.005q.175-.005.244-.095.068-.095.037-.26-.006-.02-.006-.042l-.37-1.873q-.042-.18-.159-.275-.116-.095-.328-.085h.005l-.164.006-.01-.212 1.661.026.006.117-.117.005h.006q-.35.016-.28.36v.021q.004.005.004.01l.392 1.996.593-2.556q.026-.127-.027-.201-.053-.074-.206-.085h-.106l.005-.116 1.143.016-.01.11z" style="stroke-width:.352778"/><path d="M44.012 65.86q-.116 0-.228-.026-.105-.032-.2-.085-.09-.053-.16-.132-.063-.085-.095-.186.01.381.064.657.058.27.153.444.096.17.217.254.127.08.275.08.122 0 .212-.059.095-.063.159-.164.063-.106.095-.238.037-.132.037-.275l.402-.069q0 .26-.08.455-.078.19-.21.318-.128.127-.297.19-.164.058-.35.058-.216.016-.46-.068-.238-.09-.444-.291-.201-.201-.334-.519-.132-.323-.132-.773 0-.27.08-.545.084-.28.243-.502.164-.223.402-.365.244-.143.561-.143.318 0 .545.148.228.148.355.37.127.217.148.477.02.254-.074.476-.096.217-.313.365-.216.148-.571.148zm-.677-.72q.031-.09.11-.153.08-.064.218-.064.11 0 .18.048.074.048.105.116.032.064.022.143-.01.074-.074.133-.011-.053-.032-.09t-.053-.064q-.027-.032-.08-.032-.063-.005-.084.07-.016.068.016.153.031.084.116.158.085.07.228.07.164 0 .27-.117.11-.117.164-.286.053-.175.047-.376 0-.2-.058-.37-.053-.175-.164-.291-.111-.117-.275-.117-.085 0-.19.064-.107.058-.202.185-.095.127-.17.334-.073.2-.094.486zM48.07 66.04q0-.153.101-.233.106-.085.244-.085.079 0 .158.032.08.032.143.1.07.07.106.175.042.106.042.25 0 .168-.063.3-.058.133-.159.223-.095.09-.227.138-.127.047-.27.047-.175 0-.35-.074-.174-.074-.317-.233-.138-.158-.228-.402-.084-.249-.084-.587v-1.847l-.487.01-.016-.222.503-.005v-.693l.645-.032v.714l.694-.005.015.196-.709.021v1.92q0 .414.106.652.111.233.36.233.132 0 .243-.122.117-.127.117-.35 0-.121-.058-.174-.053-.053-.117-.053-.058 0-.1.037-.037.037-.037.095 0 .048.026.08.032.032.064.053.037.026.09.037-.08.08-.18.08-.1 0-.18-.07-.074-.074-.074-.206zM51.5 65.363q0 .259-.064.56-.058.302-.196.561-.137.254-.36.43-.222.168-.54.168-.216.016-.444-.068-.222-.09-.407-.291-.185-.201-.307-.519-.116-.323-.116-.773 0-.27.074-.545.074-.28.222-.502.153-.223.386-.365.238-.143.556-.143.254 0 .47.11.218.107.376.302.164.196.254.471.096.27.096.604zm-.694-.355q.006-.153-.02-.317-.027-.164-.09-.302-.059-.138-.154-.228-.09-.09-.217-.09-.085 0-.18.064-.09.058-.17.185-.079.127-.137.334-.058.2-.074.486.032-.084.111-.148.08-.069.217-.069.111 0 .18.048.074.048.106.116.032.064.021.143-.01.074-.074.133-.01-.053-.032-.09-.016-.037-.047-.064-.032-.032-.085-.032-.064-.005-.09.07-.027.068-.005.153.02.084.084.158.07.07.19.07.218 0 .34-.165.121-.17.126-.455zm-.481 1.857q.217 0 .317-.27.101-.27.138-.724-.09.037-.201.058-.106.021-.238.01-.222-.02-.376-.148-.153-.132-.206-.333.01.751.143 1.08.132.327.423.327zM54.685 63.987l1.286.042v.154l-.085-.006q-.185 0-.29.064-.106.058-.117.233l-.106 1.83q-.01.186.043.292.052.1.132.148.08.047.164.058.085.005.132.005l.08-.005v.111l-1.133.064v-.117h.005l.006-.127q-.1.143-.249.228-.148.08-.333.08-.164 0-.318-.08-.153-.08-.27-.244-.116-.169-.18-.428-.058-.265-.037-.625l.058-.947q-.01-.153-.09-.228-.074-.079-.2-.09l.005-.116 1.26.048-.006.116h-.053q-.08-.005-.148.053-.064.053-.09.19l-.074 1.022q-.016.19-.016.37.005.175.037.318.032.143.1.238.075.09.19.106.101.01.18-.043.08-.058.138-.153.059-.1.09-.228.037-.127.043-.259l.084-1.482v-.19q.006-.085-.01-.148-.016-.064-.064-.095-.042-.038-.132-.043l-.032-.005zM56.627 64.103q0 .17.09.323.09.148.228.291.137.143.29.296.16.149.297.318.138.17.228.37.09.201.09.45 0 .222-.074.397-.074.17-.201.291-.127.122-.302.185-.175.064-.376.064-.148 0-.296-.043-.148-.042-.265-.132-.116-.09-.19-.227-.069-.138-.069-.329 0-.132.037-.227.042-.095.1-.159.064-.063.138-.09.074-.032.148-.032.111 0 .19.064.086.058.086.175 0 .105-.059.158-.053.053-.127.053-.068 0-.116-.053.032-.005.063-.02.027-.011.043-.033.02-.02.02-.058 0-.074-.1-.074-.074 0-.148.064-.069.058-.069.211 0 .154.111.27.117.111.313.117.233 0 .338-.127.106-.133.106-.34 0-.184-.08-.332-.079-.149-.2-.28-.122-.138-.265-.27-.137-.133-.26-.276-.12-.148-.2-.323-.08-.174-.08-.391 0-.254.09-.418.096-.17.228-.265.138-.1.296-.138.164-.042.297-.042.158 0 .28.037.122.037.212.095.09.059.153.138.064.08.1.159.096.19.107.428l-.651.19-.021-.11q.185-.058.227-.175.048-.116.021-.238-.047-.19-.153-.26-.106-.068-.233-.068-.201 0-.296.111-.096.106-.096.275zM59.453 65.86q-.116 0-.227-.026-.106-.032-.202-.085-.09-.053-.158-.132-.064-.085-.096-.186.011.381.064.657.058.27.153.444.096.17.217.254.127.08.276.08.121 0 .211-.059.095-.063.159-.164.063-.106.095-.238.037-.132.037-.275l.402-.069q0 .26-.079.455-.08.19-.212.318-.127.127-.296.19-.164.058-.35.058-.216.016-.46-.068-.238-.09-.444-.291-.201-.201-.333-.519-.133-.323-.133-.773 0-.27.08-.545.084-.28.243-.502.164-.223.402-.365.244-.143.561-.143.318 0 .545.148.228.148.355.37.127.217.148.477.021.254-.074.476-.095.217-.312.365t-.572.148zm-.677-.72q.031-.09.11-.153.08-.064.218-.064.11 0 .18.048.074.048.106.116.031.064.02.143-.01.074-.073.133-.01-.053-.032-.09-.021-.037-.053-.064-.026-.032-.08-.032-.063-.005-.084.07-.016.068.016.153.032.084.116.158.085.07.228.07.164 0 .27-.117.11-.117.164-.286.053-.175.047-.376 0-.2-.058-.37-.053-.175-.164-.291-.111-.117-.275-.117-.085 0-.19.064-.106.058-.202.185-.095.127-.169.334-.074.2-.095.486zM64.623 67.305l.196.01-.01.09-1.017-.053.016-.354q-.021.026-.069.063-.047.032-.127.064-.074.032-.18.053-.1.02-.243.02-.265 0-.471-.084-.201-.09-.339-.243-.137-.154-.206-.36-.069-.212-.069-.46 0-.313.085-.53.09-.222.233-.36.143-.137.323-.2.18-.07.36-.07.137 0 .264.038.127.031.233.095.106.063.185.153.08.09.116.202l.016-.281q.016-.296.01-.53-.004-.237-.052-.401-.048-.17-.148-.254-.1-.09-.27-.09t-.291.063q-.122.064-.18.238-.037.127 0 .254.042.127.238.19l-.021.112-.625-.196h-.02v-.01q.063-.27.169-.434.11-.17.232-.26.122-.09.25-.121.131-.032.243-.032.317 0 .523.111.212.111.329.307.121.19.158.45.037.254.021.545v.01l-.116 1.932q-.005.164.085.238.095.08.19.085zm-1.217-.413q.185 0 .28-.042.096-.043.138-.08l.058-.968q-.069.122-.19.174-.122.053-.249.043-.19-.01-.286-.122-.095-.116-.084-.286.005-.121.079-.174.08-.058.18-.058.085 0 .164.042.08.042.122.127-.059-.005-.112.005-.042.01-.084.032-.037.021-.058.08-.027.068.015.11.048.037.112.037.074 0 .148-.058.074-.063.084-.2.011-.144-.105-.244-.117-.106-.302-.106-.196 0-.328.127-.127.122-.19.312-.064.185-.059.408.005.217.08.407.079.185.222.312.148.122.365.122zM67.697 63.569q.334 0 .593.1.26.096.45.26.19.158.317.37.133.206.207.434.074.222.095.45.027.222.005.412-.01.43-.158.8-.149.37-.392.65-.238.276-.545.434-.302.16-.62.16-.317 0-.512-.154-.19-.149-.265-.35-.074-.2-.037-.407.042-.212.19-.323l.09-2.201v-.037q.006-.09-.01-.175-.016-.09-.064-.159-.047-.068-.137-.105-.085-.043-.228-.043h-.148v-.116zm-.1 3.863q.265 0 .466-.175.2-.17.333-.44.138-.274.206-.618.07-.344.07-.688 0-.291-.06-.577-.052-.291-.168-.53-.117-.243-.297-.412-.174-.175-.418-.227l-.11 2.64q.068.058.1.19.037.154-.027.27-.058.117-.19.149-.085.02-.148-.022-.059-.042-.085-.105-.027-.07-.016-.149.016-.079.074-.132.01.048.032.085.016.026.042.053.032.026.08.032.058.005.074-.043.02-.053 0-.106-.022-.058-.085-.095-.064-.037-.164-.005-.159.047-.222.196-.059.148-.022.307.038.158.17.28.132.122.365.122zM72.195 67.305l.196.01-.01.09-1.016-.053.015-.354q-.02.026-.068.063-.048.032-.127.064-.074.032-.18.053-.1.02-.244.02-.264 0-.47-.084-.202-.09-.34-.243-.137-.154-.206-.36-.068-.212-.068-.46 0-.313.084-.53.09-.222.233-.36.143-.137.323-.2.18-.07.36-.07.137 0 .264.038.127.031.233.095.106.063.185.153.08.09.117.202l.016-.281q.016-.296.01-.53-.005-.237-.053-.401-.047-.17-.148-.254-.1-.09-.27-.09t-.29.063q-.122.064-.18.238-.038.127 0 .254.042.127.237.19l-.02.112-.625-.196h-.021v-.01q.063-.27.169-.434.111-.17.233-.26.122-.09.249-.121.132-.032.243-.032.317 0 .524.111.211.111.328.307.122.19.159.45.037.254.02.545v.01l-.116 1.932q-.005.164.085.238.095.08.19.085zm-1.217-.413q.186 0 .28-.042.096-.043.138-.08l.059-.968q-.07.122-.19.174-.123.053-.25.043-.19-.01-.285-.122-.096-.116-.085-.286.005-.121.08-.174.079-.058.18-.058.084 0 .163.042.08.042.122.127-.058-.005-.111.005-.042.01-.085.032-.037.021-.058.08-.026.068.016.11.047.037.111.037.074 0 .148-.058.074-.063.085-.2.01-.144-.106-.244-.116-.106-.302-.106-.195 0-.328.127-.127.122-.19.312-.064.185-.058.408.005.217.079.407.08.185.222.312.148.122.365.122z" style="stroke-width:.352778"/><path d="M73.915 63.145q.265 0 .445.117.18.111.275.286.1.169.111.37.016.196-.069.37-.08.17-.254.286-.17.111-.444.111-.164 0-.254-.09-.085-.095-.096-.206-.01-.111.053-.201.064-.095.196-.095.085 0 .138.063.053.058.037.138-.016-.016-.032-.027-.037-.026-.08-.026-.026 0-.052.016-.032.02-.043.058-.01.032 0 .069.016.037.048.063.037.027.1.027.085 0 .143-.074.059-.08.085-.19.027-.117.016-.25-.005-.137-.058-.248-.053-.117-.159-.19-.1-.08-.254-.08-.164 0-.265.074-.1.074-.158.19-.058.111-.08.254-.02.138-.02.27v1.424q0 .211.116.317.121.106.307.117v.11l-1.482.006v-.201l.217.01q.143-.01.217-.058.08-.053.08-.206v-1.98q0-.116-.06-.19-.052-.079-.126-.121-.074-.043-.159-.059-.08-.02-.127-.02l-.111.005v-.112l1.127-.063v.333q.106-.185.275-.29.175-.107.397-.107z" style="stroke-width:.352778"/><path d="M77.424 67.4q0-.154.1-.233.106-.085.244-.085.079 0 .158.032.08.032.143.1.069.07.106.175.042.106.042.249 0 .175-.063.312-.058.138-.164.233-.1.1-.238.148-.133.053-.275.053-.445 0-.688-.344-.244-.344-.366-.99l-.386-2.037-.328.37v.726q0 .106.016.185.016.074.058.122.043.047.122.074.085.02.212.02v.112l-1.561.09v-.201h.2q.186 0 .27-.069.09-.069.09-.238v-3.07q0-.12-.052-.195-.053-.074-.127-.116-.075-.043-.154-.059-.08-.015-.127-.015h-.122v-.117h1.757v.117h-.143q-.058 0-.137.015-.074.011-.143.048-.064.037-.111.1-.048.064-.048.17v1.905l.89-.99q.09-.105.052-.18-.032-.079-.17-.105l-.206-.016.01-.117 1.371.138-.005.116-.122-.01h.006q-.244-.027-.387.042-.142.064-.254.185l-.412.471.518 2.673q.085.412.212.608.132.196.38.196.17 0 .281-.127.117-.127.117-.35 0-.121-.058-.174-.053-.053-.117-.053-.053 0-.095.037t-.042.1q0 .054.026.08.032.032.064.053.037.021.09.032-.08.084-.186.084-.095 0-.174-.074-.074-.068-.074-.206zM82.403 63.24q-.01-.126-.1-.195-.085-.069-.323-.074l-.545.01.132 3.482q.016.117.058.186.048.068.122.11.074.038.18.048.106.01.243.006l.302-.011.016.228-2.281.09-.005-.117.254-.005q.169-.01.296-.143.132-.132.122-.392v-.047l-.138-3.419-.116.006h-.021q-.011 0-.037.005-.265.005-.387.153-.121.148-.132.35l-.005.195-.111-.005.037-.942 2.534-.058.032 1-.116.005zM85.276 67.204q.143 0 .223.064.084.068.116.169.032.1.005.217-.02.122-.09.222-.068.1-.185.164-.116.069-.28.069-.291 0-.434-.164-.138-.164-.185-.434-.048-.27-.027-.614.027-.349.074-.704.048-.36.09-.703.043-.35.032-.62-.005-.27-.095-.433-.085-.164-.302-.164-.127 0-.212.052-.084.048-.137.127-.048.08-.069.175-.021.095-.032.19v1.562q0 .164.021.254.022.09.075.137.052.043.132.053.085.01.212.021v.111h-1.593v-.195l.254.01q.164-.01.233-.084.074-.075.074-.239v-3.545q0-.116-.053-.19-.053-.075-.127-.117-.074-.042-.154-.058t-.127-.016h-.121v-.122h1.566v.122q-.058 0-.127.016-.069.01-.127.048-.058.031-.1.1-.038.064-.038.17v1.354q.27-.35.71-.35.349.006.507.18.164.175.201.461.043.286-.01.651-.053.365-.138.746-.08.376-.164.74-.08.36-.095.647-.01.285.069.455.084.174.328.174.132 0 .217-.084.085-.085.1-.19.022-.101-.031-.191-.053-.085-.196-.085-.085 0-.127.032-.042.037-.048.079-.005.048.021.08.027.036.085.036.042 0 .064-.026.02-.021.031-.048.01-.031.016-.074.048.043.064.096.016.058 0 .11-.016.059-.064.096-.042.037-.116.037-.143 0-.212-.09t-.063-.201q.01-.106.095-.196.09-.09.264-.09zM86.885 65.86q-.116 0-.227-.026-.106-.032-.202-.085-.09-.053-.158-.132-.064-.085-.096-.186.011.381.064.657.058.27.153.444.096.17.217.254.127.08.276.08.121 0 .211-.059.095-.063.159-.164.063-.106.095-.238.037-.132.037-.275l.402-.069q0 .26-.079.455-.08.19-.212.318-.127.127-.296.19-.164.058-.35.058-.216.016-.46-.068-.238-.09-.444-.291-.201-.201-.333-.519-.133-.323-.133-.773 0-.27.08-.545.084-.28.243-.502.164-.223.402-.365.244-.143.561-.143.318 0 .545.148.228.148.355.37.127.217.148.477.021.254-.074.476-.095.217-.312.365t-.572.148zm-.677-.72q.032-.09.11-.153.08-.064.218-.064.111 0 .18.048.074.048.106.116.031.064.02.143-.01.074-.073.133-.01-.053-.032-.09-.021-.037-.053-.064-.026-.032-.08-.032-.063-.005-.084.07-.016.068.016.153.032.084.116.158.085.07.228.07.164 0 .27-.117.11-.117.164-.286.053-.175.047-.376 0-.2-.058-.37-.053-.175-.164-.291-.111-.117-.275-.117-.085 0-.19.064-.106.058-.202.185-.095.127-.169.334-.074.2-.095.486z" style="stroke-width:.352778"/><path d="M91.69 66.241q.005.185.063.26.064.073.164.079h.138v.164l-1.386.005v-.201l.068.005q.16.006.228-.053.069-.058.069-.238.005-.211.005-.47 0-.26-.01-.498v-.027q0-.19-.016-.37-.011-.185-.048-.328-.037-.143-.106-.228-.069-.09-.18-.09-.106 0-.174.08-.07.074-.112.19-.037.117-.058.26-.02.137-.031.264 0 .01-.006.016v.132l-.042.455v.006q-.01.217.058.301.074.085.222.09l-.005.122-1.355-.048.006-.121h.047q.043 0 .096-.01.058-.017.11-.049.054-.037.09-.09.043-.058.059-.137l.053-.598q.016-.19.01-.365 0-.18-.031-.323-.032-.143-.1-.233-.07-.095-.186-.11-.1-.017-.18.036-.074.048-.127.143-.053.09-.08.212-.026.121-.026.248v1.62q0 .211.048.317.053.1.233.111v.117l-1.382.005v-.201l.228.016q.153-.006.243-.058.09-.053.09-.217V64.41q0-.116-.053-.19-.052-.074-.127-.117-.074-.047-.153-.063-.08-.016-.132-.016l.084-.01-.2.01v-.117l1.121-.052v.28q.18-.344.577-.344.227 0 .429.153.206.149.306.482.075-.222.233-.35.159-.132.413-.126.143 0 .286.074.148.074.264.233.117.158.19.412.075.254.075.614zM93.526 65.86q-.116 0-.227-.026-.106-.032-.201-.085-.09-.053-.16-.132-.063-.085-.094-.186.01.381.063.657.058.27.153.444.096.17.217.254.127.08.276.08.121 0 .211-.059.096-.063.159-.164.064-.106.095-.238.037-.132.037-.275l.402-.069q0 .26-.079.455-.08.19-.212.318-.127.127-.296.19-.164.058-.35.058-.216.016-.46-.068-.238-.09-.444-.291-.201-.201-.333-.519-.133-.323-.133-.773 0-.27.08-.545.084-.28.243-.502.164-.223.402-.365.244-.143.561-.143.318 0 .545.148.228.148.355.37.127.217.148.477.021.254-.074.476-.095.217-.312.365t-.572.148zm-.677-.72q.032-.09.11-.153.08-.064.218-.064.111 0 .18.048.074.048.106.116.031.064.02.143-.01.074-.073.133-.01-.053-.032-.09-.021-.037-.053-.064-.026-.032-.08-.032-.063-.005-.084.07-.016.068.016.153.032.084.116.158.085.07.228.07.164 0 .27-.117.11-.117.164-.286.053-.175.047-.376 0-.2-.058-.37-.053-.175-.164-.291-.111-.117-.275-.117-.085 0-.19.064-.106.058-.202.185-.095.127-.169.334-.074.2-.095.486zM97.463 63.352q-.132.01-.206.09-.069.074-.1.196-.027.121-.022.28.005.159.021.333l.021.307.736-.063.016.217-.73.058.19 2.249q.01.132.048.206.037.08.095.117.063.037.143.042.084.01.185.01l.01.117-1.592.132-.016-.2.254-.011q.159-.021.227-.1.07-.08.053-.239l-.19-2.275-.408.037-.02-.212.407-.032q-.021-.29-.006-.545.022-.26.106-.455.09-.201.265-.323.174-.127.46-.148.238-.021.402.053.17.074.27.19.106.112.159.244.053.132.058.228l-.428.2q-.011-.126-.027-.253-.016-.133-.058-.233-.037-.106-.116-.164-.075-.064-.207-.053z" style="stroke-width:.352778"/><path d="M100.061 63.145q.265 0 .445.117.18.111.275.286.1.169.111.37.016.196-.069.37-.079.17-.254.286-.169.111-.444.111-.164 0-.254-.09-.085-.095-.095-.206-.011-.111.053-.201.063-.095.195-.095.085 0 .138.063.053.058.037.138-.016-.016-.032-.027-.037-.026-.08-.026-.026 0-.052.016-.032.02-.042.058-.011.032 0 .069.015.037.047.063.037.027.1.027.085 0 .144-.074.058-.08.084-.19.027-.117.016-.25-.005-.137-.058-.248-.053-.117-.159-.19-.1-.08-.254-.08-.164 0-.264.074t-.16.19q-.057.111-.078.254-.022.138-.022.27v1.424q0 .211.117.317.122.106.307.117v.11l-1.482.006v-.201l.217.01q.143-.01.217-.058.08-.053.08-.206v-1.98q0-.116-.059-.19-.053-.079-.127-.121-.074-.043-.159-.059-.079-.02-.127-.02l-.11.005v-.112l1.126-.063v.333q.106-.185.276-.29.174-.107.396-.107zM103.273 65.363q0 .259-.063.56-.058.302-.196.561-.137.254-.36.43-.222.168-.54.168-.216.016-.444-.068-.222-.09-.407-.291-.186-.201-.307-.519-.117-.323-.117-.773 0-.27.074-.545.074-.28.223-.502.153-.223.386-.365.238-.143.555-.143.254 0 .471.11.217.107.376.302.164.196.254.471.095.27.095.604zm-.693-.355q.005-.153-.021-.317-.027-.164-.09-.302-.058-.138-.153-.228-.09-.09-.217-.09-.085 0-.18.064-.09.058-.17.185-.08.127-.137.334-.058.2-.074.486.031-.084.11-.148.08-.069.218-.069.11 0 .18.048.074.048.105.116.032.064.022.143-.01.074-.074.133-.011-.053-.032-.09-.016-.037-.048-.064-.032-.032-.085-.032-.063-.005-.09.07-.026.068-.005.153.022.084.085.158.069.07.19.07.218 0 .34-.165.121-.17.126-.455zm-.481 1.857q.217 0 .317-.27t.138-.724q-.09.037-.201.058-.106.021-.238.01-.223-.02-.376-.148-.154-.132-.207-.333.011.751.143 1.08.133.327.424.327z" style="stroke-width:.352778"/><path d="M107.036 66.241q.005.185.063.26.064.073.164.079h.138v.164l-1.387.005v-.201l.07.005q.158.006.227-.053.069-.058.069-.238.005-.211.005-.47 0-.26-.011-.498v-.027q0-.19-.016-.37-.01-.185-.047-.328-.037-.143-.106-.228-.07-.09-.18-.09-.106 0-.175.08-.069.074-.111.19-.037.117-.058.26-.021.137-.032.264 0 .01-.005.016v.132l-.042.455v.006q-.01.217.058.301.074.085.222.09l-.005.122-1.354-.048.005-.121h.047q.042 0 .095-.01.059-.017.112-.049.052-.037.09-.09.042-.058.058-.137l.053-.598q.016-.19.01-.365 0-.18-.032-.323-.031-.143-.1-.233-.069-.095-.185-.11-.1-.017-.18.036-.074.048-.127.143-.053.09-.08.212-.026.121-.026.248v1.62q0 .211.047.317.053.1.233.111v.117l-1.38.005v-.201l.227.016q.153-.006.243-.058.09-.053.09-.217V64.41q0-.116-.053-.19t-.127-.117q-.074-.047-.153-.063-.08-.016-.132-.016l.084-.01-.2.01v-.117l1.121-.052v.28q.18-.344.577-.344.227 0 .428.153.207.149.307.482.074-.222.233-.35.159-.132.413-.126.143 0 .286.074.148.074.264.233.117.158.19.412.075.254.075.614zM111.534 66.66q-.01.2.068.295.08.096.223.106l-.005.122-1.35-.048.005-.121h.048q.09.005.196-.053.11-.064.137-.233l.07-1.35v-.052q0-.027.004-.053.016-.19.01-.37-.004-.18-.036-.324-.032-.142-.1-.232-.064-.096-.18-.111-.101-.011-.18.042-.08.047-.133.143-.048.09-.074.211-.027.122-.027.25v1q0 .21.07.338.068.122.253.132l.1.005v.117l-1.433-.048v-.148l.185.01q.138-.01.206-.063.074-.058.074-.206v-1.45q0-.132-.047-.212-.042-.08-.117-.121-.068-.043-.153-.053-.085-.011-.159-.006l-.106.006v-.117l1.128-.058v.28q.18-.338.576-.338.164 0 .318.08.153.073.27.243.116.164.174.423.064.26.037.624zM114.354 65.363q0 .259-.063.56-.059.302-.196.561-.138.254-.36.43-.222.168-.54.168-.217.016-.444-.068-.222-.09-.408-.291-.185-.201-.307-.519-.116-.323-.116-.773 0-.27.074-.545.074-.28.222-.502.154-.223.387-.365.238-.143.555-.143.254 0 .471.11.217.107.376.302.164.196.254.471.095.27.095.604zm-.693-.355q.005-.153-.021-.317-.027-.164-.09-.302-.058-.138-.154-.228-.09-.09-.217-.09-.084 0-.18.064-.09.058-.169.185-.08.127-.138.334-.058.2-.074.486.032-.084.112-.148.079-.069.216-.069.112 0 .18.048.074.048.106.116.032.064.021.143-.01.074-.074.133-.01-.053-.031-.09-.016-.037-.048-.064-.032-.032-.085-.032-.063-.005-.09.07-.026.068-.005.153.021.084.085.158.069.07.19.07.217 0 .34-.165.12-.17.126-.455zm-.482 1.857q.217 0 .318-.27.1-.27.137-.724-.09.037-.2.058-.106.021-.239.01-.222-.02-.375-.148-.154-.132-.207-.333.01.751.143 1.08.132.327.423.327z" style="stroke-width:.352778"/><path d="m116.979 63.632 1.09.016-.005.111h-.233q-.074.006-.143.048-.063.042-.09.17l-.243 1.491q-.021.18.01.292.032.11.1.169.075.053.176.069.105.016.222.016h.106l-.016.222-1.815-.006-.01-.2h.153q.084-.011.132-.054.047-.047.063-.116.016-.074.01-.159-.004-.084-.026-.17l-.195-.862-.286 1.154-.01.063q-.059.233-.011.35.047.116.275.137h.053l-.01.223-1.768-.059-.016-.195h.143q.1 0 .17-.048.073-.048.115-.122.043-.074.059-.164.016-.09.005-.174l-.207-1.45q-.037-.207-.153-.323-.111-.117-.339-.106l-.143.005-.01-.206 1.661.026.005.117-.116.005q-.18.005-.249.122-.069.111-.037.296v.027l.238 1.614.508-2.011q.053-.207-.032-.307-.079-.106-.338-.095h.005l-.1.005-.006-.212 1.418.032.005.111-.227.016q-.116.01-.18.069-.058.058-.08.143-.015.084-.01.18.01.09.026.174l.408 1.768.286-1.82q.016-.138-.07-.197-.079-.058-.232-.068h-.048zM122.186 65.363q0 .259-.064.56-.058.302-.195.561-.138.254-.36.43-.223.168-.54.168-.217.016-.445-.068-.222-.09-.407-.291-.185-.201-.307-.519-.116-.323-.116-.773 0-.27.074-.545.074-.28.222-.502.153-.223.386-.365.238-.143.556-.143.254 0 .47.11.218.107.377.302.164.196.254.471.095.27.095.604zm-.693-.355q.005-.153-.022-.317-.026-.164-.09-.302-.058-.138-.153-.228-.09-.09-.217-.09-.085 0-.18.064-.09.058-.17.185-.079.127-.137.334-.058.2-.074.486.032-.084.111-.148.08-.069.217-.069.111 0 .18.048.074.048.106.116.032.064.021.143-.01.074-.074.133-.01-.053-.032-.09-.016-.037-.047-.064-.032-.032-.085-.032-.064-.005-.09.07-.027.068-.005.153.021.084.085.158.068.07.19.07.217 0 .339-.165.121-.17.127-.455zm-.482 1.857q.217 0 .318-.27.1-.27.137-.724-.09.037-.2.058-.107.021-.24.01-.221-.02-.375-.148-.153-.132-.206-.333.01.751.143 1.08.132.327.423.327zM124.594 66.66q-.011.2.068.295.08.096.223.106l-.005.122-1.35-.048.005-.121h.048q.09.005.196-.053.11-.064.137-.233l.069-1.35v-.052q0-.027.005-.053.016-.19.01-.37-.004-.18-.036-.324-.032-.142-.1-.232-.064-.096-.18-.111-.101-.011-.18.042-.08.047-.133.143-.048.09-.074.211-.027.122-.027.25v1q0 .21.07.338.068.122.253.132l.1.005v.117l-1.433-.048v-.148l.185.01q.137-.01.206-.063.074-.058.074-.206v-1.45q0-.132-.047-.212-.043-.08-.117-.121-.069-.043-.153-.053-.085-.011-.159-.006l-.106.006v-.117l1.127-.058v.28q.18-.338.577-.338.164 0 .318.08.153.073.27.243.116.164.174.423.064.26.037.624z" style="stroke-width:.352778"/></g></g></svg>