<svg xmlns="http://www.w3.org/2000/svg" xml:space="preserve" width="150mm" height="50mm" viewBox="0 0 150 50"><g style="display:inline"><rect width="150" height="50" rx="1.818" ry="2.5" style="fill:#1e1e2e;fill-opacity:1;stroke:none;stroke-width:3.19816;stroke-linecap:round;stroke-linejoin:round;stroke-dasharray:none"/><path d="m29.12 11.56-.096.28c-.12.349-.198.424-.548.546l-.281.099.227.05c.246.055.58.397.58.594 0 .068.024.146.052.175.028.028.07-.025.094-.117.087-.324.219-.485.495-.609.263-.118.27-.13.112-.17-.294-.073-.535-.314-.587-.588z" style="fill:#a6e3a1;fill-opacity:1;stroke-width:.0541771"/><path d="m10.52 7.273-.209-.05c-.259-.063-.318-.113-.43-.356l-.09-.195-.021.167c-.022.18-.245.443-.387.457-.048.005-.103.028-.121.05-.019.022.022.048.09.06.239.04.364.123.472.313.103.181.112.185.13.068a.573.573 0 0 1 .382-.462zM27.902 15.635l.043-.21c.056-.26.104-.32.344-.44l.193-.095-.168-.016c-.18-.017-.45-.232-.468-.374-.006-.048-.03-.102-.053-.12-.023-.018-.048.024-.057.092-.033.24-.113.367-.3.48-.178.109-.182.118-.065.132a.573.573 0 0 1 .473.37z" style="fill:#a6e3a1;fill-opacity:1;stroke-width:.0391142"/><path d="M-57.807 37.813c-.469-.037-.584-.005-2.302.67a172.7 172.7 0 0 1-1.815.699c-.432.162-.938.396-1.125.517-.435.283-1.18 1.03-1.416 1.422-.234.388-.276.629-.22 1.272.024.285.04.52.035.523-.006.003-.336.072-.735.154-.767.159-1.677.44-1.97.612-.128.074-.18.148-.192.267-.014.142.035.213.354.514.57.539 1.62 1.025 2.07.959.091-.013.166-.001.166.03 0 .147-.248.917-.404 1.253-.492 1.06-1.118 1.48-1.735 1.166-.268-.137-.307-.1-.11.108.268.278.702.342 1.1.162.714-.324 1.335-1.438 1.551-2.782.043-.264.087-.486.096-.494.01-.007.106-.03.217-.05.2-.037.2-.036.148.115a6.019 6.019 0 0 0-.129.605c-.088.513-.368 1.147-.77 1.744-.138.207-.239.39-.224.405.055.054.603-.493.862-.862.145-.207.264-.367.265-.355 0 .012.06.192.131.4l.129.377-.203.336c-.797 1.32-.712 3.135.22 4.762.32.557.57.903 1.135 1.568.228.268.518.646.643.84.125.194.21.291.19.217-.075-.264-.358-.767-.837-1.49-.8-1.21-1.12-1.855-1.341-2.707-.362-1.388-.063-2.634.877-3.645.46-.496.749-.634 1.33-.635.4 0 .503.02.78.156.783.385 1.667 1.584 1.932 2.622.343 1.338.091 2.754-.761 4.287-.562 1.009-.9 2.031-.95 2.875-.03.509-.024.503.245-.371a9.679 9.679 0 0 1 .906-2.073c.451-.783.628-1.145.789-1.619.563-1.654.4-3.23-.484-4.648l-.245-.395.065-.273c.086-.359.125-.316.504.549.553 1.261.74 2.067.74 3.18 0 1.172-.175 1.973-.78 3.552-.423 1.106-.695 1.917-.816 2.434-.082.353-.035.423.075.111.039-.112.396-.934.79-1.828.395-.894.759-1.749.807-1.899.07-.215.237-.971.254-1.154.008-.08.11.24.213.67.276 1.14.306 1.59.35 5.147.106 8.66.177 11.659.285 11.923.09.224.112-.614.113-4.34.002-6.137-.072-11.053-.176-11.703-.136-.853-.298-1.529-.496-2.062a3.674 3.674 0 0 1-.236-1.094 7.368 7.368 0 0 0-.139-.935c-.047-.185-.078-.342-.068-.352.01-.01.162.074.34.188.178.113.695.414 1.148.67.454.255.956.55 1.115.656.73.483 1.353 1.356 1.803 2.523.633 1.641.842 3.035.942 6.285.113 3.684.203 5.586.277 5.77.08.2.075-6.62-.006-7.801-.139-2.009-.471-3.554-1.035-4.809-.602-1.337-1.127-1.941-2.319-2.668l-.294-.18.19-.08c.182-.075.427-.32.427-.425 0-.027-.073-.012-.16.033-.241.125-.615.104-.92-.05-.272-.138-.75-.65-1.676-1.788-.557-.685-.78-1.113-.983-1.88-.186-.709-.174-.641-.119-.641.108 0 .435.372.498.568.205.634.632 1.242 1.024 1.455.205.112.34.145.6.145.184 0 .381-.026.439-.057.152-.081.128.013-.045.178-.316.302-.67.333-1.12.097-.167-.088-.288-.132-.267-.095.242.405 1.138 1.21 1.613 1.449.5.25 1.06.198 1.227-.115.076-.143.037-.183-.103-.108-.146.078-.562.075-.75-.006-.15-.064-.938-.583-.938-.617 0-.01.087-.059.193-.11.39-.184.678-.781.67-1.388l-.004-.34-.082.229c-.12.338-.394.556-.699.556-.492 0-.871-.324-1.27-1.09-.159-.305-.202-.432-.152-.449l.287-.09c.837-.253 1.833-1.124 1.659-1.45-.104-.193-1.036-.53-2.067-.745a7.733 7.733 0 0 1-.476-.107c-.01-.007.13-.31.312-.672.276-.551.328-.705.328-.94 0-.274-.005-.286-.367-.632-.338-.324-1.512-1.192-1.611-1.192-.024 0 .314.363.75.807.435.444.806.865.824.937.019.076-.012.25-.072.409-.103.269-.593 1.207-.631 1.207a3.99 3.99 0 0 1-.334-.307c-.683-.667-1.991-1.357-2.865-1.512-.294-.052-.244-.017.318.223.264.113.69.337.947.498.5.314 1.303.932 1.307 1.006.001.025-.162.026-.363.004-.553-.062-2.464-.046-3.07.025-.296.035-.55.051-.565.035-.016-.015-.04-.292-.053-.615-.03-.732.004-.813.621-1.469.615-.653 1.002-.896 2.049-1.293.477-.18 1.33-.51 1.896-.73 1.464-.57 1.56-.598 1.93-.565.284.026 2.076.596 2.67.85l.223.096-1.053.039-1.055.04-.34.327-.337.326-.26-.228c-.298-.263-.71-.517-.758-.47-.018.019.075.15.207.292s.31.351.397.465c.135.18.383.361.492.361.019 0 .198-.155.396-.346l.36-.347 1.166-.063c2.422-.13 2.728-.215 1.787-.49-.224-.065-.967-.32-1.653-.568-1.564-.566-1.748-.62-2.248-.659zm-2.539 5.4c1.156.115 2.452.39 3.057.648l.26.114-.262.265c-.281.286-.693.526-1.156.676l-.29.094-.144-.135c-.17-.158-.717-.382-1.287-.527-1.28-.328-2.944-.272-4.256.142-.351.111-.452.17-.596.348-.193.241-.23.247-.628.105-.64-.227-1.494-.812-1.403-.96.114-.184 1.88-.605 3.127-.745.844-.094 2.755-.107 3.578-.025zm-11.644 1.523c.15.392.152.916.006 1.239-.061.134-.28.453-.487.709-.421.52-.558.801-.597 1.24-.036.397.127.83.449 1.187.29.324.522.473.933.606.37.12.905.118.905-.002 0-.053-.106-.098-.326-.139-.948-.175-1.606-.8-1.62-1.537-.008-.465.046-.575.528-1.084.582-.614.703-.866.678-1.416-.016-.346-.046-.455-.182-.674-.09-.143-.216-.297-.281-.34-.201-.199-.046.11-.006.211zm8.78-.15c.84-.17 2.168-.109 3.132.144.177.047.2.075.258.327.087.38.079.997-.02 1.466-.045.217-.09.401-.1.41-.009.01-.096-.057-.19-.148a2.688 2.688 0 0 0-1.056-.603c-.73-.223-1.578-.037-2.115.464-.245.23-.248.227-.416-.292-.13-.403-.156-1.089-.056-1.444l.062-.222zm-7.052 2.232c-.354-.22-.415-.202-.138.041.15.132.343.372.431.532.141.254.162.343.162.726 0 .386-.017.464-.148.662-.082.124-.133.26-.115.307.048.125.109.103.254-.092.18-.243.254-.49.254-.853 0-.545-.27-1.055-.7-1.323zm8.705.112c-.523-.025-1.048.245-1.515.812-.321.39-.663 1.034-.774 1.46-.176.675-.06 1.514.317 2.304.193.405.71 1.22.916 1.443.167.182.163.15-.016-.14-.467-.76-.882-1.881-.953-2.577-.08-.784.225-1.617.826-2.253.145-.154.27-.14.412-.24-.071-.032-.414.404-.586.755-.245.501-.35.933-.35 1.443 0 .858.276 1.666 1.155 3.405.279.551.587 1.23.686 1.506.098.276.188.495.197.486.028-.028-.236-1.077-.385-1.531a18.66 18.66 0 0 0-.486-1.229c-.477-1.095-.66-1.637-.733-2.166-.1-.734.025-1.505.377-2.289.09-.198.146-.362.137-.387.24-.168.493-.404.693-.404.73 0 1.679 1.016 1.96 2.098.178.688.068 1.788-.327 3.293-.074.283.154-.136.352-.647.284-.735.395-1.256.396-1.877.002-.852-.253-1.59-.797-2.312-.458-.61-.979-.929-1.502-.953zm-2.931.379c-.034-.091-.497.915-.65 1.416a2.783 2.783 0 0 1-1.344 1.609l-.291.158.502-.553c.276-.304.608-.717.738-.918.216-.336.574-1.001.574-1.068 0-.015-.11.056-.246.16-.486.371-1.334.464-1.79.196-.287-.17-.282-.108.01.15.268.236.55.343.93.353.127.004.229.019.229.034 0 .015-.136.185-.303.379-.741.857-1.154 1.282-1.535 1.582-.485.38-.709.647-.959 1.142-.23.455-.367 1.033-.48 2.016-.049.417-.105.88-.125 1.03l-.038.269-.12-.202c-.124-.208-.194-.2-.21-.07.034-.107-.063-.266 0-.4.269-.572.303-.865.141-1.24-.067-.155-.144-.282-.17-.282-.026 0-.047.16-.047.354 0 .273-.036.431-.156.697-.086.19-.183.361-.215.381-.071.044-.28-.344-.28-.522 0-.068.146-.34.323-.601.389-.575.458-.77.422-1.172-.025-.279-.191-.714-.297-.78-.023-.014-.041.201-.041.48 0 .467-.056.705-.123.515-.016-.044-.172-.218-.346-.385-.207-.2-.316-.347-.316-.43 0-.069.113-.317.25-.55.45-.767.512-1.244.24-1.819-.088-.186-.17-.338-.182-.338-.011 0-.01.225.004.502l.028.504-.387.748c-.312.606-.387.797-.387.996 0 .24.015.26.461.686.253.242.461.463.461.494 0 .031-.064.142-.14.244-.504.673-.523 1.237-.055 1.674.113.106.136.164.111.299-.02.106.01.294.084.506l.117.336-.187.257c-.6.822-.82 1.773-.602 2.588.074.274.085.661.078 2.518-.01 2.699.095 5.646.25 7.068.03.279.042.305.086.19.032-.082.04-1.773.018-4.428-.02-2.361-.023-4.293-.008-4.293s.15.109.3.242c.151.134.342.278.425.32.195.102.8.212.931.17.115-.036.11-.051.57 1.625 1.227 4.456 2.32 8.144 2.716 9.172h-.002c.106.278.204.495.216.483.1-.1-.807-3.613-1.93-7.461-1.16-3.981-1.155-3.964-1.074-4.016.142-.09.205-.044.264.184.12.464.828 2.833.871 2.912.038.068.046.066.047-.014.002-.13-.233-1.337-.49-2.513-.17-.777-.204-1.012-.16-1.127.071-.189.071-.61 0-.655-.034-.02-.041-.138-.02-.298.029-.215.013-.303-.08-.461-.087-.148-.101-.219-.06-.295.198-.372-.076-.77-.631-.918-.224-.06-.225-.061-.338-.479-.063-.23-.14-.503-.168-.603l-.053-.182.256.033c.14.02.46.133.709.252.847.405 1.456 1.193 1.682 2.174.138.603.158.928.197 3.19a76.69 76.69 0 0 0 .082 2.654l.055.84c.003.076.02.06.056-.055.028-.09.066-1.344.084-2.79.033-2.703.004-3.384-.178-4.085-.166-.645-.678-1.485-1.144-1.875-.234-.196-1.093-.623-1.361-.678l-.182-.037.035-.36c.09-.925.262-2.078.363-2.458.22-.824.668-1.375 1.399-1.727l.812-.392a3.2 3.2 0 0 0 .63-.426c.153-.141.295-.242.314-.223.019.02.035.128.035.24 0 .482.247 1.349.597 2.094.328.696.759 1.353 1.83 2.799 1.057 1.425 1.552 2.197 1.989 3.092.293.601.608 1.448.765 2.058l.043.162.018-.2c.026-.278-.117-1.068-.287-1.589-.2-.608-.71-1.63-1.149-2.3a56.235 56.235 0 0 0-1.171-1.668c-1.032-1.42-1.289-1.818-1.606-2.477-.332-.692-.514-1.274-.6-1.928-.081-.625-.022-1.202.225-2.181.09-.354.153-.672.14-.705zm5.547.209c-.208-.374-.171-.341.379.326.22.268.641.725.935 1.015.294.29.525.528.514.528-.012 0-.213-.126-.448-.28-.656-.43-.878-.687-1.38-1.59zm-2.03.193c-.012.013.119.309.291.658.614 1.242.641 1.825.15 3.32-.339 1.036-.51 1.834-.562 2.63-.025.39-.018.54.028.54.035 0 .062-.086.062-.203 0-.314.178-.988.514-1.937.629-1.78.635-1.8.664-2.422.024-.518.011-.63-.114-1.03a3.674 3.674 0 0 0-.408-.855c-.257-.39-.578-.75-.625-.701zm-.646.02c-.306-.1-.697.84-.791 1.9-.086.964.08 1.806.574 2.906.078.174.162.317.188.317.025 0 .046.042.046.091 0 .18.065.017.305-.775.317-1.044.4-1.487.4-2.106 0-1.002-.377-2.221-.722-2.334zm-.031.232c.068.07.255.875.324 1.396.08.608.04 1.528-.112 2.602-.063.447-.123.837-.132.867-.058.176-.377-1.21-.463-2.012a7.066 7.066 0 0 1 .105-1.949c.121-.565.238-.945.278-.904zm-4.989 4.957c0 .02.063.214.14.432.177.492.545 1.23 1.036 2.076.776 1.337 1.064 1.94 1.387 2.902.5 1.49.66 2.711.77 5.875.042 1.252.102 2.506.132 2.79l.063.595c.004.045.027-.04.05-.19.062-.397.06-4.42-.003-5.336-.176-2.565-.756-4.521-1.868-6.31l-.773-1.246c-.24-.388-.55-.913-.686-1.166-.135-.253-.247-.443-.248-.422zm-2.959 2.15c.03.204.353 1.462.489 1.889.034.107.02.121-.118.121-.153 0-.158-.01-.369-.744-.2-.698-.091-.933-.002-1.266zm-.367 1.375c.052-.016.273.68.227.715-.009.007-.16.077-.334.156-.335.151-.414.17-.414.102 0-.09.464-.955.521-.973zm15.356.866c.093-.415.022-.31-.127.189-.193.643-.299 1.195-.4 2.098-.149 1.309-.106 5.22.07 6.314.019.12.05.204.068.186.018-.019.05-1.45.068-3.184.03-2.668.053-3.321.15-4.256.064-.607.14-1.213.17-1.347zm-14.61.158c.406-.024.76.053.881.238.134.203-.006.297-.568.38-.275.042-.603.12-.729.175l-.228.097.65-.02c.548-.016.68-.004.84.079.153.079.19.129.19.26 0 .158-.014.168-.569.347-.313.102-.58.193-.592.204-.075.063.101.069.59.023.305-.029.587-.038.629-.022.214.083-.021.582-.357.76-.17.09-.324.123-.57.123-.292 0-.375-.024-.6-.175-.526-.353-.89-1.054-.89-1.715 0-.27.02-.33.124-.395.335-.212.794-.336 1.2-.36z" style="fill:#b4befe;stroke-width:.0541771" transform="matrix(1.29417 0 0 1.29417 98.277 -45.923)"/><ellipse cx="6.082" cy="16.195" rx=".859" ry=".85" style="fill:#f38ba8;fill-opacity:1;stroke:none;stroke-width:.352777;stroke-linecap:round;stroke-linejoin:round;stroke-opacity:.25098"/><g aria-label="Dotfiles" style="font-size:31.75px;font-family:&quot;CaskaydiaCove Nerd Font Propo&quot;;-inkscape-font-specification:&quot;CaskaydiaCove Nerd Font Propo&quot;;text-align:center;text-anchor:middle;display:inline;fill:#94e2d5;stroke-width:.352777;stroke-linecap:round;stroke-linejoin:round;stroke-opacity:.25098"><path d="M45.977 11.522q2 0 3.556.603 1.556.572 2.699 1.556 1.143.953 1.905 2.223.793 1.238 1.238 2.603.444 1.334.571 2.699.159 1.333.032 2.476-.063 2.572-.952 4.795-.89 2.222-2.35 3.905-1.429 1.65-3.27 2.603-1.81.953-3.715.953-1.905 0-3.08-.92-1.143-.89-1.587-2.096-.445-1.207-.222-2.445.254-1.27 1.143-1.937l.54-13.208v-.222q.031-.54-.064-1.048-.095-.54-.381-.952-.286-.413-.826-.635-.508-.254-1.365-.254h-.889v-.699zM45.374 34.7q1.587 0 2.794-1.048 1.206-1.016 2-2.635.825-1.651 1.238-3.715.413-2.064.413-4.128 0-1.746-.35-3.46-.317-1.747-1.015-3.175-.699-1.46-1.778-2.477-1.048-1.048-2.509-1.365l-.666 15.843q.412.35.603 1.143.222.92-.159 1.62-.35.698-1.143.888-.508.127-.889-.127-.35-.254-.508-.635-.159-.412-.095-.889.095-.476.444-.793.064.285.19.508.096.158.255.317.19.159.476.19.35.032.445-.253.127-.318 0-.635-.127-.35-.508-.572-.381-.222-.985-.032-.952.286-1.333 1.175-.35.89-.127 1.842.222.952 1.016 1.682t2.19.73zM72.552 22.285q0 1.556-.381 3.366-.35 1.81-1.175 3.365-.826 1.524-2.16 2.572-1.333 1.016-3.238 1.016-1.301.095-2.667-.413-1.333-.54-2.444-1.746-1.112-1.206-1.842-3.111-.698-1.937-.698-4.636 0-1.62.444-3.27.445-1.683 1.334-3.016.92-1.334 2.317-2.191 1.429-.857 3.334-.857 1.524 0 2.826.666 1.302.635 2.254 1.81.984 1.175 1.524 2.826.572 1.62.572 3.62zm-4.16-2.127q.032-.92-.127-1.905-.158-.984-.54-1.81-.349-.825-.92-1.365-.54-.54-1.302-.54-.508 0-1.08.381-.54.35-1.015 1.112-.477.762-.826 2-.35 1.206-.444 2.92.19-.507.666-.888.477-.413 1.302-.413.667 0 1.08.286.444.286.635.698.19.381.127.858-.064.444-.445.793-.063-.317-.19-.54-.096-.222-.286-.38-.19-.19-.508-.19-.381-.033-.54.412-.159.413-.032.92.127.509.508.953.413.413 1.143.413 1.302 0 2.032-.984.73-1.016.762-2.73zm-2.889 11.144q1.302 0 1.905-1.619.603-1.62.826-4.35-.54.223-1.207.35-.635.127-1.429.063-1.333-.127-2.254-.889-.92-.794-1.238-2 .063 4.508.857 6.477.794 1.968 2.54 1.968zM80.616 26.35q0-.921.603-1.398.635-.508 1.46-.508.477 0 .953.19.477.191.858.604.412.413.635 1.048.254.635.254 1.492 0 1.016-.381 1.81-.35.794-.953 1.333-.571.54-1.365.826-.762.286-1.62.286-1.047 0-2.095-.445-1.048-.444-1.905-1.397-.825-.952-1.365-2.413-.508-1.492-.508-3.524v-11.08l-2.921.063-.095-1.334 3.016-.032V7.712l3.873-.19v4.286l4.16-.032.095 1.175-4.255.127v11.525q0 2.477.635 3.905.667 1.397 2.16 1.397.793 0 1.46-.73.698-.762.698-2.095 0-.73-.349-1.048-.317-.318-.698-.318-.35 0-.604.223-.222.222-.222.571 0 .286.159.476.19.19.38.318.223.159.54.222-.476.476-1.079.476t-1.08-.412q-.444-.445-.444-1.239z" style="font-family:&quot;Magical Neverland&quot;;-inkscape-font-specification:&quot;Magical Neverland&quot;;stroke-width:.352778" transform="translate(0 -.104)"/><path d="M92.65 10.22q-.794.064-1.239.54-.413.445-.603 1.175-.159.73-.127 1.683.032.952.127 2l.127 1.841 4.413-.38.095 1.301-4.381.35 1.143 13.493q.063.794.286 1.238.222.477.571.699.381.222.857.254.508.063 1.112.063l.063.699-9.557.794-.095-1.207 1.524-.063q.953-.127 1.365-.604.413-.476.318-1.428l-1.143-13.653-2.445.222-.127-1.27 2.445-.19q-.127-1.746-.032-3.27.127-1.556.635-2.73.54-1.207 1.588-1.938 1.047-.762 2.762-.889 1.429-.127 2.413.318 1.016.444 1.62 1.143.634.667.952 1.46.317.794.349 1.366l-2.572 1.206q-.063-.762-.159-1.524-.095-.794-.349-1.397-.222-.635-.698-.984-.445-.381-1.239-.318z" style="font-family:&quot;Magical Neverland&quot;;-inkscape-font-specification:&quot;Magical Neverland&quot;;stroke-width:.352778" transform="translate(0 -.104)"/><path d="M101.635 10.982q-.826 0-1.397-.571-.572-.572-.572-1.397 0-.826.572-1.397.571-.572 1.397-.572.825 0 1.365.572.571.571.571 1.397 0 .825-.571 1.397-.54.571-1.365.571zm-1.112 5.588q0-.698-.317-1.143-.318-.476-.794-.73-.444-.254-.92-.35-.477-.126-.763-.126l-.698.032v-.699l10.255-.571v.698l-1.492.095q-.826.096-1.429.508-.571.413-.571 1.397v11.05q0 1.238.38 1.968.413.698 1.747.857l1.492.127v.699l-10.255-.35v-1.206l1.016.095q1.143 0 1.746-.286.603-.317.603-1.365z" style="font-family:&quot;Magical Neverland&quot;;-inkscape-font-specification:&quot;Magical Neverland&quot;;stroke-width:.352778" transform="translate(0 -.104)"/><path d="M113.128 28.667q0 .794.19 1.27.191.476.54.762.35.254.826.35.476.095 1.08.126v.667h-9.557v-1.175l1.492.064q.984-.064 1.429-.508.444-.445.444-1.429V7.522q0-.699-.317-1.143-.318-.445-.762-.699-.445-.254-.921-.35-.476-.094-.794-.094h-.698v-.73h9.398v.73q-.35 0-.762.095-.413.063-.762.286-.35.19-.604.603-.222.38-.222 1.016z" style="font-family:&quot;Magical Neverland&quot;;-inkscape-font-specification:&quot;Magical Neverland&quot;;stroke-width:.352778" transform="translate(0 -.104)"/><path d="M123.86 25.27q-.699 0-1.366-.159-.635-.19-1.206-.508-.54-.317-.953-.794-.38-.508-.571-1.11.063 2.285.38 3.936.35 1.62.922 2.667.571 1.016 1.301 1.524.762.476 1.651.476.73 0 1.27-.349.572-.38.953-.984.38-.635.571-1.429.223-.794.223-1.65l2.413-.414q0 1.556-.477 2.73-.476 1.144-1.27 1.906-.762.762-1.778 1.143-.984.35-2.095.35-1.302.094-2.762-.414-1.43-.54-2.667-1.746-1.207-1.206-2-3.111-.794-1.937-.794-4.636 0-1.62.476-3.27.508-1.683 1.46-3.016.985-1.334 2.413-2.191 1.46-.857 3.366-.857 1.905 0 3.27.889t2.127 2.222q.762 1.302.89 2.858.126 1.524-.445 2.857-.572 1.302-1.873 2.19-1.302.89-3.43.89zm-4.064-4.318q.19-.54.666-.92.477-.382 1.302-.382.667 0 1.08.286.444.286.635.698.19.381.127.858-.064.444-.445.793-.063-.317-.19-.54-.127-.222-.318-.38-.159-.19-.476-.19-.381-.033-.508.412-.096.413.095.92.19.509.698.953.508.413 1.366.413.984 0 1.619-.699.667-.698.984-1.714.318-1.048.286-2.254 0-1.207-.35-2.223-.317-1.048-.984-1.746-.666-.699-1.65-.699-.509 0-1.144.381-.635.35-1.206 1.112-.572.762-1.016 2-.445 1.206-.572 2.92zM134.528 14.729q0 1.016.54 1.937.539.889 1.365 1.746.825.857 1.746 1.778.952.889 1.778 1.905.825 1.016 1.365 2.222.54 1.207.54 2.7 0 1.333-.445 2.38-.444 1.016-1.206 1.747-.762.73-1.81 1.11-1.048.382-2.254.382-.89 0-1.778-.254-.89-.254-1.588-.794-.698-.54-1.143-1.365-.412-.826-.412-1.969 0-.793.222-1.365.254-.571.603-.952.381-.381.826-.54.444-.19.889-.19.666 0 1.143.38.508.35.508 1.048 0 .635-.35.953-.317.317-.762.317-.412 0-.698-.317.19-.032.38-.127.16-.064.255-.19.127-.128.127-.35 0-.445-.603-.445-.445 0-.89.381-.412.35-.412 1.27 0 .921.667 1.62.698.666 1.873.698 1.397 0 2.032-.762.635-.794.635-2.032 0-1.111-.476-2-.477-.89-1.207-1.683-.73-.825-1.587-1.62-.826-.793-1.556-1.65-.73-.89-1.207-1.937-.476-1.048-.476-2.35 0-1.523.54-2.508.571-1.016 1.365-1.587.826-.603 1.778-.826.984-.254 1.778-.254.953 0 1.683.223.73.222 1.27.571.54.35.92.826.382.476.604.952.571 1.143.635 2.572l-3.905 1.143-.127-.667q1.11-.35 1.365-1.048.286-.698.127-1.428-.286-1.143-.921-1.556-.635-.413-1.397-.413-1.206 0-1.778.667-.571.635-.571 1.65z" style="font-family:&quot;Magical Neverland&quot;;-inkscape-font-specification:&quot;Magical Neverland&quot;;stroke-width:.352778" transform="translate(0 -.104)"/></g><g aria-label="&amp; the magic of the terminal" style="font-size:7.9375px;font-family:&quot;Magical Neverland&quot;;-inkscape-font-specification:&quot;Magical Neverland&quot;;text-align:center;text-anchor:middle;fill:#89b4fa;stroke-width:.352777;stroke-linecap:round;stroke-linejoin:round;stroke-opacity:.25098"><path d="M46.245 41.615q-.008.182-.024.404-.016.215-.055.445l.34.31q.168.134.287.238.135.119.254.206l-.778 1.032q-.064-.064-.143-.151-.072-.08-.175-.183-.095-.103-.214-.238-.214.334-.548.548-.333.214-.833.214-.397 0-.683-.11-.278-.112-.46-.31-.183-.199-.27-.477-.08-.277-.08-.603 0-.294.088-.524.095-.238.246-.436.159-.199.357-.365.199-.175.413-.342-.206-.38-.333-.746-.12-.373-.12-.706 0-.262.072-.5.071-.239.222-.413.151-.183.39-.286.237-.103.57-.103.278 0 .477.087.206.088.333.23.135.143.199.326.063.182.063.373 0 .238-.071.452-.072.215-.199.413-.119.199-.285.381-.16.183-.334.365.175.23.357.445.19.206.39.405.007-.088.007-.175.008-.087.008-.159v-.008q.008-.436-.46-.436l.031-.254 1.548.016-.024.15-.087.008q-.27.008-.365.12-.095.103-.111.357zm-2.088-2q.048.27.183.555.135.278.317.563.278-.254.46-.547.183-.302.183-.723 0-.261-.158-.444-.151-.183-.421-.183-.04 0-.15.024-.112.016-.223.095-.103.08-.175.239-.063.15-.016.42zm.366 4.524q.349 0 .563-.223.214-.23.35-.571-.27-.31-.572-.69-.294-.382-.556-.794-.23.293-.38.627-.144.325-.144.73 0 .492.19.706.2.215.549.215zM51.714 42.599q0-.23.15-.35.16-.126.366-.126.119 0 .238.047.119.048.214.151.103.103.159.262.064.159.064.373 0 .254-.096.452-.087.199-.238.334-.143.135-.341.206-.19.072-.405.072-.262 0-.524-.112-.262-.11-.476-.349-.206-.238-.341-.603-.127-.373-.127-.881v-2.77l-.73.016-.024-.334.754-.008v-1.04l.968-.047v1.071l1.04-.007.024.293-1.064.032v2.881q0 .62.159.977.166.349.54.349.198 0 .365-.183.174-.19.174-.524 0-.182-.087-.262-.08-.079-.175-.079-.087 0-.15.056-.056.055-.056.143 0 .071.04.119.047.047.095.079.055.04.135.056-.12.119-.27.119-.15 0-.27-.104-.111-.11-.111-.31z" style="stroke-width:.352778" transform="translate(0 -.104)"/><path d="M56.842 44.345q.214 0 .333.095.127.103.175.254.047.151.007.326-.031.182-.135.333-.103.15-.277.246-.175.103-.421.103-.437 0-.65-.246-.207-.246-.279-.65-.071-.405-.04-.921.04-.524.112-1.056.071-.54.135-1.056.063-.524.047-.928-.008-.405-.143-.651-.127-.246-.452-.246-.19 0-.318.079-.127.071-.206.19-.071.12-.103.262-.032.143-.048.286v2.342q0 .246.032.38.032.136.111.207.08.064.199.08.127.015.317.031v.167h-2.39v-.294l.382.016q.246-.016.35-.127.11-.111.11-.357v-5.318q0-.175-.08-.286-.078-.111-.19-.175-.11-.063-.23-.087-.119-.024-.19-.024h-.183v-.182h2.35v.182q-.088 0-.19.024-.104.016-.191.072-.088.047-.151.15-.056.096-.056.254v2.032q.405-.523 1.064-.523.524.007.762.27.246.261.302.69.063.429-.016.976-.08.548-.207 1.12-.119.563-.246 1.11-.119.54-.143.97-.016.428.104.682.127.262.492.262.198 0 .325-.127t.15-.286q.033-.15-.047-.286-.08-.127-.293-.127-.127 0-.19.048-.064.055-.072.119-.008.071.031.119.04.055.127.055.064 0 .096-.04.031-.031.047-.07.016-.048.024-.112.072.064.095.143.024.087 0 .167-.023.087-.095.143-.063.055-.175.055-.214 0-.317-.135-.103-.135-.095-.301.016-.16.143-.294.135-.135.396-.135zM59.255 42.329q-.175 0-.342-.04-.159-.047-.301-.127-.135-.08-.239-.198-.095-.127-.142-.278.015.571.095.984.087.405.23.667.143.254.325.381.191.119.413.119.183 0 .318-.087.143-.096.238-.246.095-.16.143-.358.055-.198.055-.412l.604-.103q0 .388-.12.682-.119.286-.317.476-.19.19-.445.286-.246.087-.523.087-.326.024-.691-.103-.357-.135-.667-.436-.301-.302-.5-.778-.198-.484-.198-1.159 0-.405.119-.818.127-.42.365-.754.246-.333.603-.547.365-.215.842-.215.476 0 .817.223.341.222.532.555.19.326.222.715.032.38-.11.714-.144.325-.47.548-.325.222-.856.222zm-1.016-1.08q.047-.135.166-.23.12-.095.326-.095.166 0 .27.071.11.072.158.175.048.095.032.214-.016.111-.111.199-.016-.08-.048-.135-.031-.056-.08-.095-.039-.048-.118-.048-.095-.008-.127.103-.024.103.024.23.047.127.174.238.127.104.342.104.246 0 .404-.175.167-.175.246-.429.08-.262.072-.563 0-.302-.087-.556-.08-.262-.246-.436-.167-.175-.413-.175-.127 0-.286.095-.159.088-.302.278-.142.19-.254.5-.11.302-.142.73zM69.073 42.9q.008.278.095.39.096.11.247.118h.206v.246l-2.08.008v-.301l.103.008q.239.008.342-.08.103-.087.103-.357.008-.317.008-.706 0-.39-.016-.746v-.04q0-.286-.024-.556-.016-.278-.071-.492-.056-.214-.159-.341-.103-.135-.27-.135-.159 0-.262.119-.103.111-.167.286-.055.174-.087.389-.032.206-.047.396 0 .016-.008.024v.199l-.064.682v.008q-.016.326.087.453.112.127.334.135l-.008.182-2.032-.071.008-.183h.071q.064 0 .143-.016.087-.024.167-.071.08-.056.135-.135.063-.087.087-.206l.08-.897q.023-.286.015-.548 0-.27-.047-.484-.048-.215-.151-.35-.103-.142-.278-.166-.15-.024-.27.055-.11.072-.19.215-.08.135-.12.317-.04.183-.04.373v2.43q0 .317.072.475.08.151.35.167v.175l-2.072.008v-.302l.341.024q.23-.008.365-.088.135-.079.135-.325v-3.032q0-.175-.079-.286-.08-.111-.19-.175-.112-.071-.23-.095-.12-.024-.2-.024l.128-.015-.302.015V39.4l1.683-.08v.421q.27-.516.865-.516.341 0 .643.23.31.223.46.723.112-.334.35-.524.238-.199.619-.19.214 0 .428.11.223.112.397.35.175.238.286.619.111.38.111.92zM73.542 44.496l.294.016-.016.135-1.524-.08.024-.532q-.032.04-.104.096-.071.047-.19.095-.111.048-.27.08-.15.031-.365.031-.397 0-.706-.127-.302-.135-.508-.365-.207-.23-.31-.54-.103-.317-.103-.69 0-.469.127-.794.135-.333.349-.54.214-.206.484-.301.27-.104.54-.104.206 0 .397.056.19.048.35.143.158.095.277.23.119.135.175.302l.023-.421q.024-.445.016-.794-.008-.357-.08-.603-.07-.254-.221-.381-.151-.135-.405-.135t-.437.095q-.182.095-.27.357-.055.19 0 .381.064.19.358.286l-.032.167-.937-.294h-.032v-.016q.096-.405.254-.65.167-.255.35-.39.182-.134.373-.182.198-.048.365-.048.476 0 .786.167.317.167.492.46.182.286.238.675.055.381.032.818v.015l-.175 2.898q-.008.246.127.357.143.119.286.127zm-1.826-.62q.278 0 .421-.063.143-.063.206-.119l.088-1.452q-.103.182-.286.262-.183.079-.373.063-.286-.016-.429-.183-.143-.174-.127-.428.008-.183.12-.262.118-.087.27-.087.126 0 .245.063.12.064.183.19-.087-.007-.167.008-.063.016-.127.048-.055.032-.087.12-.04.102.024.166.071.055.166.055.112 0 .223-.087.11-.095.127-.302.016-.214-.16-.365-.174-.158-.452-.158-.293 0-.492.19-.19.183-.285.468-.096.278-.088.612.008.325.12.61.118.279.333.47.222.182.547.182zM77.836 41.607q-.262.015-.413.135-.142.11-.142.34 0 .437-.151.755-.143.317-.373.516-.223.19-.5.278-.278.079-.548.055-.325 0-.659-.135-.325-.143-.587-.452-.262-.318-.429-.818-.159-.508-.143-1.238 0-.492.135-.905.143-.42.405-.722.27-.31.65-.484.39-.175.882-.175.413 0 .683.167.27.166.404.42.143.246.16.532.015.286-.08.524-.095.238-.302.389-.198.15-.484.12-.159-.017-.286-.08-.119-.072-.206-.159-.08-.095-.12-.206-.039-.112-.031-.207.008-.087.04-.174.04-.088.11-.16.072-.079.175-.118.112-.048.254-.032.16.016.262.103.104.08.135.183.04.103.008.214-.024.111-.119.19-.008-.079-.032-.142-.023-.056-.063-.103-.04-.048-.12-.056-.094-.016-.142.048-.048.055-.04.135.016.079.088.15.079.072.23.088.135.008.23-.096.095-.11.135-.277.04-.175.024-.373-.008-.207-.088-.381-.079-.175-.23-.286-.143-.12-.373-.12-.182 0-.38.096-.2.087-.374.302-.175.206-.302.555-.127.342-.174.85-.056.603 0 1.055.063.453.206.754.151.294.365.445.223.15.485.159.127.015.27-.048.15-.064.27-.19.126-.136.206-.326.079-.19.071-.42-.008-.088-.055-.183-.04-.103-.143-.183-.104-.08-.294-.127-.183-.055-.484-.055l-.405.015v-.293l2.5-.04-.008.183z" style="stroke-width:.352778" transform="translate(0 -.104)"/><path d="M78.725 38.757q-.206 0-.349-.143t-.143-.35q0-.205.143-.348t.35-.143q.206 0 .34.143.143.143.143.349t-.142.35q-.135.142-.342.142zm-.278 1.397q0-.175-.079-.286-.08-.119-.198-.182-.112-.064-.23-.088-.12-.031-.191-.031l-.175.008V39.4l2.564-.143v.175l-.373.023q-.206.024-.357.127-.143.104-.143.35v2.762q0 .31.095.492.103.175.437.214l.373.032v.175l-2.564-.088v-.301l.254.024q.286 0 .437-.072.15-.08.15-.341z" style="stroke-width:.352778" transform="translate(0 -.104)"/><path d="M83.44 41.273q.206.603.15 1.056-.055.452-.269.754-.206.294-.524.444-.31.143-.627.143-.325.024-.667-.079-.341-.111-.635-.397-.285-.286-.492-.77-.206-.492-.262-1.222 0-.492.12-.945.126-.452.372-.794.246-.34.62-.54.38-.206.889-.206.388 0 .65.16.27.158.413.396.143.23.167.508.032.278-.048.516-.08.23-.27.389t-.484.159q-.15 0-.286-.056-.127-.056-.214-.143t-.143-.19q-.047-.104-.047-.199 0-.087.023-.174.032-.096.088-.175.063-.08.166-.127.104-.056.246-.056.167 0 .27.072.111.071.16.174.047.096.03.207-.015.111-.11.198-.016-.08-.048-.135-.024-.055-.071-.095-.04-.04-.12-.04-.095-.007-.142.056-.04.063-.024.143.024.071.103.135.08.063.23.063.135 0 .223-.11.095-.112.127-.27.04-.167.015-.358-.023-.198-.119-.357-.095-.167-.262-.278-.166-.111-.42-.111-.238 0-.437.103-.19.103-.333.334-.143.23-.222.587-.072.357-.072.873 0 .611.111 1.056.111.436.302.722.19.286.436.413t.508.11q.135 0 .262-.078.135-.08.23-.223.104-.15.151-.349.048-.198.008-.437 0 .008-.008 0V42.1q-.047-.167-.15-.294-.104-.135-.31-.135-.087 0-.183.024l-.055-.159zM89.774 41.583q0 .389-.095.841-.087.453-.294.842-.206.38-.54.642-.333.254-.81.254-.325.024-.666-.103-.333-.135-.611-.436-.278-.302-.46-.778-.175-.484-.175-1.159 0-.405.111-.818.111-.42.333-.754.23-.333.58-.547.357-.215.833-.215.381 0 .707.167.325.159.563.452.246.294.381.707.143.405.143.905zm-1.04-.532q.008-.23-.031-.476-.04-.246-.135-.453-.088-.206-.23-.341-.135-.135-.326-.135-.127 0-.27.095-.135.088-.254.278-.119.19-.206.5-.087.302-.111.73.047-.127.166-.222.12-.103.326-.103.167 0 .27.071.11.072.158.175.048.095.032.214-.016.111-.11.199-.017-.08-.049-.135-.023-.056-.071-.095-.048-.048-.127-.048-.095-.008-.135.103-.04.103-.008.23t.127.238q.103.104.286.104.325 0 .508-.246.182-.254.19-.683zm-.722 2.786q.326 0 .476-.405.151-.405.207-1.087-.135.055-.302.087-.159.032-.357.016-.333-.032-.564-.222-.23-.199-.31-.5.017 1.127.215 1.619.199.492.635.492zM91.767 38.567q-.199.015-.31.134-.103.112-.15.294-.04.183-.033.42.008.239.032.5l.032.461 1.103-.095.024.325-1.095.088.285 3.373q.016.199.072.31.055.119.143.174.095.056.214.064.127.016.278.016l.016.174-2.39.199-.023-.302.38-.016q.239-.031.342-.15.103-.12.08-.358l-.286-3.413-.612.056-.031-.318.61-.047q-.03-.437-.007-.818.032-.389.159-.683.135-.301.397-.484.262-.19.69-.222.357-.032.603.08.254.11.405.285.159.167.238.365.08.199.088.342l-.643.301q-.016-.19-.04-.38-.024-.2-.087-.35-.056-.159-.175-.246-.111-.095-.31-.08zM97.656 42.599q0-.23.151-.35.159-.126.365-.126.12 0 .238.047.12.048.215.151.103.103.158.262.064.159.064.373 0 .254-.095.452-.088.199-.239.334-.142.135-.34.206-.191.072-.406.072-.262 0-.524-.112-.262-.11-.476-.349-.206-.238-.341-.603-.127-.373-.127-.881v-2.77l-.73.016-.024-.334.754-.008v-1.04l.968-.047v1.071l1.04-.007.024.293-1.064.032v2.881q0 .62.159.977.167.349.54.349.198 0 .365-.183.174-.19.174-.524 0-.182-.087-.262-.08-.079-.174-.079-.088 0-.151.056-.056.055-.056.143 0 .071.04.119.047.047.095.079.056.04.135.056-.119.119-.27.119-.15 0-.27-.104-.11-.11-.11-.31z" style="stroke-width:.352778" transform="translate(0 -.104)"/><path d="M102.784 44.345q.214 0 .333.095.127.103.175.254.047.151.008.326-.032.182-.135.333-.103.15-.278.246-.175.103-.42.103-.437 0-.652-.246-.206-.246-.277-.65-.072-.405-.04-.921.04-.524.111-1.056.071-.54.135-1.056.064-.524.048-.928-.008-.405-.143-.651-.127-.246-.453-.246-.19 0-.317.079-.127.071-.207.19-.071.12-.103.262-.032.143-.047.286v2.342q0 .246.031.38.032.136.112.207.079.064.198.08.127.015.318.031v.167h-2.39v-.294l.381.016q.246-.016.35-.127.11-.111.11-.357v-5.318q0-.175-.079-.286-.079-.111-.19-.175-.111-.063-.23-.087-.12-.024-.19-.024h-.183v-.182h2.35v.182q-.088 0-.191.024-.104.016-.19.072-.088.047-.152.15-.055.096-.055.254v2.032q.404-.523 1.063-.523.524.007.762.27.246.261.302.69.063.429-.016.976-.08.548-.206 1.12-.12.563-.246 1.11-.12.54-.143.97-.016.428.103.682.127.262.492.262.198 0 .325-.127t.151-.286q.032-.15-.047-.286-.08-.127-.294-.127-.127 0-.19.048-.064.055-.072.119-.008.071.032.119.04.055.127.055.063 0 .095-.04.032-.031.048-.07.015-.048.023-.112.072.064.096.143.023.087 0 .167-.024.087-.096.143-.063.055-.174.055-.215 0-.318-.135-.103-.135-.095-.301.016-.16.143-.294.135-.135.397-.135zM105.197 42.329q-.175 0-.342-.04-.158-.047-.301-.127-.135-.08-.238-.198-.095-.127-.143-.278.016.571.095.984.087.405.23.667.143.254.326.381.19.119.413.119.182 0 .317-.087.143-.096.238-.246.095-.16.143-.358.056-.198.056-.412l.603-.103q0 .388-.12.682-.118.286-.317.476-.19.19-.444.286-.246.087-.524.087-.326.024-.69-.103-.358-.135-.667-.436-.302-.302-.5-.778-.199-.484-.199-1.159 0-.405.12-.818.126-.42.364-.754.246-.333.604-.547.365-.215.84-.215.477 0 .818.223.342.222.532.555.19.326.223.715.031.38-.112.714-.142.325-.468.548-.325.222-.857.222zm-1.016-1.08q.047-.135.166-.23.12-.095.326-.095.167 0 .27.071.11.072.159.175.047.095.031.214-.016.111-.11.199-.017-.08-.048-.135-.032-.056-.08-.095-.04-.048-.119-.048-.095-.008-.127.103-.024.103.024.23t.175.238q.127.104.34.104.247 0 .406-.175.166-.175.246-.429.08-.262.071-.563 0-.302-.087-.556-.08-.262-.246-.436-.167-.175-.413-.175-.127 0-.286.095-.158.088-.301.278-.143.19-.254.5-.111.302-.143.73zM111.285 42.599q0-.23.15-.35.16-.126.366-.126.119 0 .238.047.119.048.214.151.103.103.159.262.063.159.063.373 0 .254-.095.452-.087.199-.238.334-.143.135-.341.206-.19.072-.405.072-.262 0-.524-.112-.262-.11-.476-.349-.207-.238-.342-.603-.127-.373-.127-.881v-2.77l-.73.016-.024-.334.754-.008v-1.04l.969-.047v1.071l1.04-.007.023.293-1.063.032v2.881q0 .62.159.977.166.349.54.349.198 0 .364-.183.175-.19.175-.524 0-.182-.087-.262-.08-.079-.175-.079-.087 0-.15.056-.056.055-.056.143 0 .071.04.119.047.047.095.079.055.04.135.056-.12.119-.27.119-.151 0-.27-.104-.111-.11-.111-.31zM114.682 42.329q-.175 0-.341-.04-.159-.047-.302-.127-.135-.08-.238-.198-.095-.127-.143-.278.016.571.095.984.088.405.23.667.144.254.326.381.19.119.413.119.182 0 .317-.087.143-.096.238-.246.096-.16.143-.358.056-.198.056-.412l.603-.103q0 .388-.119.682-.119.286-.317.476-.19.19-.445.286-.246.087-.524.087-.325.024-.69-.103-.358-.135-.667-.436-.302-.302-.5-.778-.199-.484-.199-1.159 0-.405.12-.818.126-.42.365-.754.246-.333.603-.547.365-.215.841-.215t.818.223q.341.222.532.555.19.326.222.715.032.38-.111.714-.143.325-.469.548-.325.222-.857.222zm-1.016-1.08q.048-.135.167-.23.119-.095.325-.095.167 0 .27.071.111.072.159.175.047.095.032.214-.016.111-.111.199-.016-.08-.048-.135-.032-.056-.08-.095-.04-.048-.119-.048-.095-.008-.127.103-.023.103.024.23.048.127.175.238.127.104.341.104.246 0 .405-.175.167-.175.246-.429.08-.262.071-.563 0-.302-.087-.556-.08-.262-.246-.436-.167-.175-.413-.175-.127 0-.285.095-.16.088-.302.278-.143.19-.254.5-.111.302-.143.73zM118.818 38.257q.396 0 .666.175.27.166.413.428.15.254.167.556.024.294-.103.555-.12.254-.381.43-.254.166-.667.166-.246 0-.381-.135-.127-.143-.143-.31-.016-.166.08-.301.095-.143.293-.143.127 0 .206.095.08.087.056.206-.024-.023-.048-.04-.055-.039-.119-.039-.04 0-.08.024-.047.032-.063.087-.016.048 0 .103.024.056.072.096.055.04.15.04.128 0 .215-.112.087-.119.127-.286.04-.174.024-.373-.008-.206-.088-.373-.079-.174-.238-.285-.15-.12-.38-.12-.247 0-.398.112-.15.11-.238.285-.087.167-.119.381-.032.207-.032.405v2.135q0 .318.175.477.183.158.46.174v.167l-2.222.008v-.302l.325.016q.215-.016.326-.087.119-.08.119-.31v-2.968q0-.175-.087-.286-.08-.12-.19-.183-.112-.063-.239-.087-.12-.032-.19-.032l-.167.008v-.167l1.69-.095v.5q.16-.278.413-.436.262-.16.596-.16zM125.985 42.9q.008.278.095.39.096.11.246.118h.207v.246l-2.08.008v-.301l.103.008q.239.008.342-.08.103-.087.103-.357.008-.317.008-.706 0-.39-.016-.746v-.04q0-.286-.024-.556-.016-.278-.071-.492-.056-.214-.159-.341-.103-.135-.27-.135-.159 0-.262.119-.103.111-.166.286-.056.174-.088.389-.032.206-.047.396 0 .016-.008.024v.199l-.064.682v.008q-.016.326.087.453.112.127.334.135l-.008.182-2.032-.071.008-.183h.071q.064 0 .143-.016.087-.024.167-.071.08-.056.135-.135.063-.087.087-.206l.08-.897q.023-.286.015-.548 0-.27-.047-.484-.048-.215-.151-.35-.103-.142-.278-.166-.15-.024-.27.055-.11.072-.19.215-.08.135-.12.317-.039.183-.039.373v2.43q0 .317.071.475.08.151.35.167v.175l-2.072.008v-.302l.341.024q.23-.008.365-.088.135-.079.135-.325v-3.032q0-.175-.08-.286-.079-.111-.19-.175-.11-.071-.23-.095-.119-.024-.198-.024l.127-.015-.302.015V39.4l1.683-.08v.421q.27-.516.865-.516.341 0 .643.23.31.223.46.723.112-.334.35-.524.238-.199.619-.19.214 0 .428.11.223.112.397.35.175.238.286.619.111.38.111.92zM127.668 38.757q-.207 0-.35-.143-.142-.143-.142-.35 0-.205.143-.348.142-.143.349-.143.206 0 .341.143.143.143.143.349t-.143.35q-.135.142-.341.142zm-.278 1.397q0-.175-.08-.286-.079-.119-.198-.182-.11-.064-.23-.088-.12-.031-.19-.031l-.175.008V39.4l2.564-.143v.175l-.373.023q-.207.024-.358.127-.142.104-.142.35v2.762q0 .31.095.492.103.175.436.214l.373.032v.175l-2.563-.088v-.301l.254.024q.285 0 .436-.072.151-.08.151-.341z" style="stroke-width:.352778" transform="translate(0 -.104)"/><path d="M132.573 43.527q-.016.302.103.445.12.143.334.159l-.008.182-2.024-.071.008-.183h.071q.135.008.294-.08.166-.094.206-.348l.103-2.024v-.08q0-.04.008-.08.024-.285.016-.555-.008-.27-.055-.484-.048-.214-.151-.35-.095-.142-.27-.166-.15-.016-.27.064-.119.071-.198.214-.072.135-.111.317-.04.183-.04.373v1.5q0 .318.103.509.103.182.381.198l.15.008v.175l-2.15-.072v-.222l.278.016q.206-.016.31-.095.11-.088.11-.31v-2.175q0-.198-.071-.317-.064-.12-.175-.183-.103-.063-.23-.08-.127-.015-.238-.007l-.159.008v-.175l1.69-.087v.42q.27-.508.866-.508.246 0 .476.12.23.11.405.365.175.246.262.635.095.389.056.936zM136.93 44.496l.295.016-.016.135-1.524-.08.023-.532q-.031.04-.103.096-.071.047-.19.095-.111.048-.27.08-.15.031-.365.031-.397 0-.707-.127-.301-.135-.508-.365-.206-.23-.31-.54-.102-.317-.102-.69 0-.469.127-.794.135-.333.349-.54.214-.206.484-.301.27-.104.54-.104.206 0 .397.056.19.048.349.143.159.095.278.23.119.135.174.302l.024-.421q.024-.445.016-.794-.008-.357-.08-.603-.07-.254-.222-.381-.15-.135-.404-.135t-.437.095q-.183.095-.27.357-.055.19 0 .381.064.19.357.286l-.031.167-.937-.294h-.032v-.016q.096-.405.254-.65.167-.255.35-.39.182-.134.373-.182.198-.048.365-.048.476 0 .786.167.317.167.492.46.182.286.238.675.055.381.032.818v.015l-.175 2.898q-.008.246.127.357.143.119.286.127zm-1.825-.62q.278 0 .421-.063.143-.063.206-.119l.088-1.452q-.104.182-.286.262-.183.079-.373.063-.286-.016-.429-.183-.143-.174-.127-.428.008-.183.12-.262.118-.087.27-.087.126 0 .245.063.12.064.183.19-.088-.007-.167.008-.063.016-.127.048-.056.032-.087.12-.04.102.024.166.071.055.166.055.111 0 .222-.087.112-.095.127-.302.016-.214-.158-.365-.175-.158-.453-.158-.293 0-.492.19-.19.183-.286.468-.095.278-.087.612.008.325.12.61.118.279.333.47.222.182.547.182z" style="stroke-width:.352778" transform="translate(0 -.104)"/><path d="M138.526 43.178q0 .199.048.318t.135.19q.087.064.206.088.12.023.27.031v.167h-2.39v-.294l.374.016q.246-.016.357-.127.111-.111.111-.357v-5.318q0-.175-.08-.286-.078-.111-.19-.175-.11-.063-.23-.087-.119-.024-.198-.024h-.175v-.182h2.35v.182q-.088 0-.19.024-.104.016-.191.072-.088.047-.151.15-.056.096-.056.254z" style="stroke-width:.352778" transform="translate(0 -.104)"/></g></g></svg>