<?xml version="1.0" encoding="UTF-8" standalone="no"?>
<!-- Created with Inkscape (http://www.inkscape.org/) -->

<svg
   width="150mm"
   height="70mm"
   viewBox="0 0 150 70"
   version="1.1"
   id="svg5"
   inkscape:version="1.2.1 (9c6d41e410, 2022-07-14)"
   sodipodi:docname="dotfile_logo_light.svg"
   xml:space="preserve"
   xmlns:inkscape="http://www.inkscape.org/namespaces/inkscape"
   xmlns:sodipodi="http://sodipodi.sourceforge.net/DTD/sodipodi-0.dtd"
   xmlns="http://www.w3.org/2000/svg"
   xmlns:svg="http://www.w3.org/2000/svg"><sodipodi:namedview
     id="namedview7"
     pagecolor="#ffffff"
     bordercolor="#000000"
     borderopacity="0.25"
     inkscape:showpageshadow="2"
     inkscape:pageopacity="0.0"
     inkscape:pagecheckerboard="0"
     inkscape:deskcolor="#d1d1d1"
     inkscape:document-units="mm"
     showgrid="false"
     inkscape:zoom="1.829812"
     inkscape:cx="228.16551"
     inkscape:cy="191.82298"
     inkscape:window-width="2560"
     inkscape:window-height="1369"
     inkscape:window-x="1912"
     inkscape:window-y="-8"
     inkscape:window-maximized="1"
     inkscape:current-layer="layer1" /><defs
     id="defs2" /><g
     inkscape:label="Ebene 1"
     inkscape:groupmode="layer"
     id="layer1"
     style="display:inline"><rect
       style="fill:#eff1f5;fill-opacity:1;stroke:none;stroke-width:3.19816;stroke-linecap:round;stroke-linejoin:round;stroke-dasharray:none"
       id="rect3990"
       width="150"
       height="50"
       x="-2.9976022e-15"
       y="-1.7763568e-15"
       rx="2"
       ry="2" /><path
       d="m 29.120083,11.559432 -0.09605,0.280572 c -0.120837,0.34903 -0.198154,0.424001 -0.548506,0.545976 l -0.280571,0.09858 0.227491,0.05055 c 0.245789,0.05454 0.578835,0.39678 0.578835,0.594003 0,0.06774 0.02495,0.146325 0.05309,0.174408 0.02811,0.0281 0.06913,-0.02487 0.09353,-0.116268 0.08667,-0.324111 0.218875,-0.485355 0.495422,-0.609168 0.263077,-0.117782 0.270089,-0.12948 0.111221,-0.169353 -0.293633,-0.07369 -0.534963,-0.314615 -0.58642,-0.588947 z"
       style="fill:#40a02b;fill-opacity:1;stroke-width:0.0541771"
       id="path6987" /><path
       d="m 10.519589,7.2725677 -0.208291,-0.04956 C 10.052093,7.1603877 9.9928534,7.1100257 9.8808914,6.8667157 l -0.09031,-0.194786 -0.02054,0.166988 c -0.02214,0.180414 -0.244979,0.443494 -0.386709,0.457177 -0.04867,0.0047 -0.103423,0.02808 -0.121652,0.05025 -0.01824,0.02215 0.02266,0.04795 0.09004,0.05914 0.238927,0.03979 0.363973,0.123617 0.472135,0.313761 0.102894,0.180883 0.111786,0.18511 0.129419,0.06818 0.03259,-0.216125 0.1889756,-0.406266 0.3825476,-0.462277 z"
       style="fill:#40a02b;fill-opacity:1;stroke-width:0.0391142"
       id="path6987-4" /><path
       d="m 27.901827,15.635385 0.04366,-0.209608 c 0.05527,-0.260871 0.10394,-0.321511 0.343988,-0.440303 l 0.192156,-0.09578 -0.167502,-0.01581 c -0.180967,-0.01703 -0.450239,-0.23235 -0.467921,-0.373637 -0.0061,-0.04852 -0.03099,-0.102588 -0.05367,-0.120183 -0.02266,-0.01761 -0.04729,0.02401 -0.05657,0.09167 -0.03302,0.239956 -0.113283,0.367321 -0.300295,0.480812 -0.177903,0.107965 -0.181877,0.116972 -0.0645,0.131294 0.216959,0.02647 0.411443,0.177421 0.472902,0.369333 z"
       style="fill:#40a02b;fill-opacity:1;stroke-width:0.0391142"
       id="path6987-4-1" /><path
       id="path328-2"
       style="fill:#7287fd;fill-opacity:1;stroke-width:0.0541771"
       transform="matrix(1.2941663,0,0,1.2941663,98.277062,-45.922777)"
       d="m -57.806641,37.8125 c -0.469263,-0.03667 -0.584345,-0.0044 -2.302734,0.669922 -0.566149,0.222151 -1.382393,0.536537 -1.814453,0.699219 -0.432067,0.162684 -0.938114,0.396 -1.125,0.517578 -0.43521,0.283117 -1.179283,1.02949 -1.416016,1.421875 -0.234219,0.388267 -0.275733,0.628888 -0.220703,1.271484 0.02449,0.285626 0.04066,0.520938 0.03516,0.523438 -0.0053,0.0025 -0.335927,0.07193 -0.734375,0.154296 -0.767096,0.158578 -1.677135,0.440545 -1.970703,0.611329 -0.127922,0.07442 -0.179576,0.148409 -0.191406,0.267578 -0.01405,0.141651 0.0345,0.212733 0.353516,0.513672 0.570957,0.538612 1.620027,1.025074 2.070312,0.958984 0.09111,-0.01337 0.166016,-10e-4 0.166016,0.0293 0,0.147904 -0.248257,0.917682 -0.404297,1.253906 -0.492005,1.060145 -1.117197,1.480675 -1.734375,1.166016 -0.268267,-0.136766 -0.30735,-0.09922 -0.109375,0.107422 0.266575,0.278246 0.701429,0.342811 1.099609,0.162109 0.713143,-0.323634 1.334322,-1.437849 1.550781,-2.78125 0.0425,-0.263956 0.0865,-0.486441 0.0957,-0.494141 0.0092,-0.0077 0.106213,-0.0308 0.216796,-0.05078 0.200773,-0.03629 0.200098,-0.0356 0.148438,0.115235 -0.02847,0.08308 -0.08571,0.355382 -0.128906,0.605468 -0.08857,0.51265 -0.368454,1.146349 -0.769532,1.744141 -0.138519,0.206475 -0.239739,0.389167 -0.224609,0.404297 0.05485,0.05485 0.60252,-0.492797 0.861328,-0.861328 0.145825,-0.207656 0.264937,-0.367589 0.265625,-0.355469 7.78e-4,0.01212 0.06011,0.192697 0.13086,0.400391 l 0.128906,0.376953 -0.203125,0.335937 c -0.796477,1.320569 -0.712264,3.134612 0.220703,4.761719 0.319716,0.557579 0.569869,0.903388 1.134766,1.568359 0.227817,0.268177 0.517335,0.646161 0.642578,0.839844 0.125261,0.193689 0.210363,0.291287 0.189453,0.216797 -0.07399,-0.263304 -0.357114,-0.766812 -0.835938,-1.490235 -0.800543,-1.209471 -1.11973,-1.85486 -1.341797,-2.707031 -0.361609,-1.387668 -0.06252,-2.633515 0.876954,-3.644531 0.461241,-0.496365 0.748995,-0.633802 1.330078,-0.634766 0.399466,-6.59e-4 0.503394,0.01982 0.78125,0.15625 0.782134,0.38403 1.666365,1.583868 1.93164,2.621094 0.342307,1.33841 0.091,2.754507 -0.761718,4.28711 -0.561498,1.009173 -0.899209,2.031708 -0.949219,2.875 -0.03019,0.509173 -0.0241,0.503263 0.244141,-0.371094 0.225086,-0.733687 0.502895,-1.372072 0.90625,-2.072266 0.451191,-0.783261 0.627801,-1.145675 0.789062,-1.61914 0.563342,-1.653898 0.399103,-3.230421 -0.484375,-4.648438 l -0.244141,-0.394531 0.06445,-0.273438 c 0.08598,-0.358388 0.124933,-0.315758 0.503906,0.548828 0.553023,1.26168 0.740234,2.06697 0.740234,3.179688 0,1.172494 -0.174804,1.973881 -0.779297,3.552734 -0.423523,1.106178 -0.695835,1.916747 -0.816406,2.433594 -0.08242,0.353321 -0.03575,0.423397 0.07422,0.111328 0.03938,-0.111741 0.396185,-0.934202 0.791015,-1.828125 0.394823,-0.893923 0.758001,-1.748811 0.806641,-1.898437 0.07006,-0.215339 0.236436,-0.971543 0.253906,-1.154297 0.0077,-0.08012 0.108946,0.239941 0.212891,0.669922 0.275681,1.140408 0.306069,1.59 0.349609,5.146484 0.106001,8.660418 0.177684,11.659261 0.285156,11.923828 0.09076,0.223447 0.112594,-0.614563 0.113282,-4.339844 0.0017,-6.137483 -0.07228,-11.053923 -0.175782,-11.703125 -0.136104,-0.853652 -0.29829,-1.529345 -0.496093,-2.0625 -0.138986,-0.374606 -0.196218,-0.636555 -0.236328,-1.09375 -0.02901,-0.330533 -0.09093,-0.751425 -0.138672,-0.935547 -0.04769,-0.184121 -0.07806,-0.341862 -0.06836,-0.351562 0.0097,-0.0097 0.16166,0.07443 0.339844,0.1875 0.178192,0.113064 0.694963,0.414615 1.148438,0.669922 0.453481,0.255306 0.955589,0.550284 1.115234,0.65625 0.728868,0.483796 1.352623,1.356146 1.802734,2.523437 0.632725,1.640888 0.841607,3.034741 0.941407,6.285157 0.113093,3.683388 0.203623,5.585615 0.277343,5.769531 0.08041,0.201065 0.07557,-6.619855 -0.0059,-7.800781 -0.138505,-2.008563 -0.470961,-3.554444 -1.035156,-4.808594 -0.601617,-1.337313 -1.126785,-1.941849 -2.31836,-2.667969 l -0.294922,-0.179687 0.191407,-0.08008 c 0.180578,-0.07545 0.425781,-0.320356 0.425781,-0.425782 0,-0.02654 -0.07224,-0.01226 -0.160156,0.0332 -0.24084,0.124541 -0.61459,0.103942 -0.919922,-0.05078 -0.271149,-0.137403 -0.75003,-0.648431 -1.675781,-1.787109 -0.556841,-0.684918 -0.780567,-1.113234 -0.982422,-1.88086 -0.186248,-0.708302 -0.174451,-0.640625 -0.119141,-0.640625 0.107982,0 0.434687,0.372337 0.498047,0.56836 0.204676,0.633532 0.63182,1.241931 1.023437,1.455078 0.205625,0.111914 0.339563,0.144531 0.59961,0.144531 0.184162,0 0.381803,-0.02579 0.439453,-0.05664 0.151986,-0.08132 0.127745,0.01302 -0.04492,0.177735 -0.316311,0.301759 -0.670825,0.333484 -1.119141,0.09766 -0.168069,-0.08841 -0.289178,-0.131963 -0.267578,-0.0957 0.241576,0.405589 1.137821,1.210383 1.613282,1.449219 0.498684,0.250506 1.058992,0.197871 1.226562,-0.115235 0.07614,-0.142273 0.03688,-0.18256 -0.103516,-0.107422 -0.145901,0.07813 -0.561489,0.07514 -0.75,-0.0059 -0.150095,-0.06449 -0.9375,-0.582967 -0.9375,-0.617187 10e-7,-0.0098 0.08739,-0.05908 0.19336,-0.109375 0.389285,-0.184726 0.677522,-0.782255 0.669922,-1.388672 l -0.0039,-0.339844 -0.08203,0.228516 c -0.119657,0.337849 -0.394588,0.55664 -0.699218,0.55664 -0.492309,0 -0.871552,-0.324874 -1.269532,-1.089843 -0.159245,-0.306073 -0.203043,-0.433139 -0.152344,-0.449219 0.03891,-0.01234 0.167921,-0.05371 0.28711,-0.08984 0.836995,-0.253707 1.832927,-1.124704 1.658203,-1.451172 -0.103215,-0.192861 -1.035913,-0.528576 -2.066406,-0.744141 -0.252355,-0.05279 -0.466563,-0.100221 -0.476563,-0.107421 -0.01,-0.0072 0.131192,-0.309659 0.3125,-0.671875 0.275863,-0.551041 0.328125,-0.705396 0.328125,-0.939454 0,-0.274841 -0.0052,-0.28615 -0.367187,-0.632812 -0.338084,-0.323791 -1.512128,-1.191406 -1.611328,-1.191406 -0.02333,0 0.314639,0.362769 0.75,0.80664 0.435362,0.443869 0.806118,0.86523 0.824218,0.9375 0.01902,0.07577 -0.01187,0.249294 -0.07227,0.408204 -0.102251,0.269105 -0.5922,1.207031 -0.63086,1.207031 -0.01069,0 -0.161392,-0.138131 -0.333984,-0.306641 -0.682978,-0.666793 -1.990843,-1.356859 -2.865234,-1.511719 -0.293252,-0.05194 -0.243704,-0.01746 0.318359,0.222657 0.264167,0.112853 0.689971,0.336548 0.947266,0.498046 0.499936,0.313818 1.30324,0.93151 1.30664,1.00586 0.0012,0.02471 -0.162148,0.02637 -0.363281,0.0039 -0.553016,-0.06175 -2.463734,-0.046 -3.070313,0.02539 -0.294881,0.03468 -0.548633,0.05094 -0.564453,0.03516 -0.01582,-0.01578 -0.03939,-0.29244 -0.05273,-0.615234 -0.03016,-0.731978 0.004,-0.813183 0.621094,-1.46875 0.615073,-0.653395 1.001489,-0.896634 2.048828,-1.292969 0.476754,-0.180416 1.330328,-0.50978 1.896484,-0.730469 1.463495,-0.570506 1.558853,-0.598083 1.929688,-0.564453 0.28378,0.02573 2.07593,0.59602 2.669922,0.849609 l 0.222656,0.0957 -1.052735,0.03906 -1.054687,0.04102 -0.339844,0.326171 -0.33789,0.326172 -0.259766,-0.228515 c -0.297964,-0.262572 -0.709522,-0.51703 -0.757813,-0.46875 -0.01806,0.01806 0.07498,0.149018 0.207032,0.291015 0.132045,0.141998 0.310574,0.351349 0.396484,0.464844 0.135815,0.179413 0.383903,0.361328 0.492188,0.361328 0.01928,0 0.198247,-0.155044 0.396484,-0.345703 l 0.359375,-0.347656 1.166016,-0.0625 c 2.422561,-0.131121 2.728159,-0.215344 1.787109,-0.490235 -0.223476,-0.06528 -0.966999,-0.320685 -1.652344,-0.568359 -1.563917,-0.565183 -1.748317,-0.619153 -2.248047,-0.658203 z m -2.539062,5.400391 c 1.15557,0.114904 2.451797,0.389172 3.056641,0.648437 l 0.259765,0.113281 -0.261719,0.265625 c -0.281399,0.285693 -0.693296,0.52559 -1.15625,0.675782 l -0.289062,0.09375 -0.144531,-0.134766 c -0.16962,-0.157901 -0.717239,-0.381596 -1.28711,-0.527344 -1.280818,-0.327579 -2.943692,-0.271937 -4.255859,0.142578 -0.351154,0.110928 -0.452513,0.169482 -0.595703,0.347657 -0.193848,0.241219 -0.230981,0.246921 -0.628907,0.105468 -0.639176,-0.227209 -1.494033,-0.812575 -1.402343,-0.960937 0.113554,-0.183731 1.880179,-0.604862 3.126953,-0.744141 0.843531,-0.09423 2.754352,-0.1073 3.578125,-0.02539 z m -11.644531,1.523437 c 0.150886,0.391285 0.152461,0.915628 0.0059,1.238281 -0.06092,0.134088 -0.278729,0.452992 -0.486328,0.708985 -0.421446,0.519685 -0.558306,0.801661 -0.597656,1.240234 -0.03559,0.396739 0.127582,0.829763 0.449218,1.1875 0.290679,0.3233 0.52191,0.472198 0.933594,0.605469 0.369054,0.119513 0.904297,0.118678 0.904297,-0.002 0,-0.05314 -0.106135,-0.09788 -0.326172,-0.138672 -0.947179,-0.175567 -1.605791,-0.800355 -1.61914,-1.53711 -0.0084,-0.46453 0.0454,-0.575446 0.527343,-1.083984 0.582027,-0.614145 0.702705,-0.866376 0.677735,-1.416016 -0.01574,-0.346256 -0.04556,-0.455424 -0.181641,-0.673828 -0.08939,-0.143463 -0.21617,-0.297093 -0.28125,-0.339843 -0.200708,-0.199195 -0.04531,0.109337 -0.0059,0.210984 z m 8.779296,-0.15039 c 0.840827,-0.169987 2.169358,-0.108668 3.132813,0.144531 0.176859,0.04648 0.199752,0.07473 0.257813,0.326172 0.08767,0.379703 0.0792,0.997438 -0.01953,1.466797 -0.04553,0.216301 -0.09021,0.400756 -0.09961,0.410156 -0.0094,0.0094 -0.09609,-0.05734 -0.191406,-0.148438 -0.277925,-0.265601 -0.65461,-0.481671 -1.054688,-0.603515 -0.730485,-0.222473 -1.578694,-0.03646 -2.115234,0.464843 -0.245167,0.22906 -0.248453,0.226913 -0.416016,-0.292968 -0.12958,-0.402058 -0.1565,-1.088107 -0.05664,-1.44336 l 0.0625,-0.222656 z m -7.050781,2.232421 c -0.354759,-0.220834 -0.415043,-0.202398 -0.138672,0.04102 0.149801,0.131932 0.343181,0.371316 0.431641,0.53125 0.140895,0.254793 0.161903,0.343522 0.162109,0.726563 2e-4,0.385784 -0.01766,0.464292 -0.148437,0.662109 -0.08177,0.12366 -0.132914,0.260511 -0.115234,0.306641 0.04795,0.124943 0.109072,0.103301 0.253906,-0.0918 0.180581,-0.243228 0.253906,-0.489313 0.253906,-0.853516 0,-0.544654 -0.269601,-1.054835 -0.699219,-1.322266 z m 8.705078,0.111329 c -0.523137,-0.02442 -1.048151,0.245755 -1.515625,0.8125 -0.320989,0.389158 -0.662716,1.033912 -0.773437,1.458984 -0.175948,0.675533 -0.06109,1.514766 0.316406,2.304687 0.193608,0.40513 0.711037,1.220545 0.916016,1.44336 0.167174,0.181729 0.163172,0.149955 -0.01563,-0.140625 -0.467199,-0.759298 -0.881875,-1.880761 -0.953125,-2.576172 -0.08039,-0.784657 0.225325,-1.616974 0.826172,-2.253906 0.145267,-0.153992 0.269137,-0.138806 0.412109,-0.240235 -0.07174,-0.03084 -0.414036,0.404389 -0.585938,0.75586 -0.244947,0.500817 -0.349609,0.932891 -0.349609,1.443359 0,0.857997 0.275277,1.665972 1.154297,3.404297 0.278757,0.551253 0.586727,1.229268 0.685547,1.505859 0.09883,0.27659 0.188266,0.495428 0.197265,0.486328 0.02832,-0.02832 -0.235604,-1.07723 -0.384765,-1.53125 -0.07832,-0.238379 -0.296497,-0.791813 -0.486328,-1.228515 -0.476279,-1.095689 -0.659822,-1.637583 -0.732422,-2.166016 -0.100924,-0.734585 0.02517,-1.505161 0.376953,-2.289062 0.08912,-0.198551 0.146217,-0.361691 0.136719,-0.386719 0.240253,-0.16812 0.492769,-0.404297 0.693359,-0.404297 0.7301,0 1.67868,1.015909 1.958984,2.097656 0.178329,0.688214 0.06887,1.788591 -0.326171,3.292969 -0.07425,0.282788 0.153627,-0.135562 0.351562,-0.646484 0.28468,-0.734827 0.395085,-1.255905 0.396485,-1.876954 0.0017,-0.852316 -0.25349,-1.589638 -0.796876,-2.3125 -0.458521,-0.609966 -0.978815,-0.928706 -1.501953,-0.953124 z m -2.93164,0.378906 c -0.03391,-0.09105 -0.496745,0.915701 -0.650391,1.416015 -0.206953,0.673894 -0.690511,1.253838 -1.34375,1.609375 l -0.291016,0.158204 0.501954,-0.552735 c 0.27622,-0.30401 0.608725,-0.71703 0.738281,-0.917969 0.216659,-0.336035 0.574219,-1.001689 0.574219,-1.068359 0,-0.01555 -0.110079,0.05633 -0.246094,0.160156 -0.485931,0.370922 -1.334357,0.463596 -1.789063,0.195313 -0.287976,-0.1699 -0.283101,-0.107407 0.0098,0.15039 0.26762,0.235568 0.548996,0.343116 0.929687,0.353516 0.126626,0.0035 0.228516,0.01808 0.228516,0.0332 1.4e-5,0.01512 -0.135426,0.185442 -0.302734,0.378906 -0.741272,0.857168 -1.153988,1.282575 -1.535156,1.582032 -0.485113,0.381108 -0.708563,0.647012 -0.958985,1.142578 -0.229599,0.454356 -0.36675,1.032384 -0.480469,2.015625 -0.04825,0.417164 -0.10443,0.880534 -0.125,1.029297 l -0.03711,0.269531 -0.121094,-0.201172 c -0.122996,-0.208465 -0.193112,-0.200868 -0.208984,-0.07031 0.034,-0.107324 -0.06292,-0.266309 0,-0.400391 0.268343,-0.571829 0.302244,-0.864534 0.140625,-1.240235 -0.06651,-0.154616 -0.143782,-0.28125 -0.169922,-0.28125 -0.02614,0 -0.04687,0.159178 -0.04687,0.353516 0,0.273433 -0.03569,0.431371 -0.15625,0.697266 -0.08569,0.188981 -0.182514,0.360859 -0.214844,0.380859 -0.07149,0.04418 -0.279297,-0.343937 -0.279297,-0.521484 0,-0.06886 0.14519,-0.339635 0.322266,-0.601563 0.388751,-0.574974 0.458405,-0.769157 0.421875,-1.171875 -0.02526,-0.278547 -0.190874,-0.713787 -0.296875,-0.779297 -0.02311,-0.0143 -0.04143,0.200696 -0.04102,0.478516 6.05e-4,0.468136 -0.05577,0.706115 -0.123046,0.515625 -0.01563,-0.04424 -0.17173,-0.217675 -0.345704,-0.384766 -0.207442,-0.199231 -0.316406,-0.347257 -0.316406,-0.429687 0,-0.06913 0.112906,-0.316936 0.25,-0.550781 0.449203,-0.766218 0.512098,-1.24369 0.240234,-1.81836 -0.0881,-0.186234 -0.1696,-0.33789 -0.18164,-0.33789 -0.01171,0 -0.01061,0.225086 0.0039,0.501953 l 0.02734,0.503906 -0.386719,0.748047 c -0.312342,0.605523 -0.386719,0.796685 -0.386719,0.996094 0,0.238708 0.01491,0.260105 0.460938,0.685547 0.253277,0.241585 0.460937,0.46304 0.460937,0.49414 0,0.0311 -0.06378,0.141511 -0.140625,0.244141 -0.503926,0.672963 -0.522381,1.237273 -0.05469,1.673828 0.11315,0.105945 0.136638,0.163719 0.111328,0.298828 -0.01983,0.105705 0.01071,0.294143 0.08398,0.505859 l 0.117188,0.335938 -0.1875,0.257812 c -0.59887,0.821602 -0.820217,1.77239 -0.601563,2.587891 0.0733,0.273245 0.08503,0.660831 0.07813,2.517578 -0.0096,2.69883 0.09501,5.64589 0.25,7.068359 0.03035,0.278391 0.04178,0.304208 0.08594,0.189454 0.03165,-0.08222 0.03897,-1.77304 0.01758,-4.427735 -0.019,-2.361446 -0.02294,-4.292969 -0.0078,-4.292969 0.01511,0 0.150479,0.1087 0.300782,0.242188 0.150303,0.133488 0.340938,0.277454 0.423828,0.320312 0.195623,0.101163 0.799493,0.211862 0.93164,0.169922 0.115049,-0.03651 0.108755,-0.05192 0.570313,1.625 1.226391,4.455667 2.319044,8.143717 2.714844,9.171875 h -0.002 c 0.106841,0.277539 0.204686,0.494542 0.216796,0.482422 0.100458,-0.100456 -0.807784,-3.61244 -1.929687,-7.460937 -1.160509,-3.980934 -1.155219,-3.964295 -1.074219,-4.015625 0.141649,-0.08976 0.205062,-0.04451 0.263672,0.183593 0.119374,0.464445 0.827754,2.83333 0.871094,2.91211 0.03757,0.06823 0.04547,0.06564 0.04687,-0.01367 0.0023,-0.130542 -0.232979,-1.337535 -0.490235,-2.513672 -0.169899,-0.776687 -0.203976,-1.011688 -0.160156,-1.126953 0.07163,-0.188409 0.07167,-0.610007 0,-0.654297 -0.03378,-0.02085 -0.04085,-0.138043 -0.01953,-0.298828 0.02846,-0.214583 0.01331,-0.30265 -0.08008,-0.460938 -0.08681,-0.147159 -0.101477,-0.218411 -0.06055,-0.294921 0.198718,-0.371301 -0.07513,-0.770256 -0.630859,-0.917969 -0.223449,-0.05939 -0.224811,-0.06106 -0.337891,-0.478516 -0.06248,-0.230639 -0.138799,-0.502754 -0.167969,-0.603515 l -0.05273,-0.181641 0.255859,0.0332 c 0.140582,0.019 0.45987,0.132743 0.708985,0.251953 0.846839,0.405244 1.455879,1.193233 1.68164,2.173828 0.138763,0.602802 0.158936,0.927825 0.197266,3.189454 0.01795,1.057808 0.05472,2.25203 0.08203,2.654296 0.02731,0.402265 0.05189,0.780254 0.05469,0.839844 0.0036,0.07689 0.02004,0.06065 0.05664,-0.05469 0.02832,-0.08939 0.06616,-1.343888 0.08398,-2.789063 0.03336,-2.703708 0.0035,-3.385129 -0.177735,-4.085937 -0.16671,-0.64472 -0.678495,-1.48504 -1.144531,-1.875 -0.233734,-0.195576 -1.09326,-0.622965 -1.361328,-0.677735 l -0.181641,-0.03711 0.03516,-0.359375 c 0.0909,-0.92584 0.261484,-2.079006 0.363282,-2.458984 0.220532,-0.823203 0.667362,-1.375131 1.398437,-1.726563 0.254646,-0.122412 0.620695,-0.298998 0.8125,-0.392578 0.191805,-0.09358 0.474745,-0.284888 0.628907,-0.425781 0.154156,-0.140892 0.295393,-0.241707 0.314453,-0.222657 0.01905,0.01906 0.03516,0.127478 0.03516,0.240235 0,0.481752 0.246942,1.348503 0.597656,2.09375 0.32727,0.695431 0.758462,1.353172 1.830078,2.798828 1.056407,1.425128 1.551915,2.197519 1.988281,3.091797 0.293417,0.601298 0.608465,1.447899 0.765626,2.058593 l 0.04297,0.16211 0.01758,-0.201172 c 0.02579,-0.277583 -0.116911,-1.067588 -0.287109,-1.587891 -0.198966,-0.608267 -0.709781,-1.630922 -1.148437,-2.300781 -0.20489,-0.312873 -0.7326,-1.063528 -1.171876,-1.667969 -1.031655,-1.419512 -1.288441,-1.817178 -1.605468,-2.476562 -0.332559,-0.691679 -0.5143,-1.273773 -0.59961,-1.927735 -0.08161,-0.625568 -0.02228,-1.20251 0.22461,-2.18164 0.08917,-0.353607 0.153215,-0.671318 0.140625,-0.705078 z m 5.546875,0.208984 c -0.20804,-0.373783 -0.170794,-0.341014 0.378906,0.326172 0.220945,0.268176 0.641572,0.7251 0.935547,1.015625 0.293974,0.290525 0.525232,0.527344 0.513672,0.527344 -0.01157,0 -0.212734,-0.12533 -0.447266,-0.279297 -0.656238,-0.430813 -0.878411,-0.687067 -1.380859,-1.589844 z m -2.029297,0.193355 c -0.01238,0.01273 0.118466,0.308875 0.291015,0.658203 0.613335,1.241695 0.640752,1.824976 0.150391,3.320312 -0.339459,1.035163 -0.51036,1.833191 -0.5625,2.628906 -0.02559,0.391229 -0.01786,0.541016 0.02734,0.541016 0.03577,0 0.06229,-0.08632 0.0625,-0.203125 5.85e-4,-0.314723 0.178127,-0.98863 0.513672,-1.9375 0.629314,-1.779529 0.635512,-1.798906 0.664062,-2.421875 0.02375,-0.517644 0.01169,-0.629474 -0.113281,-1.029297 -0.08589,-0.274778 -0.243969,-0.606576 -0.408203,-0.855469 -0.257459,-0.390168 -0.57788,-0.749631 -0.625,-0.701171 z m -0.646485,0.01953 c -0.305441,-0.09967 -0.696385,0.840808 -0.791015,1.90039 -0.0861,0.96404 0.08052,1.806149 0.574219,2.90625 0.07815,0.174148 0.16177,0.316407 0.1875,0.316407 0.02573,0 0.04687,0.04214 0.04687,0.0918 0,0.179196 0.06464,0.01659 0.304687,-0.77539 0.316477,-1.044167 0.400391,-1.487224 0.400391,-2.105469 0,-1.002428 -0.377941,-2.221491 -0.722657,-2.333984 z m -0.03125,0.232422 c 0.06862,0.07067 0.255429,0.875324 0.324219,1.396484 0.0802,0.607678 0.04073,1.52771 -0.111328,2.601563 -0.06328,0.446961 -0.123012,0.837397 -0.132812,0.867187 -0.05798,0.17555 -0.376701,-1.210504 -0.462891,-2.011719 -0.06014,-0.559139 -0.01569,-1.382171 0.105469,-1.949218 0.120799,-0.565344 0.237443,-0.945337 0.277343,-0.904297 z m -4.988281,4.957031 c -5.03e-4,0.02057 0.06274,0.213834 0.140625,0.43164 0.176217,0.492779 0.543717,1.229616 1.035156,2.076172 0.776144,1.336982 1.064066,1.941119 1.386719,2.902344 0.500178,1.4901 0.660737,2.710903 0.769531,5.875 0.04303,1.251492 0.102893,2.505988 0.132813,2.789063 0.02992,0.283077 0.0577,0.551013 0.0625,0.595703 0.0045,0.0447 0.0276,-0.04046 0.05078,-0.189453 0.06181,-0.397656 0.05883,-4.420895 -0.0039,-5.335938 -0.175859,-2.564977 -0.755251,-4.521896 -1.867188,-6.310547 l -0.773437,-1.246094 c -0.240805,-0.387365 -0.54978,-0.912736 -0.685547,-1.166015 -0.135774,-0.253277 -0.247642,-0.442445 -0.248047,-0.421875 z m -2.958984,2.15039 c 0.02954,0.204171 0.352588,1.462137 0.488281,1.888672 0.03409,0.107138 0.01975,0.121094 -0.117187,0.121094 -0.153701,0 -0.158466,-0.0092 -0.369141,-0.74414 -0.199766,-0.697685 -0.09159,-0.932637 -0.002,-1.265626 z m -0.367188,1.375 c 0.05205,-0.0162 0.272443,0.679164 0.226563,0.714844 -0.0087,0.0068 -0.159053,0.07734 -0.333984,0.15625 -0.334638,0.150961 -0.414063,0.170283 -0.414063,0.101563 0,-0.08918 0.464184,-0.954805 0.521484,-0.972657 z m 15.355469,0.865235 c 0.09301,-0.414989 0.02256,-0.309221 -0.126953,0.189453 -0.192885,0.643338 -0.298318,1.194792 -0.400391,2.097656 -0.147976,1.30892 -0.104755,5.219606 0.07031,6.314453 0.01926,0.120174 0.04999,0.203907 0.06836,0.185547 0.01844,-0.01836 0.04944,-1.450355 0.06836,-3.183594 0.02918,-2.668027 0.05234,-3.321324 0.15039,-4.255859 0.06369,-0.607103 0.139862,-1.21332 0.169922,-1.347656 z m -14.609375,0.158203 c 0.405631,-0.02374 0.759106,0.0531 0.880859,0.238281 0.133608,0.203194 -0.0065,0.29734 -0.568359,0.38086 -0.274651,0.04082 -0.602943,0.119068 -0.728515,0.173828 l -0.228516,0.09766 0.65039,-0.01953 c 0.548175,-0.01715 0.679904,-0.0047 0.839844,0.07813 0.152755,0.07907 0.189453,0.128829 0.189453,0.259765 0,0.158575 -0.01335,0.167936 -0.568359,0.347657 -0.312872,0.101313 -0.579347,0.192695 -0.591797,0.203125 -0.07509,0.06307 0.10101,0.06943 0.589844,0.02344 0.304871,-0.02866 0.587086,-0.03754 0.628906,-0.02148 0.214141,0.08217 -0.02094,0.581831 -0.357422,0.759765 -0.170349,0.09008 -0.323625,0.123047 -0.570312,0.123047 -0.29092,0 -0.373788,-0.02401 -0.59961,-0.175781 -0.525135,-0.352936 -0.888671,-1.053545 -0.888671,-1.714844 0,-0.270526 0.01925,-0.328971 0.123046,-0.394531 0.335514,-0.211935 0.793588,-0.335639 1.199219,-0.359375 z"
       sodipodi:nodetypes="ccscccccsccssscsccsccccsccccccscccssccsccsccccccsssscccscscccccscsscsccccccscsscscssccscssccsccccscscssscscssccsccsccccsccscccccccccsccscccscccsccccccsscscssccccccsccscccccsccscscccccsccccccssscscscccscsssccscsccsscscscccscccsscccccccssccccssssscscccccssssscccssscccccccccccsscsccccssccscsccccsccccsccsccccsscccssscssccccccsccccccccssscccscscccsscccsssscscccccccscccssssccccccccccsccccccscsssccccsscccccccsscccssssccc" /><ellipse
       style="fill:#d20f39;fill-opacity:1;stroke:none;stroke-width:0.352777;stroke-linecap:round;stroke-linejoin:round;stroke-opacity:0.25098"
       id="path5421"
       cx="6.0820656"
       cy="16.194742"
       rx="0.85853827"
       ry="0.84950101" /><text
       xml:space="preserve"
       style="font-style:normal;font-variant:normal;font-weight:normal;font-stretch:normal;font-size:31.75px;font-family:'CaskaydiaCove Nerd Font Propo';-inkscape-font-specification:'CaskaydiaCove Nerd Font Propo';text-align:center;text-anchor:middle;display:none;fill:#74c7ec;fill-opacity:1;stroke:none;stroke-width:0.352777;stroke-linecap:round;stroke-linejoin:round;stroke-opacity:0.25098"
       x="94.365883"
       y="36.826874"
       id="text7836"><tspan
         sodipodi:role="line"
         id="tspan7834"
         style="font-style:normal;font-variant:normal;font-weight:normal;font-stretch:normal;font-size:31.75px;font-family:'Magical Neverland';-inkscape-font-specification:'Magical Neverland';stroke-width:0.352778"
         x="0"
         y="0">DOTFILES</tspan></text><text
       xml:space="preserve"
       style="font-style:normal;font-variant:normal;font-weight:normal;font-stretch:normal;font-size:31.75px;font-family:'CaskaydiaCove Nerd Font Propo';-inkscape-font-specification:'CaskaydiaCove Nerd Font Propo';text-align:center;text-anchor:middle;display:inline;fill:#179299;fill-opacity:1;stroke:none;stroke-width:0.352777;stroke-linecap:round;stroke-linejoin:round;stroke-opacity:0.25098"
       x="90.33152"
       y="33.00827"
       id="text7836-3"><tspan
         sodipodi:role="line"
         id="tspan7834-0"
         style="font-style:normal;font-variant:normal;font-weight:normal;font-stretch:normal;font-size:31.75px;font-family:'Magical Neverland';-inkscape-font-specification:'Magical Neverland';fill:#179299;fill-opacity:1;stroke-width:0.352778"
         x="90.33152"
         y="33.00827">Dotfiles</tspan></text><text
       xml:space="preserve"
       style="font-style:normal;font-variant:normal;font-weight:normal;font-stretch:normal;font-size:7.9375px;font-family:'Magical Neverland';-inkscape-font-specification:'Magical Neverland';text-align:center;text-anchor:middle;fill:#04a5e5;fill-opacity:1;stroke-width:0.352777;stroke-linecap:round;stroke-linejoin:round;stroke-opacity:0.25098"
       x="91.004509"
       y="44.185608"
       id="text1089"><tspan
         sodipodi:role="line"
         id="tspan1087"
         style="font-size:7.9375px;fill:#04a5e5;fill-opacity:1;stroke-width:0.352778"
         x="91.004509"
         y="44.185608">&amp; the magic of the terminal</tspan></text><rect
       style="fill:#d20f39;fill-opacity:1;stroke:none;stroke-width:0.202585;stroke-linecap:round;stroke-linejoin:round"
       id="rect22666"
       width="106"
       height="16"
       x="22"
       y="53.671944"
       rx="2"
       ry="2" /><text
       xml:space="preserve"
       style="font-style:normal;font-variant:normal;font-weight:normal;font-stretch:normal;font-size:5.29167px;font-family:'Magical Neverland';-inkscape-font-specification:'Magical Neverland';text-align:center;text-anchor:middle;fill:#ffffff;fill-opacity:1;stroke-width:0.352777;stroke-linecap:round;stroke-linejoin:round;stroke-opacity:0.25098"
       x="74.986771"
       y="60.552505"
       id="text15976"><tspan
         sodipodi:role="line"
         style="font-size:5.29167px;fill:#ffffff;stroke-width:0.352778"
         x="74.986771"
         y="60.552505"
         id="tspan15978">The following spell has been applied to you:</tspan><tspan
         sodipodi:role="line"
         style="font-size:5.29167px;fill:#ffffff;stroke-width:0.352778"
         x="74.986771"
         y="67.167091"
         id="tspan15980">You have to use a Dark Theme from now on</tspan></text></g></svg>
